%TF.GenerationSoftware,KiCad,Pcbnew,8.0.6*%
%TF.CreationDate,2025-02-27T14:04:23-08:00*%
%TF.ProjectId,Tempting,54656d70-7469-46e6-972e-6b696361645f,rev?*%
%TF.SameCoordinates,PX7ce2370PY7735940*%
%TF.FileFunction,Soldermask,Bot*%
%TF.FilePolarity,Negative*%
%FSLAX46Y46*%
G04 Gerber Fmt 4.6, Leading zero omitted, Abs format (unit mm)*
G04 Created by KiCad (PCBNEW 8.0.6) date 2025-02-27 14:04:23*
%MOMM*%
%LPD*%
G01*
G04 APERTURE LIST*
%ADD10C,1.400000*%
%ADD11C,0.650000*%
%ADD12O,2.100000X1.000000*%
%ADD13O,1.600000X1.000000*%
%ADD14C,0.700000*%
%ADD15C,4.400000*%
%ADD16C,2.374900*%
%ADD17C,0.990600*%
%ADD18C,0.800000*%
%ADD19C,6.400000*%
%ADD20R,1.700000X1.700000*%
%ADD21O,1.700000X1.700000*%
G04 APERTURE END LIST*
D10*
%TO.C,SW2*%
X38300000Y2250000D03*
X31800000Y2250000D03*
X38300000Y6750000D03*
X31800000Y6750000D03*
%TD*%
D11*
%TO.C,J4*%
X5620000Y33780000D03*
X5620000Y28000000D03*
D12*
X6150000Y35210000D03*
D13*
X1970000Y35210000D03*
D12*
X6150000Y26570000D03*
D13*
X1970000Y26570000D03*
%TD*%
D14*
%TO.C,H4*%
X5850000Y45000000D03*
X6333274Y46166726D03*
X6333274Y43833274D03*
X7500000Y46650000D03*
D15*
X7500000Y45000000D03*
D14*
X7500000Y43350000D03*
X8666726Y46166726D03*
X8666726Y43833274D03*
X9150000Y45000000D03*
%TD*%
%TO.C,H3*%
X5850000Y12500000D03*
X6333274Y13666726D03*
X6333274Y11333274D03*
X7500000Y14150000D03*
D15*
X7500000Y12500000D03*
D14*
X7500000Y10850000D03*
X8666726Y13666726D03*
X8666726Y11333274D03*
X9150000Y12500000D03*
%TD*%
%TO.C,H2*%
X43710000Y45000000D03*
X44193274Y46166726D03*
X44193274Y43833274D03*
X45360000Y46650000D03*
D15*
X45360000Y45000000D03*
D14*
X45360000Y43350000D03*
X46526726Y46166726D03*
X46526726Y43833274D03*
X47010000Y45000000D03*
%TD*%
D16*
%TO.C,J3*%
X9210000Y6940000D03*
D17*
X6670000Y6940000D03*
D16*
X4130000Y6940000D03*
X9210000Y3765000D03*
X4130000Y3765000D03*
D17*
X7686000Y1860000D03*
X5654000Y1860000D03*
%TD*%
D18*
%TO.C,H6*%
X42960000Y52500000D03*
X43662944Y54197056D03*
X43662944Y50802944D03*
X45360000Y54900000D03*
D19*
X45360000Y52500000D03*
D18*
X45360000Y50100000D03*
X47057056Y54197056D03*
X47057056Y50802944D03*
X47760000Y52500000D03*
%TD*%
D10*
%TO.C,SW1*%
X21050000Y2250000D03*
X14550000Y2250000D03*
X21050000Y6750000D03*
X14550000Y6750000D03*
%TD*%
D18*
%TO.C,H5*%
X5100000Y52500000D03*
X5802944Y54197056D03*
X5802944Y50802944D03*
X7500000Y54900000D03*
D19*
X7500000Y52500000D03*
D18*
X7500000Y50100000D03*
X9197056Y54197056D03*
X9197056Y50802944D03*
X9900000Y52500000D03*
%TD*%
D20*
%TO.C,J2*%
X34050000Y45000000D03*
D21*
X31510000Y45000000D03*
X28970000Y45000000D03*
X26430000Y45000000D03*
X23890000Y45000000D03*
X21350000Y45000000D03*
X18810000Y45000000D03*
%TD*%
D14*
%TO.C,H1*%
X43710000Y12500000D03*
X44193274Y13666726D03*
X44193274Y11333274D03*
X45360000Y14150000D03*
D15*
X45360000Y12500000D03*
D14*
X45360000Y10850000D03*
X46526726Y13666726D03*
X46526726Y11333274D03*
X47010000Y12500000D03*
%TD*%
M02*
