%TF.GenerationSoftware,KiCad,Pcbnew,8.0.6*%
%TF.CreationDate,2025-02-27T14:04:23-08:00*%
%TF.ProjectId,Tempting,54656d70-7469-46e6-972e-6b696361645f,rev?*%
%TF.SameCoordinates,PX7ce2370PY7735940*%
%TF.FileFunction,Copper,L3,Inr*%
%TF.FilePolarity,Positive*%
%FSLAX46Y46*%
G04 Gerber Fmt 4.6, Leading zero omitted, Abs format (unit mm)*
G04 Created by KiCad (PCBNEW 8.0.6) date 2025-02-27 14:04:23*
%MOMM*%
%LPD*%
G01*
G04 APERTURE LIST*
%TA.AperFunction,ComponentPad*%
%ADD10C,1.400000*%
%TD*%
%TA.AperFunction,ComponentPad*%
%ADD11O,2.100000X1.000000*%
%TD*%
%TA.AperFunction,ComponentPad*%
%ADD12O,1.600000X1.000000*%
%TD*%
%TA.AperFunction,ComponentPad*%
%ADD13C,0.700000*%
%TD*%
%TA.AperFunction,ComponentPad*%
%ADD14C,4.400000*%
%TD*%
%TA.AperFunction,ComponentPad*%
%ADD15C,0.800000*%
%TD*%
%TA.AperFunction,ComponentPad*%
%ADD16C,6.400000*%
%TD*%
%TA.AperFunction,ComponentPad*%
%ADD17R,1.700000X1.700000*%
%TD*%
%TA.AperFunction,ComponentPad*%
%ADD18O,1.700000X1.700000*%
%TD*%
%TA.AperFunction,ViaPad*%
%ADD19C,0.700000*%
%TD*%
%TA.AperFunction,ViaPad*%
%ADD20C,0.900000*%
%TD*%
G04 APERTURE END LIST*
D10*
%TO.N,GND*%
%TO.C,SW2*%
X38300000Y2250000D03*
X31800000Y2250000D03*
%TO.N,/BUTTON_2*%
X38300000Y6750000D03*
X31800000Y6750000D03*
%TD*%
D11*
%TO.N,GND*%
%TO.C,J4*%
X6150000Y35210000D03*
D12*
X1970000Y35210000D03*
D11*
X6150000Y26570000D03*
D12*
X1970000Y26570000D03*
%TD*%
D13*
%TO.N,GND*%
%TO.C,H4*%
X5850000Y45000000D03*
X6333274Y46166726D03*
X6333274Y43833274D03*
X7500000Y46650000D03*
D14*
X7500000Y45000000D03*
D13*
X7500000Y43350000D03*
X8666726Y46166726D03*
X8666726Y43833274D03*
X9150000Y45000000D03*
%TD*%
%TO.N,GND*%
%TO.C,H3*%
X5850000Y12500000D03*
X6333274Y13666726D03*
X6333274Y11333274D03*
X7500000Y14150000D03*
D14*
X7500000Y12500000D03*
D13*
X7500000Y10850000D03*
X8666726Y13666726D03*
X8666726Y11333274D03*
X9150000Y12500000D03*
%TD*%
%TO.N,GND*%
%TO.C,H2*%
X43710000Y45000000D03*
X44193274Y46166726D03*
X44193274Y43833274D03*
X45360000Y46650000D03*
D14*
X45360000Y45000000D03*
D13*
X45360000Y43350000D03*
X46526726Y46166726D03*
X46526726Y43833274D03*
X47010000Y45000000D03*
%TD*%
D15*
%TO.N,GND*%
%TO.C,H6*%
X42960000Y52500000D03*
X43662944Y54197056D03*
X43662944Y50802944D03*
X45360000Y54900000D03*
D16*
X45360000Y52500000D03*
D15*
X45360000Y50100000D03*
X47057056Y54197056D03*
X47057056Y50802944D03*
X47760000Y52500000D03*
%TD*%
D10*
%TO.N,GND*%
%TO.C,SW1*%
X21050000Y2250000D03*
X14550000Y2250000D03*
%TO.N,/BUTTON_1*%
X21050000Y6750000D03*
X14550000Y6750000D03*
%TD*%
D15*
%TO.N,GND*%
%TO.C,H5*%
X5100000Y52500000D03*
X5802944Y54197056D03*
X5802944Y50802944D03*
X7500000Y54900000D03*
D16*
X7500000Y52500000D03*
D15*
X7500000Y50100000D03*
X9197056Y54197056D03*
X9197056Y50802944D03*
X9900000Y52500000D03*
%TD*%
D17*
%TO.N,/OLED_NRST*%
%TO.C,J2*%
X34050000Y45000000D03*
D18*
%TO.N,/OLED_DC*%
X31510000Y45000000D03*
%TO.N,/OLED_NCS*%
X28970000Y45000000D03*
%TO.N,/OLED_CLK*%
X26430000Y45000000D03*
%TO.N,/OLED_DIN*%
X23890000Y45000000D03*
%TO.N,GND*%
X21350000Y45000000D03*
%TO.N,+3.3V*%
X18810000Y45000000D03*
%TD*%
D13*
%TO.N,GND*%
%TO.C,H1*%
X43710000Y12500000D03*
X44193274Y13666726D03*
X44193274Y11333274D03*
X45360000Y14150000D03*
D14*
X45360000Y12500000D03*
D13*
X45360000Y10850000D03*
X46526726Y13666726D03*
X46526726Y11333274D03*
X47010000Y12500000D03*
%TD*%
D19*
%TO.N,GND*%
X31695115Y27693365D03*
X27600000Y58050000D03*
D20*
X46550000Y37500000D03*
X46550000Y17500000D03*
X49050000Y27500000D03*
X41550000Y60000000D03*
X34050000Y7500000D03*
X17820000Y40310000D03*
X26550000Y2500000D03*
X34050000Y5000000D03*
X1550000Y2500000D03*
X20440000Y21250000D03*
D19*
X10560000Y28010000D03*
X45030000Y32630000D03*
D20*
X36550000Y2500000D03*
X1550000Y42500000D03*
X24050000Y5000000D03*
D19*
X24325000Y30850000D03*
D20*
X1550000Y40000000D03*
X1550000Y25000000D03*
D19*
X27525000Y29825000D03*
D20*
X16550000Y35000000D03*
X1550000Y22500000D03*
X1550000Y5000000D03*
X11550000Y62500000D03*
X46550000Y22500000D03*
D19*
X27600000Y55600000D03*
D20*
X4050000Y40000000D03*
X51550000Y7500000D03*
X51550000Y15000000D03*
D19*
X35710000Y40580000D03*
D20*
X49050000Y10000000D03*
X9050000Y62500000D03*
D19*
X35300000Y47799997D03*
X32650000Y35150000D03*
D20*
X11550000Y42500000D03*
X44050000Y60000000D03*
X4050000Y47500000D03*
D19*
X20450000Y26930000D03*
D20*
X14050000Y42500000D03*
X16550000Y45000000D03*
D19*
X32340000Y42600000D03*
D20*
X14050000Y60000000D03*
D19*
X34450000Y41025000D03*
X31860000Y30670000D03*
D20*
X35180000Y57280000D03*
D19*
X28525000Y28725000D03*
D20*
X9050000Y37500000D03*
X26550000Y10000000D03*
X8800000Y26090000D03*
X24050000Y2500000D03*
X9050000Y40000000D03*
X9050000Y57500000D03*
X22810000Y47610000D03*
D19*
X32962500Y28350000D03*
D20*
X49050000Y17500000D03*
X1550000Y17500000D03*
X44050000Y37500000D03*
D19*
X25200000Y55600000D03*
D20*
X29050000Y10000000D03*
D19*
X21900000Y22900000D03*
D20*
X34050000Y62500000D03*
X16550000Y50000000D03*
X16550000Y62500000D03*
D19*
X34219979Y38371751D03*
D20*
X31550000Y5000000D03*
X11550000Y12500000D03*
D19*
X9720000Y16360000D03*
D20*
X14050000Y57500000D03*
X1550000Y32500000D03*
X4050000Y32500000D03*
X19050000Y5000000D03*
X1550000Y12500000D03*
D19*
X36137500Y26050001D03*
X41724998Y39640310D03*
X34321750Y27150000D03*
D20*
X9050000Y25000000D03*
X51550000Y12500000D03*
X29050000Y5000000D03*
D19*
X17660000Y9910000D03*
D20*
X39050000Y10000000D03*
X14050000Y25000000D03*
X4050000Y30000000D03*
X16550000Y5000000D03*
X6550000Y37500000D03*
X19050000Y35000000D03*
D19*
X45010000Y27440000D03*
X24175000Y20250000D03*
D20*
X29050000Y7500000D03*
X41550000Y62500000D03*
X1550000Y7500000D03*
X11550000Y52500000D03*
X14050000Y52500000D03*
X34050000Y20000000D03*
X14050000Y50000000D03*
D19*
X47010000Y32640000D03*
X28525000Y30850000D03*
D20*
X16550000Y47500000D03*
D19*
X8925000Y31050000D03*
X23150431Y13393800D03*
X18050000Y54300000D03*
D20*
X14050000Y47500000D03*
X19050000Y37500000D03*
X51550000Y17500000D03*
D19*
X22450000Y33600000D03*
D20*
X44050000Y57500000D03*
X11550000Y60000000D03*
X4050000Y25000000D03*
X39050000Y62500000D03*
X1550000Y45000000D03*
X6550000Y57500000D03*
X41550000Y10000000D03*
X14050000Y40000000D03*
D19*
X27577428Y21891053D03*
D20*
X11550000Y37500000D03*
D19*
X21090000Y12140000D03*
D20*
X14050000Y27500000D03*
X9050000Y47500000D03*
D19*
X46050000Y27450000D03*
D20*
X21550000Y5000000D03*
X29770000Y16580000D03*
X36550000Y62500000D03*
X31550000Y20000000D03*
X23298619Y39635009D03*
D19*
X46990000Y27450000D03*
D20*
X11550000Y47500000D03*
X34050000Y17500000D03*
D19*
X28668182Y21009269D03*
D20*
X11550000Y25000000D03*
X19050000Y52500000D03*
D19*
X19450000Y8550000D03*
D20*
X34050000Y2500000D03*
X51550000Y5000000D03*
X19050000Y2500000D03*
X1550000Y15000000D03*
X27340000Y40650000D03*
X49050000Y42500000D03*
X11550000Y57500000D03*
D19*
X15610000Y20410000D03*
D20*
X29050000Y2500000D03*
X16550000Y52500000D03*
X9050000Y60000000D03*
D19*
X27650000Y16550000D03*
X20000000Y30000000D03*
X15610000Y21800000D03*
D20*
X16550000Y30000000D03*
X19050000Y50000000D03*
D19*
X37890000Y30907500D03*
D20*
X6550000Y40000000D03*
X46550000Y25000000D03*
X8200000Y35810000D03*
X36550000Y55000000D03*
X11550000Y40000000D03*
X49050000Y50000000D03*
D19*
X40135903Y24808683D03*
D20*
X16550000Y2500000D03*
D19*
X10560000Y34100000D03*
D20*
X1550000Y30000000D03*
X26550000Y5000000D03*
X4050000Y37500000D03*
X21810000Y18360000D03*
D19*
X21145000Y20180000D03*
X24679482Y15378250D03*
X34750000Y54300000D03*
D20*
X44050000Y25000000D03*
X11550000Y45000000D03*
X44050000Y40000000D03*
X16550000Y42500000D03*
X51550000Y2500000D03*
X4050000Y42500000D03*
X24050000Y7500000D03*
D19*
X39650003Y48750000D03*
D20*
X34050000Y10000000D03*
X14050000Y62500000D03*
X36550000Y10000000D03*
X49050000Y30000000D03*
D19*
X25325000Y27675000D03*
D20*
X46550000Y35000000D03*
X11550000Y50000000D03*
D19*
X25175000Y22975000D03*
X33450000Y8550000D03*
X25200000Y58050000D03*
D20*
X31550000Y62500000D03*
X29010000Y33890000D03*
X36550000Y5000000D03*
X46550000Y40000000D03*
X44050000Y22500000D03*
X49050000Y37500000D03*
X19050000Y62500000D03*
X1550000Y20000000D03*
X49050000Y12500000D03*
D19*
X21150000Y36050000D03*
D20*
X49050000Y32500000D03*
D19*
X22090000Y9990000D03*
D20*
X49050000Y15000000D03*
X36550000Y52500000D03*
X6550000Y25000000D03*
D19*
X28525000Y26650000D03*
X40074998Y39640310D03*
X21550000Y26930000D03*
X41674937Y24164408D03*
D20*
X46550000Y57500000D03*
X1550000Y10000000D03*
X21550000Y62500000D03*
D19*
X15600000Y19460000D03*
D20*
X14050000Y37500000D03*
D19*
X30750000Y32931136D03*
X28450000Y13650000D03*
D20*
X14050000Y35000000D03*
D19*
X26425000Y30825000D03*
D20*
X31550000Y10000000D03*
D19*
X46070000Y32640000D03*
D20*
X19050000Y32500000D03*
D19*
X25325000Y29800000D03*
D20*
X51550000Y10000000D03*
D19*
X24300000Y28725000D03*
X27550000Y27725000D03*
D20*
X36550000Y7500000D03*
X14050000Y17500000D03*
D19*
X36137500Y28355000D03*
D20*
X16150000Y54600000D03*
D19*
X8920000Y18050000D03*
X11240000Y16390000D03*
D20*
X14050000Y45000000D03*
X14050000Y55000000D03*
X44050000Y35000000D03*
D19*
X8880000Y17100000D03*
X4200000Y1690000D03*
X24325000Y26650000D03*
D20*
X14050000Y5000000D03*
X16550000Y32500000D03*
X11550000Y55000000D03*
X31550000Y17500000D03*
X1550000Y37500000D03*
X51550000Y20000000D03*
X49050000Y45000000D03*
D19*
X26425000Y26600000D03*
X15610000Y22640000D03*
D20*
X4050000Y45000000D03*
X49050000Y25000000D03*
X49050000Y35000000D03*
D19*
X22450000Y34650000D03*
X37877500Y29092500D03*
D20*
X14050000Y12500000D03*
X26550000Y7500000D03*
X44050000Y62500000D03*
X4050000Y15000000D03*
%TO.N,+3.3V*%
X33910000Y57320000D03*
X28649927Y16562345D03*
X23610000Y38580000D03*
X22845000Y48775000D03*
D19*
X28470000Y22640000D03*
X19139756Y29368250D03*
D20*
X16130000Y55840000D03*
X28240000Y39920000D03*
X21300352Y24441340D03*
X22942451Y19087549D03*
X19050000Y40300000D03*
X12820000Y15230000D03*
X32720000Y31620000D03*
D19*
X32080000Y28630000D03*
%TO.N,/SWD_NRST*%
X23010000Y20580000D03*
X27769395Y20962515D03*
%TO.N,/BUTTON_1*%
X18850000Y10030000D03*
X21090000Y10000000D03*
%TO.N,/BUTTON_2*%
X21090000Y10921385D03*
X19720000Y10921385D03*
%TO.N,/OLED_CLK*%
X35549949Y25368250D03*
X35700000Y38675000D03*
%TO.N,/OLED_NCS*%
X34950000Y39628250D03*
X34829375Y25918250D03*
%TO.N,/OLED_DIN*%
X33680741Y26518250D03*
X34253250Y37450000D03*
%TO.N,/OLED_DC*%
X33550000Y41075000D03*
X32856872Y26988250D03*
%TO.N,/OLED_NRST*%
X36725000Y39975000D03*
X36333231Y24925000D03*
%TO.N,/LED_R*%
X38750000Y48750000D03*
X35300000Y48700000D03*
%TO.N,/SENSORS_SDA*%
X24028250Y14750000D03*
X24050000Y13421750D03*
%TO.N,/LED_R_MCU*%
X42550000Y40000000D03*
X42150000Y23400000D03*
%TO.N,/LED_G_MCU*%
X40775000Y24175000D03*
X40900000Y40000000D03*
%TO.N,/LED_B_MCU*%
X39250000Y24650000D03*
X39250000Y40000000D03*
%TD*%
%TA.AperFunction,Conductor*%
%TO.N,GND*%
G36*
X45132860Y64679815D02*
G01*
X45178615Y64627011D01*
X45181924Y64619043D01*
X52539065Y45000001D01*
X52551605Y44966563D01*
X52559500Y44923024D01*
X52559500Y424500D01*
X52539815Y357461D01*
X52487011Y311706D01*
X52435500Y300500D01*
X424500Y300500D01*
X357461Y320185D01*
X311706Y372989D01*
X300500Y424500D01*
X300500Y1933460D01*
X4908200Y1933460D01*
X4908200Y1786541D01*
X4936858Y1642466D01*
X4936861Y1642456D01*
X4993078Y1506734D01*
X4993083Y1506725D01*
X5074698Y1384581D01*
X5074701Y1384577D01*
X5178576Y1280702D01*
X5178580Y1280699D01*
X5300724Y1199084D01*
X5300730Y1199081D01*
X5300731Y1199080D01*
X5436458Y1142860D01*
X5580540Y1114201D01*
X5580544Y1114200D01*
X5580545Y1114200D01*
X5727456Y1114200D01*
X5727457Y1114201D01*
X5871542Y1142860D01*
X6007269Y1199080D01*
X6129420Y1280699D01*
X6233301Y1384580D01*
X6314920Y1506731D01*
X6371140Y1642458D01*
X6399800Y1786545D01*
X6399800Y1933455D01*
X6399799Y1933460D01*
X6940200Y1933460D01*
X6940200Y1786541D01*
X6968858Y1642466D01*
X6968861Y1642456D01*
X7025078Y1506734D01*
X7025083Y1506725D01*
X7106698Y1384581D01*
X7106701Y1384577D01*
X7210576Y1280702D01*
X7210580Y1280699D01*
X7332724Y1199084D01*
X7332730Y1199081D01*
X7332731Y1199080D01*
X7468458Y1142860D01*
X7612540Y1114201D01*
X7612544Y1114200D01*
X7612545Y1114200D01*
X7759456Y1114200D01*
X7759457Y1114201D01*
X7903542Y1142860D01*
X8039269Y1199080D01*
X8161420Y1280699D01*
X8265301Y1384580D01*
X8346920Y1506731D01*
X8403140Y1642458D01*
X8431800Y1786545D01*
X8431800Y1933455D01*
X8403140Y2077542D01*
X8346920Y2213269D01*
X8346919Y2213270D01*
X8346916Y2213276D01*
X8322377Y2250001D01*
X13344859Y2250001D01*
X13344859Y2250000D01*
X13365378Y2028561D01*
X13426240Y1814650D01*
X13525369Y1615572D01*
X13541137Y1594692D01*
X13541138Y1594692D01*
X14071119Y2124674D01*
X14088734Y2058937D01*
X14153902Y1946063D01*
X14246063Y1853902D01*
X14358937Y1788734D01*
X14424672Y1771120D01*
X13896672Y1243121D01*
X13896672Y1243120D01*
X14012821Y1171203D01*
X14012822Y1171202D01*
X14220195Y1090866D01*
X14438807Y1050000D01*
X14661193Y1050000D01*
X14879809Y1090867D01*
X15087168Y1171199D01*
X15087181Y1171205D01*
X15203326Y1243121D01*
X14675327Y1771121D01*
X14741063Y1788734D01*
X14853937Y1853902D01*
X14946098Y1946063D01*
X15011266Y2058937D01*
X15028880Y2124673D01*
X15558861Y1594692D01*
X15574631Y1615575D01*
X15574633Y1615578D01*
X15673759Y1814650D01*
X15734621Y2028561D01*
X15755141Y2250000D01*
X15755141Y2250001D01*
X19844859Y2250001D01*
X19844859Y2250000D01*
X19865378Y2028561D01*
X19926240Y1814650D01*
X20025369Y1615572D01*
X20041137Y1594692D01*
X20041138Y1594692D01*
X20571119Y2124674D01*
X20588734Y2058937D01*
X20653902Y1946063D01*
X20746063Y1853902D01*
X20858937Y1788734D01*
X20924672Y1771120D01*
X20396672Y1243121D01*
X20396672Y1243120D01*
X20512821Y1171203D01*
X20512822Y1171202D01*
X20720195Y1090866D01*
X20938807Y1050000D01*
X21161193Y1050000D01*
X21379809Y1090867D01*
X21587168Y1171199D01*
X21587181Y1171205D01*
X21703326Y1243121D01*
X21175327Y1771121D01*
X21241063Y1788734D01*
X21353937Y1853902D01*
X21446098Y1946063D01*
X21511266Y2058937D01*
X21528880Y2124673D01*
X22058861Y1594692D01*
X22074631Y1615575D01*
X22074633Y1615578D01*
X22173759Y1814650D01*
X22234621Y2028561D01*
X22255141Y2250000D01*
X22255141Y2250001D01*
X30594859Y2250001D01*
X30594859Y2250000D01*
X30615378Y2028561D01*
X30676240Y1814650D01*
X30775369Y1615572D01*
X30791137Y1594692D01*
X30791138Y1594692D01*
X31321119Y2124674D01*
X31338734Y2058937D01*
X31403902Y1946063D01*
X31496063Y1853902D01*
X31608937Y1788734D01*
X31674672Y1771120D01*
X31146672Y1243121D01*
X31146672Y1243120D01*
X31262821Y1171203D01*
X31262822Y1171202D01*
X31470195Y1090866D01*
X31688807Y1050000D01*
X31911193Y1050000D01*
X32129809Y1090867D01*
X32337168Y1171199D01*
X32337181Y1171205D01*
X32453326Y1243121D01*
X31925327Y1771121D01*
X31991063Y1788734D01*
X32103937Y1853902D01*
X32196098Y1946063D01*
X32261266Y2058937D01*
X32278880Y2124673D01*
X32808861Y1594692D01*
X32824631Y1615575D01*
X32824633Y1615578D01*
X32923759Y1814650D01*
X32984621Y2028561D01*
X33005141Y2250000D01*
X33005141Y2250001D01*
X37094859Y2250001D01*
X37094859Y2250000D01*
X37115378Y2028561D01*
X37176240Y1814650D01*
X37275369Y1615572D01*
X37291137Y1594692D01*
X37291138Y1594692D01*
X37821119Y2124674D01*
X37838734Y2058937D01*
X37903902Y1946063D01*
X37996063Y1853902D01*
X38108937Y1788734D01*
X38174672Y1771120D01*
X37646672Y1243121D01*
X37646672Y1243120D01*
X37762821Y1171203D01*
X37762822Y1171202D01*
X37970195Y1090866D01*
X38188807Y1050000D01*
X38411193Y1050000D01*
X38629809Y1090867D01*
X38837168Y1171199D01*
X38837181Y1171205D01*
X38953326Y1243121D01*
X38425327Y1771121D01*
X38491063Y1788734D01*
X38603937Y1853902D01*
X38696098Y1946063D01*
X38761266Y2058937D01*
X38778880Y2124673D01*
X39308861Y1594692D01*
X39324631Y1615575D01*
X39324633Y1615578D01*
X39423759Y1814650D01*
X39484621Y2028561D01*
X39505141Y2250000D01*
X39505141Y2250001D01*
X39484621Y2471440D01*
X39423759Y2685351D01*
X39324635Y2884420D01*
X39324630Y2884428D01*
X39308860Y2905310D01*
X38778879Y2375329D01*
X38761266Y2441063D01*
X38696098Y2553937D01*
X38603937Y2646098D01*
X38491063Y2711266D01*
X38425327Y2728881D01*
X38953327Y3256881D01*
X38837178Y3328798D01*
X38837177Y3328799D01*
X38629804Y3409135D01*
X38411193Y3450000D01*
X38188807Y3450000D01*
X37970195Y3409135D01*
X37762824Y3328800D01*
X37762823Y3328799D01*
X37646671Y3256881D01*
X38174672Y2728881D01*
X38108937Y2711266D01*
X37996063Y2646098D01*
X37903902Y2553937D01*
X37838734Y2441063D01*
X37821119Y2375328D01*
X37291138Y2905309D01*
X37291137Y2905309D01*
X37275368Y2884426D01*
X37176240Y2685351D01*
X37115378Y2471440D01*
X37094859Y2250001D01*
X33005141Y2250001D01*
X32984621Y2471440D01*
X32923759Y2685351D01*
X32824635Y2884420D01*
X32824630Y2884428D01*
X32808860Y2905310D01*
X32278879Y2375329D01*
X32261266Y2441063D01*
X32196098Y2553937D01*
X32103937Y2646098D01*
X31991063Y2711266D01*
X31925327Y2728881D01*
X32453327Y3256881D01*
X32337178Y3328798D01*
X32337177Y3328799D01*
X32129804Y3409135D01*
X31911193Y3450000D01*
X31688807Y3450000D01*
X31470195Y3409135D01*
X31262824Y3328800D01*
X31262823Y3328799D01*
X31146671Y3256881D01*
X31674672Y2728881D01*
X31608937Y2711266D01*
X31496063Y2646098D01*
X31403902Y2553937D01*
X31338734Y2441063D01*
X31321119Y2375328D01*
X30791138Y2905309D01*
X30791137Y2905309D01*
X30775368Y2884426D01*
X30676240Y2685351D01*
X30615378Y2471440D01*
X30594859Y2250001D01*
X22255141Y2250001D01*
X22234621Y2471440D01*
X22173759Y2685351D01*
X22074635Y2884420D01*
X22074630Y2884428D01*
X22058860Y2905310D01*
X21528879Y2375329D01*
X21511266Y2441063D01*
X21446098Y2553937D01*
X21353937Y2646098D01*
X21241063Y2711266D01*
X21175327Y2728881D01*
X21703327Y3256881D01*
X21587178Y3328798D01*
X21587177Y3328799D01*
X21379804Y3409135D01*
X21161193Y3450000D01*
X20938807Y3450000D01*
X20720195Y3409135D01*
X20512824Y3328800D01*
X20512823Y3328799D01*
X20396671Y3256881D01*
X20924672Y2728881D01*
X20858937Y2711266D01*
X20746063Y2646098D01*
X20653902Y2553937D01*
X20588734Y2441063D01*
X20571119Y2375328D01*
X20041138Y2905309D01*
X20041137Y2905309D01*
X20025368Y2884426D01*
X19926240Y2685351D01*
X19865378Y2471440D01*
X19844859Y2250001D01*
X15755141Y2250001D01*
X15734621Y2471440D01*
X15673759Y2685351D01*
X15574635Y2884420D01*
X15574630Y2884428D01*
X15558860Y2905310D01*
X15028879Y2375329D01*
X15011266Y2441063D01*
X14946098Y2553937D01*
X14853937Y2646098D01*
X14741063Y2711266D01*
X14675327Y2728881D01*
X15203327Y3256881D01*
X15087178Y3328798D01*
X15087177Y3328799D01*
X14879804Y3409135D01*
X14661193Y3450000D01*
X14438807Y3450000D01*
X14220195Y3409135D01*
X14012824Y3328800D01*
X14012823Y3328799D01*
X13896671Y3256881D01*
X14424672Y2728881D01*
X14358937Y2711266D01*
X14246063Y2646098D01*
X14153902Y2553937D01*
X14088734Y2441063D01*
X14071119Y2375328D01*
X13541138Y2905309D01*
X13541137Y2905309D01*
X13525368Y2884426D01*
X13426240Y2685351D01*
X13365378Y2471440D01*
X13344859Y2250001D01*
X8322377Y2250001D01*
X8265301Y2335420D01*
X8265298Y2335424D01*
X8161423Y2439299D01*
X8161419Y2439302D01*
X8039275Y2520917D01*
X8039266Y2520922D01*
X7903544Y2577139D01*
X7903545Y2577139D01*
X7903542Y2577140D01*
X7903538Y2577141D01*
X7903534Y2577142D01*
X7759459Y2605800D01*
X7759455Y2605800D01*
X7612545Y2605800D01*
X7612540Y2605800D01*
X7468465Y2577142D01*
X7468455Y2577139D01*
X7332733Y2520922D01*
X7332724Y2520917D01*
X7210580Y2439302D01*
X7210576Y2439299D01*
X7106701Y2335424D01*
X7106698Y2335420D01*
X7025083Y2213276D01*
X7025078Y2213267D01*
X6968861Y2077545D01*
X6968858Y2077535D01*
X6940200Y1933460D01*
X6399799Y1933460D01*
X6371140Y2077542D01*
X6314920Y2213269D01*
X6314919Y2213270D01*
X6314916Y2213276D01*
X6233301Y2335420D01*
X6233298Y2335424D01*
X6129423Y2439299D01*
X6129419Y2439302D01*
X6007275Y2520917D01*
X6007266Y2520922D01*
X5871544Y2577139D01*
X5871545Y2577139D01*
X5871542Y2577140D01*
X5871538Y2577141D01*
X5871534Y2577142D01*
X5727459Y2605800D01*
X5727455Y2605800D01*
X5580545Y2605800D01*
X5580540Y2605800D01*
X5436465Y2577142D01*
X5436455Y2577139D01*
X5300733Y2520922D01*
X5300724Y2520917D01*
X5178580Y2439302D01*
X5178576Y2439299D01*
X5074701Y2335424D01*
X5074698Y2335420D01*
X4993083Y2213276D01*
X4993078Y2213267D01*
X4936861Y2077545D01*
X4936858Y2077535D01*
X4908200Y1933460D01*
X300500Y1933460D01*
X300500Y3878169D01*
X2692050Y3878169D01*
X2692050Y3651832D01*
X2727458Y3428278D01*
X2727458Y3428275D01*
X2797398Y3213022D01*
X2797400Y3213019D01*
X2900155Y3011350D01*
X3033193Y2828239D01*
X3193239Y2668193D01*
X3376350Y2535155D01*
X3578019Y2432400D01*
X3578021Y2432399D01*
X3778801Y2367163D01*
X3793279Y2362458D01*
X4016831Y2327050D01*
X4016832Y2327050D01*
X4243168Y2327050D01*
X4243169Y2327050D01*
X4466721Y2362458D01*
X4466724Y2362459D01*
X4466725Y2362459D01*
X4681978Y2432399D01*
X4681978Y2432400D01*
X4681981Y2432400D01*
X4883650Y2535155D01*
X5066761Y2668193D01*
X5226807Y2828239D01*
X5359845Y3011350D01*
X5462600Y3213019D01*
X5500219Y3328799D01*
X5532541Y3428275D01*
X5532541Y3428276D01*
X5532542Y3428279D01*
X5567950Y3651831D01*
X5567950Y3878169D01*
X7772050Y3878169D01*
X7772050Y3651832D01*
X7807458Y3428278D01*
X7807458Y3428275D01*
X7877398Y3213022D01*
X7877400Y3213019D01*
X7980155Y3011350D01*
X8113193Y2828239D01*
X8273239Y2668193D01*
X8456350Y2535155D01*
X8658019Y2432400D01*
X8658021Y2432399D01*
X8858801Y2367163D01*
X8873279Y2362458D01*
X9096831Y2327050D01*
X9096832Y2327050D01*
X9323168Y2327050D01*
X9323169Y2327050D01*
X9546721Y2362458D01*
X9546724Y2362459D01*
X9546725Y2362459D01*
X9761978Y2432399D01*
X9761978Y2432400D01*
X9761981Y2432400D01*
X9963650Y2535155D01*
X10146761Y2668193D01*
X10306807Y2828239D01*
X10439845Y3011350D01*
X10542600Y3213019D01*
X10580219Y3328799D01*
X10612541Y3428275D01*
X10612541Y3428276D01*
X10612542Y3428279D01*
X10647950Y3651831D01*
X10647950Y3878169D01*
X10612542Y4101721D01*
X10612541Y4101725D01*
X10612541Y4101726D01*
X10542601Y4316979D01*
X10542599Y4316982D01*
X10439844Y4518651D01*
X10306807Y4701761D01*
X10146761Y4861807D01*
X9963650Y4994845D01*
X9761981Y5097600D01*
X9761978Y5097602D01*
X9546723Y5167542D01*
X9397686Y5191148D01*
X9323169Y5202950D01*
X9096831Y5202950D01*
X9022313Y5191148D01*
X8873277Y5167542D01*
X8873274Y5167542D01*
X8658021Y5097602D01*
X8658018Y5097600D01*
X8456349Y4994845D01*
X8351878Y4918942D01*
X8273239Y4861807D01*
X8273237Y4861805D01*
X8273236Y4861805D01*
X8113195Y4701764D01*
X8113195Y4701763D01*
X8113193Y4701761D01*
X8056058Y4623122D01*
X7980155Y4518651D01*
X7877400Y4316982D01*
X7877398Y4316979D01*
X7807458Y4101726D01*
X7807458Y4101723D01*
X7772050Y3878169D01*
X5567950Y3878169D01*
X5532542Y4101721D01*
X5532541Y4101725D01*
X5532541Y4101726D01*
X5462601Y4316979D01*
X5462599Y4316982D01*
X5359844Y4518651D01*
X5226807Y4701761D01*
X5066761Y4861807D01*
X4883650Y4994845D01*
X4681981Y5097600D01*
X4681978Y5097602D01*
X4466723Y5167542D01*
X4317686Y5191148D01*
X4243169Y5202950D01*
X4016831Y5202950D01*
X3942313Y5191148D01*
X3793277Y5167542D01*
X3793274Y5167542D01*
X3578021Y5097602D01*
X3578018Y5097600D01*
X3376349Y4994845D01*
X3271878Y4918942D01*
X3193239Y4861807D01*
X3193237Y4861805D01*
X3193236Y4861805D01*
X3033195Y4701764D01*
X3033195Y4701763D01*
X3033193Y4701761D01*
X2976058Y4623122D01*
X2900155Y4518651D01*
X2797400Y4316982D01*
X2797398Y4316979D01*
X2727458Y4101726D01*
X2727458Y4101723D01*
X2692050Y3878169D01*
X300500Y3878169D01*
X300500Y7053169D01*
X2692050Y7053169D01*
X2692050Y6826832D01*
X2727458Y6603278D01*
X2727458Y6603275D01*
X2797398Y6388022D01*
X2797400Y6388019D01*
X2900155Y6186350D01*
X3033193Y6003239D01*
X3193239Y5843193D01*
X3376350Y5710155D01*
X3578019Y5607400D01*
X3578021Y5607399D01*
X3756217Y5549500D01*
X3793279Y5537458D01*
X4016831Y5502050D01*
X4016832Y5502050D01*
X4243168Y5502050D01*
X4243169Y5502050D01*
X4466721Y5537458D01*
X4466724Y5537459D01*
X4466725Y5537459D01*
X4681978Y5607399D01*
X4681978Y5607400D01*
X4681981Y5607400D01*
X4883650Y5710155D01*
X5066761Y5843193D01*
X5226807Y6003239D01*
X5359845Y6186350D01*
X5462600Y6388019D01*
X5487476Y6464580D01*
X5532541Y6603275D01*
X5532541Y6603276D01*
X5532542Y6603279D01*
X5567950Y6826831D01*
X5567950Y7013460D01*
X5924200Y7013460D01*
X5924200Y6866541D01*
X5952858Y6722466D01*
X5952861Y6722456D01*
X6009078Y6586734D01*
X6009083Y6586725D01*
X6090698Y6464581D01*
X6090701Y6464577D01*
X6194576Y6360702D01*
X6194580Y6360699D01*
X6316724Y6279084D01*
X6316730Y6279081D01*
X6316731Y6279080D01*
X6452458Y6222860D01*
X6596540Y6194201D01*
X6596544Y6194200D01*
X6596545Y6194200D01*
X6743456Y6194200D01*
X6743457Y6194201D01*
X6887542Y6222860D01*
X7023269Y6279080D01*
X7145420Y6360699D01*
X7249301Y6464580D01*
X7330920Y6586731D01*
X7387140Y6722458D01*
X7415800Y6866545D01*
X7415800Y7013455D01*
X7407901Y7053169D01*
X7772050Y7053169D01*
X7772050Y6826832D01*
X7807458Y6603278D01*
X7807458Y6603275D01*
X7877398Y6388022D01*
X7877400Y6388019D01*
X7980155Y6186350D01*
X8113193Y6003239D01*
X8273239Y5843193D01*
X8456350Y5710155D01*
X8658019Y5607400D01*
X8658021Y5607399D01*
X8836217Y5549500D01*
X8873279Y5537458D01*
X9096831Y5502050D01*
X9096832Y5502050D01*
X9323168Y5502050D01*
X9323169Y5502050D01*
X9546721Y5537458D01*
X9546724Y5537459D01*
X9546725Y5537459D01*
X9761978Y5607399D01*
X9761978Y5607400D01*
X9761981Y5607400D01*
X9963650Y5710155D01*
X10146761Y5843193D01*
X10306807Y6003239D01*
X10439845Y6186350D01*
X10542600Y6388019D01*
X10567476Y6464580D01*
X10612541Y6603275D01*
X10612541Y6603276D01*
X10612542Y6603279D01*
X10635781Y6750001D01*
X13344357Y6750001D01*
X13344357Y6750000D01*
X13364884Y6528465D01*
X13364885Y6528463D01*
X13425769Y6314477D01*
X13425775Y6314462D01*
X13524938Y6115317D01*
X13524943Y6115309D01*
X13659020Y5937762D01*
X13823437Y5787877D01*
X13823439Y5787875D01*
X14012595Y5670755D01*
X14012596Y5670755D01*
X14012599Y5670753D01*
X14220060Y5590382D01*
X14438757Y5549500D01*
X14438759Y5549500D01*
X14661241Y5549500D01*
X14661243Y5549500D01*
X14879940Y5590382D01*
X15087401Y5670753D01*
X15276562Y5787876D01*
X15440981Y5937764D01*
X15575058Y6115311D01*
X15674229Y6314472D01*
X15735115Y6528464D01*
X15755643Y6750000D01*
X15755643Y6750001D01*
X19844357Y6750001D01*
X19844357Y6750000D01*
X19864884Y6528465D01*
X19864885Y6528463D01*
X19925769Y6314477D01*
X19925775Y6314462D01*
X20024938Y6115317D01*
X20024943Y6115309D01*
X20159020Y5937762D01*
X20323437Y5787877D01*
X20323439Y5787875D01*
X20512595Y5670755D01*
X20512596Y5670755D01*
X20512599Y5670753D01*
X20720060Y5590382D01*
X20938757Y5549500D01*
X20938759Y5549500D01*
X21161241Y5549500D01*
X21161243Y5549500D01*
X21379940Y5590382D01*
X21587401Y5670753D01*
X21776562Y5787876D01*
X21940981Y5937764D01*
X22075058Y6115311D01*
X22174229Y6314472D01*
X22235115Y6528464D01*
X22255643Y6750000D01*
X22255643Y6750001D01*
X30594357Y6750001D01*
X30594357Y6750000D01*
X30614884Y6528465D01*
X30614885Y6528463D01*
X30675769Y6314477D01*
X30675775Y6314462D01*
X30774938Y6115317D01*
X30774943Y6115309D01*
X30909020Y5937762D01*
X31073437Y5787877D01*
X31073439Y5787875D01*
X31262595Y5670755D01*
X31262596Y5670755D01*
X31262599Y5670753D01*
X31470060Y5590382D01*
X31688757Y5549500D01*
X31688759Y5549500D01*
X31911241Y5549500D01*
X31911243Y5549500D01*
X32129940Y5590382D01*
X32337401Y5670753D01*
X32526562Y5787876D01*
X32690981Y5937764D01*
X32825058Y6115311D01*
X32924229Y6314472D01*
X32985115Y6528464D01*
X33005643Y6750000D01*
X33005643Y6750001D01*
X37094357Y6750001D01*
X37094357Y6750000D01*
X37114884Y6528465D01*
X37114885Y6528463D01*
X37175769Y6314477D01*
X37175775Y6314462D01*
X37274938Y6115317D01*
X37274943Y6115309D01*
X37409020Y5937762D01*
X37573437Y5787877D01*
X37573439Y5787875D01*
X37762595Y5670755D01*
X37762596Y5670755D01*
X37762599Y5670753D01*
X37970060Y5590382D01*
X38188757Y5549500D01*
X38188759Y5549500D01*
X38411241Y5549500D01*
X38411243Y5549500D01*
X38629940Y5590382D01*
X38837401Y5670753D01*
X39026562Y5787876D01*
X39190981Y5937764D01*
X39325058Y6115311D01*
X39424229Y6314472D01*
X39485115Y6528464D01*
X39505643Y6750000D01*
X39485115Y6971536D01*
X39424229Y7185528D01*
X39378820Y7276721D01*
X39325061Y7384684D01*
X39325056Y7384692D01*
X39190979Y7562239D01*
X39026562Y7712124D01*
X39026560Y7712126D01*
X38837404Y7829246D01*
X38837398Y7829248D01*
X38629940Y7909618D01*
X38411243Y7950500D01*
X38188757Y7950500D01*
X37970060Y7909618D01*
X37838864Y7858793D01*
X37762601Y7829248D01*
X37762595Y7829246D01*
X37573439Y7712126D01*
X37573437Y7712124D01*
X37409020Y7562239D01*
X37274943Y7384692D01*
X37274938Y7384684D01*
X37175775Y7185539D01*
X37175769Y7185524D01*
X37114885Y6971538D01*
X37114884Y6971536D01*
X37094357Y6750001D01*
X33005643Y6750001D01*
X32985115Y6971536D01*
X32924229Y7185528D01*
X32878820Y7276721D01*
X32825061Y7384684D01*
X32825056Y7384692D01*
X32690979Y7562239D01*
X32526562Y7712124D01*
X32526560Y7712126D01*
X32337404Y7829246D01*
X32337398Y7829248D01*
X32129940Y7909618D01*
X31911243Y7950500D01*
X31688757Y7950500D01*
X31470060Y7909618D01*
X31338864Y7858793D01*
X31262601Y7829248D01*
X31262595Y7829246D01*
X31073439Y7712126D01*
X31073437Y7712124D01*
X30909020Y7562239D01*
X30774943Y7384692D01*
X30774938Y7384684D01*
X30675775Y7185539D01*
X30675769Y7185524D01*
X30614885Y6971538D01*
X30614884Y6971536D01*
X30594357Y6750001D01*
X22255643Y6750001D01*
X22235115Y6971536D01*
X22174229Y7185528D01*
X22128820Y7276721D01*
X22075061Y7384684D01*
X22075056Y7384692D01*
X21940979Y7562239D01*
X21776562Y7712124D01*
X21776560Y7712126D01*
X21587404Y7829246D01*
X21587398Y7829248D01*
X21379940Y7909618D01*
X21161243Y7950500D01*
X20938757Y7950500D01*
X20720060Y7909618D01*
X20588864Y7858793D01*
X20512601Y7829248D01*
X20512595Y7829246D01*
X20323439Y7712126D01*
X20323437Y7712124D01*
X20159020Y7562239D01*
X20024943Y7384692D01*
X20024938Y7384684D01*
X19925775Y7185539D01*
X19925769Y7185524D01*
X19864885Y6971538D01*
X19864884Y6971536D01*
X19844357Y6750001D01*
X15755643Y6750001D01*
X15735115Y6971536D01*
X15674229Y7185528D01*
X15628820Y7276721D01*
X15575061Y7384684D01*
X15575056Y7384692D01*
X15440979Y7562239D01*
X15276562Y7712124D01*
X15276560Y7712126D01*
X15087404Y7829246D01*
X15087398Y7829248D01*
X14879940Y7909618D01*
X14661243Y7950500D01*
X14438757Y7950500D01*
X14220060Y7909618D01*
X14088864Y7858793D01*
X14012601Y7829248D01*
X14012595Y7829246D01*
X13823439Y7712126D01*
X13823437Y7712124D01*
X13659020Y7562239D01*
X13524943Y7384692D01*
X13524938Y7384684D01*
X13425775Y7185539D01*
X13425769Y7185524D01*
X13364885Y6971538D01*
X13364884Y6971536D01*
X13344357Y6750001D01*
X10635781Y6750001D01*
X10647950Y6826831D01*
X10647950Y7053169D01*
X10612542Y7276721D01*
X10612541Y7276725D01*
X10612541Y7276726D01*
X10542601Y7491979D01*
X10542599Y7491982D01*
X10528681Y7519299D01*
X10439845Y7693650D01*
X10306807Y7876761D01*
X10146761Y8036807D01*
X9963650Y8169845D01*
X9761981Y8272600D01*
X9761978Y8272602D01*
X9546723Y8342542D01*
X9397686Y8366148D01*
X9323169Y8377950D01*
X9096831Y8377950D01*
X9022313Y8366148D01*
X8873277Y8342542D01*
X8873274Y8342542D01*
X8658021Y8272602D01*
X8658018Y8272600D01*
X8456349Y8169845D01*
X8351878Y8093942D01*
X8273239Y8036807D01*
X8273237Y8036805D01*
X8273236Y8036805D01*
X8113195Y7876764D01*
X8113195Y7876763D01*
X8113193Y7876761D01*
X8056058Y7798122D01*
X7980155Y7693651D01*
X7877400Y7491982D01*
X7877398Y7491979D01*
X7807458Y7276726D01*
X7807458Y7276723D01*
X7772050Y7053169D01*
X7407901Y7053169D01*
X7387140Y7157542D01*
X7330920Y7293269D01*
X7330919Y7293270D01*
X7330916Y7293276D01*
X7249301Y7415420D01*
X7249298Y7415424D01*
X7145423Y7519299D01*
X7145419Y7519302D01*
X7023275Y7600917D01*
X7023266Y7600922D01*
X6887544Y7657139D01*
X6887545Y7657139D01*
X6887542Y7657140D01*
X6887538Y7657141D01*
X6887534Y7657142D01*
X6743459Y7685800D01*
X6743455Y7685800D01*
X6596545Y7685800D01*
X6596540Y7685800D01*
X6452465Y7657142D01*
X6452455Y7657139D01*
X6316733Y7600922D01*
X6316724Y7600917D01*
X6194580Y7519302D01*
X6194576Y7519299D01*
X6090701Y7415424D01*
X6090698Y7415420D01*
X6009083Y7293276D01*
X6009078Y7293267D01*
X5952861Y7157545D01*
X5952858Y7157535D01*
X5924200Y7013460D01*
X5567950Y7013460D01*
X5567950Y7053169D01*
X5532542Y7276721D01*
X5532541Y7276725D01*
X5532541Y7276726D01*
X5462601Y7491979D01*
X5462599Y7491982D01*
X5448681Y7519299D01*
X5359845Y7693650D01*
X5226807Y7876761D01*
X5066761Y8036807D01*
X4883650Y8169845D01*
X4681981Y8272600D01*
X4681978Y8272602D01*
X4466723Y8342542D01*
X4317686Y8366148D01*
X4243169Y8377950D01*
X4016831Y8377950D01*
X3942313Y8366148D01*
X3793277Y8342542D01*
X3793274Y8342542D01*
X3578021Y8272602D01*
X3578018Y8272600D01*
X3376349Y8169845D01*
X3271878Y8093942D01*
X3193239Y8036807D01*
X3193237Y8036805D01*
X3193236Y8036805D01*
X3033195Y7876764D01*
X3033195Y7876763D01*
X3033193Y7876761D01*
X2976058Y7798122D01*
X2900155Y7693651D01*
X2797400Y7491982D01*
X2797398Y7491979D01*
X2727458Y7276726D01*
X2727458Y7276723D01*
X2692050Y7053169D01*
X300500Y7053169D01*
X300500Y10030000D01*
X17994815Y10030000D01*
X18013503Y9852195D01*
X18013504Y9852193D01*
X18068747Y9682171D01*
X18068750Y9682165D01*
X18158141Y9527335D01*
X18185153Y9497335D01*
X18277764Y9394479D01*
X18277767Y9394477D01*
X18277770Y9394474D01*
X18422407Y9289388D01*
X18585733Y9216671D01*
X18760609Y9179500D01*
X18760610Y9179500D01*
X18939389Y9179500D01*
X18939391Y9179500D01*
X19114267Y9216671D01*
X19277593Y9289388D01*
X19422230Y9394474D01*
X19541859Y9527335D01*
X19631250Y9682165D01*
X19686497Y9852197D01*
X19697870Y9960408D01*
X19724453Y10025019D01*
X19781751Y10065004D01*
X19808235Y10070764D01*
X19809384Y10070885D01*
X19809391Y10070885D01*
X19984267Y10108056D01*
X20062825Y10143033D01*
X20132073Y10152317D01*
X20195349Y10122689D01*
X20232563Y10063555D01*
X20236580Y10016792D01*
X20234815Y10000001D01*
X20253503Y9822195D01*
X20253504Y9822193D01*
X20308747Y9652171D01*
X20308750Y9652165D01*
X20398141Y9497335D01*
X20439812Y9451054D01*
X20517764Y9364479D01*
X20517767Y9364477D01*
X20517770Y9364474D01*
X20662407Y9259388D01*
X20825733Y9186671D01*
X21000609Y9149500D01*
X21000610Y9149500D01*
X21179389Y9149500D01*
X21179391Y9149500D01*
X21354267Y9186671D01*
X21517593Y9259388D01*
X21662230Y9364474D01*
X21781859Y9497335D01*
X21871250Y9652165D01*
X21926497Y9822197D01*
X21945185Y10000000D01*
X21926497Y10177803D01*
X21871250Y10347835D01*
X21841887Y10398693D01*
X21825414Y10466593D01*
X21841888Y10522694D01*
X21871250Y10573550D01*
X21926497Y10743582D01*
X21945185Y10921385D01*
X21926497Y11099188D01*
X21871250Y11269220D01*
X21781859Y11424050D01*
X21735003Y11476089D01*
X21662235Y11556907D01*
X21662232Y11556909D01*
X21662231Y11556910D01*
X21662230Y11556911D01*
X21517593Y11661997D01*
X21354267Y11734714D01*
X21354265Y11734715D01*
X21226594Y11761852D01*
X21179391Y11771885D01*
X21000609Y11771885D01*
X20969954Y11765370D01*
X20825733Y11734715D01*
X20825728Y11734713D01*
X20662408Y11661998D01*
X20517770Y11556911D01*
X20497149Y11534009D01*
X20437661Y11497362D01*
X20367804Y11498693D01*
X20312851Y11534009D01*
X20292229Y11556912D01*
X20147594Y11661996D01*
X20147593Y11661997D01*
X19984267Y11734714D01*
X19984265Y11734715D01*
X19856594Y11761852D01*
X19809391Y11771885D01*
X19630609Y11771885D01*
X19599954Y11765370D01*
X19455733Y11734715D01*
X19455728Y11734713D01*
X19292408Y11661998D01*
X19147768Y11556910D01*
X19028140Y11424049D01*
X18938750Y11269221D01*
X18938747Y11269215D01*
X18883504Y11099193D01*
X18883503Y11099190D01*
X18872130Y10990981D01*
X18845545Y10926366D01*
X18788247Y10886382D01*
X18761781Y10880623D01*
X18760608Y10880500D01*
X18585733Y10843330D01*
X18585728Y10843328D01*
X18422408Y10770613D01*
X18277768Y10665525D01*
X18158140Y10532664D01*
X18068750Y10377836D01*
X18068747Y10377830D01*
X18013504Y10207808D01*
X18013503Y10207806D01*
X17994815Y10030000D01*
X300500Y10030000D01*
X300500Y15230000D01*
X11864901Y15230000D01*
X11883252Y15043669D01*
X11883253Y15043667D01*
X11937604Y14864498D01*
X12025862Y14699377D01*
X12025864Y14699374D01*
X12144642Y14554643D01*
X12289373Y14435865D01*
X12289376Y14435863D01*
X12454497Y14347605D01*
X12454499Y14347604D01*
X12633666Y14293254D01*
X12633668Y14293253D01*
X12650374Y14291608D01*
X12820000Y14274901D01*
X13006331Y14293253D01*
X13185501Y14347604D01*
X13350625Y14435864D01*
X13495357Y14554643D01*
X13614136Y14699375D01*
X13641195Y14750000D01*
X23173065Y14750000D01*
X23191753Y14572195D01*
X23191754Y14572193D01*
X23246997Y14402171D01*
X23247000Y14402165D01*
X23336391Y14247335D01*
X23417938Y14156768D01*
X23448167Y14093779D01*
X23439542Y14024444D01*
X23417937Y13990826D01*
X23358140Y13924415D01*
X23268750Y13769586D01*
X23268747Y13769580D01*
X23213504Y13599558D01*
X23213503Y13599556D01*
X23194815Y13421750D01*
X23213503Y13243945D01*
X23213504Y13243943D01*
X23268747Y13073921D01*
X23268750Y13073915D01*
X23358141Y12919085D01*
X23399812Y12872804D01*
X23477764Y12786229D01*
X23477767Y12786227D01*
X23477770Y12786224D01*
X23622407Y12681138D01*
X23785733Y12608421D01*
X23960609Y12571250D01*
X23960610Y12571250D01*
X24139389Y12571250D01*
X24139391Y12571250D01*
X24314267Y12608421D01*
X24477593Y12681138D01*
X24622230Y12786224D01*
X24741859Y12919085D01*
X24831250Y13073915D01*
X24886497Y13243947D01*
X24905185Y13421750D01*
X24886497Y13599553D01*
X24831250Y13769585D01*
X24741859Y13924415D01*
X24660312Y14014982D01*
X24630082Y14077972D01*
X24638707Y14147307D01*
X24660310Y14180923D01*
X24720109Y14247335D01*
X24809500Y14402165D01*
X24864747Y14572197D01*
X24883435Y14750000D01*
X24864747Y14927803D01*
X24809500Y15097835D01*
X24720109Y15252665D01*
X24673253Y15304704D01*
X24600485Y15385522D01*
X24600482Y15385524D01*
X24600481Y15385525D01*
X24600480Y15385526D01*
X24455843Y15490612D01*
X24292517Y15563329D01*
X24292515Y15563330D01*
X24141150Y15595503D01*
X24117641Y15600500D01*
X23938859Y15600500D01*
X23915350Y15595503D01*
X23763983Y15563330D01*
X23763978Y15563328D01*
X23600658Y15490613D01*
X23456018Y15385525D01*
X23336390Y15252664D01*
X23247000Y15097836D01*
X23246997Y15097830D01*
X23191754Y14927808D01*
X23191753Y14927806D01*
X23173065Y14750000D01*
X13641195Y14750000D01*
X13702396Y14864499D01*
X13756747Y15043669D01*
X13775099Y15230000D01*
X13756747Y15416331D01*
X13702396Y15595501D01*
X13686309Y15625598D01*
X13614137Y15760624D01*
X13614135Y15760627D01*
X13495357Y15905358D01*
X13350626Y16024136D01*
X13350623Y16024138D01*
X13185502Y16112396D01*
X13006333Y16166747D01*
X13006331Y16166748D01*
X12820000Y16185099D01*
X12633668Y16166748D01*
X12633666Y16166747D01*
X12454497Y16112396D01*
X12289376Y16024138D01*
X12289373Y16024136D01*
X12144642Y15905358D01*
X12025864Y15760627D01*
X12025862Y15760624D01*
X11937604Y15595503D01*
X11883253Y15416334D01*
X11883252Y15416332D01*
X11864901Y15230000D01*
X300500Y15230000D01*
X300500Y16562345D01*
X27694828Y16562345D01*
X27713179Y16376014D01*
X27713180Y16376012D01*
X27767531Y16196843D01*
X27855789Y16031722D01*
X27855791Y16031719D01*
X27974569Y15886988D01*
X28119300Y15768210D01*
X28119303Y15768208D01*
X28284424Y15679950D01*
X28284426Y15679949D01*
X28463593Y15625599D01*
X28463595Y15625598D01*
X28480301Y15623953D01*
X28649927Y15607246D01*
X28836258Y15625598D01*
X29015428Y15679949D01*
X29180552Y15768209D01*
X29325284Y15886988D01*
X29444063Y16031720D01*
X29532323Y16196844D01*
X29586674Y16376014D01*
X29605026Y16562345D01*
X29586674Y16748676D01*
X29532323Y16927846D01*
X29444063Y17092970D01*
X29444062Y17092972D01*
X29325284Y17237703D01*
X29180553Y17356481D01*
X29180550Y17356483D01*
X29015429Y17444741D01*
X28836260Y17499092D01*
X28836258Y17499093D01*
X28649927Y17517444D01*
X28463595Y17499093D01*
X28463593Y17499092D01*
X28284424Y17444741D01*
X28119303Y17356483D01*
X28119300Y17356481D01*
X27974569Y17237703D01*
X27855791Y17092972D01*
X27855789Y17092969D01*
X27767531Y16927848D01*
X27713180Y16748679D01*
X27713179Y16748677D01*
X27694828Y16562345D01*
X300500Y16562345D01*
X300500Y19087549D01*
X21987352Y19087549D01*
X22005703Y18901218D01*
X22005704Y18901216D01*
X22060055Y18722047D01*
X22148313Y18556926D01*
X22148315Y18556923D01*
X22267093Y18412192D01*
X22411824Y18293414D01*
X22411827Y18293412D01*
X22576948Y18205154D01*
X22576950Y18205153D01*
X22756117Y18150803D01*
X22756119Y18150802D01*
X22772825Y18149157D01*
X22942451Y18132450D01*
X23128782Y18150802D01*
X23307952Y18205153D01*
X23473076Y18293413D01*
X23617808Y18412192D01*
X23736587Y18556924D01*
X23824847Y18722048D01*
X23879198Y18901218D01*
X23897550Y19087549D01*
X23879198Y19273880D01*
X23824847Y19453050D01*
X23736587Y19618174D01*
X23736586Y19618176D01*
X23617810Y19762905D01*
X23603681Y19774500D01*
X23564347Y19832246D01*
X23562478Y19902091D01*
X23590195Y19953321D01*
X23701859Y20077335D01*
X23791250Y20232165D01*
X23846497Y20402197D01*
X23865185Y20580000D01*
X23846497Y20757803D01*
X23791250Y20927835D01*
X23771228Y20962515D01*
X26914210Y20962515D01*
X26932898Y20784710D01*
X26932899Y20784708D01*
X26988142Y20614686D01*
X26988145Y20614680D01*
X27077536Y20459850D01*
X27119207Y20413569D01*
X27197159Y20326994D01*
X27197162Y20326992D01*
X27197165Y20326989D01*
X27341802Y20221903D01*
X27505128Y20149186D01*
X27680004Y20112015D01*
X27680005Y20112015D01*
X27858784Y20112015D01*
X27858786Y20112015D01*
X28033662Y20149186D01*
X28196988Y20221903D01*
X28341625Y20326989D01*
X28461254Y20459850D01*
X28550645Y20614680D01*
X28605892Y20784712D01*
X28624580Y20962515D01*
X28605892Y21140318D01*
X28550645Y21310350D01*
X28461254Y21465180D01*
X28410746Y21521274D01*
X28355594Y21582528D01*
X28325364Y21645520D01*
X28333990Y21714855D01*
X28378731Y21768520D01*
X28445384Y21789478D01*
X28447744Y21789500D01*
X28559389Y21789500D01*
X28559391Y21789500D01*
X28734267Y21826671D01*
X28897593Y21899388D01*
X29042230Y22004474D01*
X29161859Y22137335D01*
X29251250Y22292165D01*
X29306497Y22462197D01*
X29325185Y22640000D01*
X29306497Y22817803D01*
X29251250Y22987835D01*
X29161859Y23142665D01*
X29115003Y23194704D01*
X29042235Y23275522D01*
X29042232Y23275524D01*
X29042231Y23275525D01*
X29042230Y23275526D01*
X28897593Y23380612D01*
X28734267Y23453329D01*
X28734265Y23453330D01*
X28606594Y23480467D01*
X28559391Y23490500D01*
X28380609Y23490500D01*
X28360577Y23486242D01*
X28205733Y23453330D01*
X28205728Y23453328D01*
X28042408Y23380613D01*
X27897768Y23275525D01*
X27778140Y23142664D01*
X27688750Y22987836D01*
X27688747Y22987830D01*
X27633504Y22817808D01*
X27633503Y22817806D01*
X27614815Y22640000D01*
X27633503Y22462195D01*
X27633504Y22462193D01*
X27688747Y22292171D01*
X27688750Y22292165D01*
X27778141Y22137335D01*
X27825568Y22084662D01*
X27883801Y22019987D01*
X27914031Y21956995D01*
X27905405Y21887660D01*
X27860664Y21833995D01*
X27794011Y21813037D01*
X27791651Y21813015D01*
X27680004Y21813015D01*
X27649349Y21806500D01*
X27505128Y21775845D01*
X27505123Y21775843D01*
X27341803Y21703128D01*
X27197163Y21598040D01*
X27077535Y21465179D01*
X26988145Y21310351D01*
X26988142Y21310345D01*
X26932899Y21140323D01*
X26932898Y21140321D01*
X26914210Y20962515D01*
X23771228Y20962515D01*
X23701859Y21082665D01*
X23649943Y21140323D01*
X23582235Y21215522D01*
X23582232Y21215524D01*
X23582231Y21215525D01*
X23582230Y21215526D01*
X23437593Y21320612D01*
X23274267Y21393329D01*
X23274265Y21393330D01*
X23146594Y21420467D01*
X23099391Y21430500D01*
X22920609Y21430500D01*
X22889954Y21423985D01*
X22745733Y21393330D01*
X22745728Y21393328D01*
X22582408Y21320613D01*
X22437768Y21215525D01*
X22318140Y21082664D01*
X22228750Y20927836D01*
X22228747Y20927830D01*
X22173504Y20757808D01*
X22173503Y20757806D01*
X22154815Y20580000D01*
X22173503Y20402195D01*
X22173504Y20402193D01*
X22228747Y20232171D01*
X22228750Y20232165D01*
X22318141Y20077335D01*
X22360101Y20030733D01*
X22372393Y20017082D01*
X22402623Y19954091D01*
X22393998Y19884755D01*
X22358908Y19838257D01*
X22267093Y19762907D01*
X22148315Y19618176D01*
X22148313Y19618173D01*
X22060055Y19453052D01*
X22005704Y19273883D01*
X22005703Y19273881D01*
X21987352Y19087549D01*
X300500Y19087549D01*
X300500Y24441340D01*
X20345253Y24441340D01*
X20363604Y24255009D01*
X20363605Y24255007D01*
X20417956Y24075838D01*
X20506214Y23910717D01*
X20506216Y23910714D01*
X20624994Y23765983D01*
X20769725Y23647205D01*
X20769728Y23647203D01*
X20899562Y23577806D01*
X20934851Y23558944D01*
X21114018Y23504594D01*
X21114020Y23504593D01*
X21130726Y23502948D01*
X21300352Y23486241D01*
X21486683Y23504593D01*
X21665853Y23558944D01*
X21830977Y23647204D01*
X21975709Y23765983D01*
X22094488Y23910715D01*
X22182748Y24075839D01*
X22237099Y24255009D01*
X22255451Y24441340D01*
X22237099Y24627671D01*
X22182748Y24806841D01*
X22182747Y24806843D01*
X22094489Y24971964D01*
X22094487Y24971967D01*
X21975709Y25116698D01*
X21830978Y25235476D01*
X21830975Y25235478D01*
X21665854Y25323736D01*
X21486685Y25378087D01*
X21486683Y25378088D01*
X21300352Y25396439D01*
X21114020Y25378088D01*
X21114018Y25378087D01*
X20934849Y25323736D01*
X20769728Y25235478D01*
X20769725Y25235476D01*
X20624994Y25116698D01*
X20506216Y24971967D01*
X20506214Y24971964D01*
X20417956Y24806843D01*
X20363605Y24627674D01*
X20363604Y24627672D01*
X20345253Y24441340D01*
X300500Y24441340D01*
X300500Y26820000D01*
X700138Y26820000D01*
X1503012Y26820000D01*
X1485795Y26810060D01*
X1429940Y26754205D01*
X1390444Y26685796D01*
X1370000Y26609496D01*
X1370000Y26530504D01*
X1390444Y26454204D01*
X1429940Y26385795D01*
X1485795Y26329940D01*
X1503012Y26320000D01*
X700138Y26320000D01*
X708430Y26278310D01*
X708430Y26278308D01*
X783807Y26096329D01*
X783814Y26096316D01*
X893248Y25932538D01*
X893251Y25932534D01*
X1032533Y25793252D01*
X1032537Y25793249D01*
X1196315Y25683815D01*
X1196328Y25683808D01*
X1378306Y25608431D01*
X1378318Y25608428D01*
X1571504Y25570001D01*
X1571508Y25570000D01*
X1720000Y25570000D01*
X1720000Y26270000D01*
X2220000Y26270000D01*
X2220000Y25570000D01*
X2368492Y25570000D01*
X2368495Y25570001D01*
X2561681Y25608428D01*
X2561693Y25608431D01*
X2743671Y25683808D01*
X2743684Y25683815D01*
X2907462Y25793249D01*
X2907466Y25793252D01*
X3046748Y25932534D01*
X3046751Y25932538D01*
X3156185Y26096316D01*
X3156192Y26096329D01*
X3231569Y26278308D01*
X3231569Y26278310D01*
X3239862Y26320000D01*
X2436988Y26320000D01*
X2454205Y26329940D01*
X2510060Y26385795D01*
X2549556Y26454204D01*
X2570000Y26530504D01*
X2570000Y26609496D01*
X2549556Y26685796D01*
X2510060Y26754205D01*
X2454205Y26810060D01*
X2436988Y26820000D01*
X3239862Y26820000D01*
X4630138Y26820000D01*
X5433012Y26820000D01*
X5415795Y26810060D01*
X5359940Y26754205D01*
X5320444Y26685796D01*
X5300000Y26609496D01*
X5300000Y26530504D01*
X5320444Y26454204D01*
X5359940Y26385795D01*
X5415795Y26329940D01*
X5433012Y26320000D01*
X4630138Y26320000D01*
X4638430Y26278310D01*
X4638430Y26278308D01*
X4713807Y26096329D01*
X4713814Y26096316D01*
X4823248Y25932538D01*
X4823251Y25932534D01*
X4962533Y25793252D01*
X4962537Y25793249D01*
X5126315Y25683815D01*
X5126328Y25683808D01*
X5308306Y25608431D01*
X5308318Y25608428D01*
X5501504Y25570001D01*
X5501508Y25570000D01*
X5900000Y25570000D01*
X5900000Y26270000D01*
X6400000Y26270000D01*
X6400000Y25570000D01*
X6798492Y25570000D01*
X6798495Y25570001D01*
X6991681Y25608428D01*
X6991693Y25608431D01*
X7173671Y25683808D01*
X7173684Y25683815D01*
X7337462Y25793249D01*
X7337466Y25793252D01*
X7476748Y25932534D01*
X7476751Y25932538D01*
X7586185Y26096316D01*
X7586192Y26096329D01*
X7661569Y26278308D01*
X7661569Y26278310D01*
X7669862Y26320000D01*
X6866988Y26320000D01*
X6884205Y26329940D01*
X6940060Y26385795D01*
X6979556Y26454204D01*
X7000000Y26530504D01*
X7000000Y26609496D01*
X6979556Y26685796D01*
X6940060Y26754205D01*
X6884205Y26810060D01*
X6866988Y26820000D01*
X7669862Y26820000D01*
X7661569Y26861691D01*
X7661569Y26861693D01*
X7586192Y27043672D01*
X7586185Y27043685D01*
X7476751Y27207463D01*
X7476748Y27207467D01*
X7337466Y27346749D01*
X7337462Y27346752D01*
X7173684Y27456186D01*
X7173671Y27456193D01*
X6991693Y27531570D01*
X6991681Y27531573D01*
X6798495Y27570000D01*
X6251045Y27570000D01*
X6184006Y27589685D01*
X6138251Y27642489D01*
X6128307Y27711647D01*
X6143658Y27756000D01*
X6156279Y27777862D01*
X6156281Y27777865D01*
X6195500Y27924234D01*
X6195500Y28075766D01*
X6156281Y28222135D01*
X6080515Y28353365D01*
X5973365Y28460515D01*
X5907750Y28498398D01*
X5842136Y28536281D01*
X5768950Y28555891D01*
X5695766Y28575500D01*
X5544234Y28575500D01*
X5397863Y28536281D01*
X5266635Y28460515D01*
X5266632Y28460513D01*
X5159487Y28353368D01*
X5159485Y28353365D01*
X5083719Y28222137D01*
X5044500Y28075766D01*
X5044500Y27924235D01*
X5083719Y27777864D01*
X5121602Y27712250D01*
X5159485Y27646635D01*
X5159488Y27646632D01*
X5164432Y27640189D01*
X5161612Y27638026D01*
X5187302Y27590980D01*
X5182318Y27521288D01*
X5140446Y27465355D01*
X5131379Y27459584D01*
X5131387Y27459573D01*
X4962536Y27346752D01*
X4823251Y27207467D01*
X4823248Y27207463D01*
X4713814Y27043685D01*
X4713807Y27043672D01*
X4638430Y26861693D01*
X4638430Y26861691D01*
X4630138Y26820000D01*
X3239862Y26820000D01*
X3231569Y26861691D01*
X3231569Y26861693D01*
X3156192Y27043672D01*
X3156185Y27043685D01*
X3046751Y27207463D01*
X3046748Y27207467D01*
X2907466Y27346749D01*
X2907462Y27346752D01*
X2743684Y27456186D01*
X2743671Y27456193D01*
X2561693Y27531570D01*
X2561681Y27531573D01*
X2368495Y27570000D01*
X2220000Y27570000D01*
X2220000Y26870000D01*
X1720000Y26870000D01*
X1720000Y27570000D01*
X1571504Y27570000D01*
X1378318Y27531573D01*
X1378306Y27531570D01*
X1196328Y27456193D01*
X1196315Y27456186D01*
X1032537Y27346752D01*
X1032533Y27346749D01*
X893251Y27207467D01*
X893248Y27207463D01*
X783814Y27043685D01*
X783807Y27043672D01*
X708430Y26861693D01*
X708430Y26861691D01*
X700138Y26820000D01*
X300500Y26820000D01*
X300500Y29368250D01*
X18284571Y29368250D01*
X18303259Y29190445D01*
X18303260Y29190443D01*
X18358503Y29020421D01*
X18358506Y29020415D01*
X18447897Y28865585D01*
X18489568Y28819304D01*
X18567520Y28732729D01*
X18567523Y28732727D01*
X18567526Y28732724D01*
X18712163Y28627638D01*
X18875489Y28554921D01*
X19050365Y28517750D01*
X19050366Y28517750D01*
X19229145Y28517750D01*
X19229147Y28517750D01*
X19404023Y28554921D01*
X19567349Y28627638D01*
X19570600Y28630000D01*
X31224815Y28630000D01*
X31243503Y28452195D01*
X31243504Y28452193D01*
X31298747Y28282171D01*
X31298750Y28282165D01*
X31388141Y28127335D01*
X31429812Y28081054D01*
X31507764Y27994479D01*
X31507767Y27994477D01*
X31507770Y27994474D01*
X31652407Y27889388D01*
X31815733Y27816671D01*
X31990609Y27779500D01*
X31990610Y27779500D01*
X32146348Y27779500D01*
X32213387Y27759815D01*
X32259142Y27707011D01*
X32269086Y27637853D01*
X32240061Y27574297D01*
X32238498Y27572528D01*
X32165012Y27490914D01*
X32075622Y27336086D01*
X32075619Y27336080D01*
X32020376Y27166058D01*
X32020375Y27166056D01*
X32001687Y26988250D01*
X32020375Y26810445D01*
X32020376Y26810443D01*
X32075619Y26640421D01*
X32075622Y26640415D01*
X32165013Y26485585D01*
X32193269Y26454204D01*
X32284636Y26352729D01*
X32284639Y26352727D01*
X32284642Y26352724D01*
X32429279Y26247638D01*
X32592605Y26174921D01*
X32767481Y26137750D01*
X32846759Y26137750D01*
X32913798Y26118065D01*
X32954145Y26075751D01*
X32988882Y26015585D01*
X33108505Y25882729D01*
X33108508Y25882727D01*
X33108511Y25882724D01*
X33253148Y25777638D01*
X33416474Y25704921D01*
X33591350Y25667750D01*
X33591351Y25667750D01*
X33770130Y25667750D01*
X33770132Y25667750D01*
X33891374Y25693521D01*
X33961039Y25688205D01*
X34016772Y25646068D01*
X34035084Y25610550D01*
X34048123Y25570419D01*
X34048125Y25570415D01*
X34137516Y25415585D01*
X34179187Y25369304D01*
X34257139Y25282729D01*
X34257142Y25282727D01*
X34257145Y25282724D01*
X34401782Y25177638D01*
X34565108Y25104921D01*
X34565110Y25104921D01*
X34565111Y25104920D01*
X34650094Y25086857D01*
X34687561Y25078893D01*
X34749043Y25045701D01*
X34769167Y25019604D01*
X34858090Y24865585D01*
X34892109Y24827803D01*
X34977713Y24732729D01*
X34977716Y24732727D01*
X34977719Y24732724D01*
X35122356Y24627638D01*
X35285682Y24554921D01*
X35460558Y24517750D01*
X35514693Y24517750D01*
X35581732Y24498065D01*
X35622079Y24455751D01*
X35641371Y24422337D01*
X35641372Y24422335D01*
X35760995Y24289479D01*
X35760998Y24289477D01*
X35761001Y24289474D01*
X35905638Y24184388D01*
X36068964Y24111671D01*
X36243840Y24074500D01*
X36243841Y24074500D01*
X36422620Y24074500D01*
X36422622Y24074500D01*
X36597498Y24111671D01*
X36760824Y24184388D01*
X36905461Y24289474D01*
X36916894Y24302171D01*
X36931379Y24318259D01*
X37025090Y24422335D01*
X37114481Y24577165D01*
X37138147Y24650000D01*
X38394815Y24650000D01*
X38413503Y24472195D01*
X38413504Y24472193D01*
X38468747Y24302171D01*
X38468750Y24302165D01*
X38558141Y24147335D01*
X38575277Y24128304D01*
X38677764Y24014479D01*
X38677767Y24014477D01*
X38677770Y24014474D01*
X38822407Y23909388D01*
X38985733Y23836671D01*
X39160609Y23799500D01*
X39160610Y23799500D01*
X39339389Y23799500D01*
X39339391Y23799500D01*
X39514267Y23836671D01*
X39677593Y23909388D01*
X39773680Y23979201D01*
X39839483Y24002680D01*
X39907537Y23986855D01*
X39956233Y23936750D01*
X39964495Y23917201D01*
X39993748Y23827169D01*
X39993750Y23827165D01*
X40083141Y23672335D01*
X40105769Y23647204D01*
X40202764Y23539479D01*
X40202767Y23539477D01*
X40202770Y23539474D01*
X40347407Y23434388D01*
X40510733Y23361671D01*
X40685609Y23324500D01*
X40685610Y23324500D01*
X40864389Y23324500D01*
X40864391Y23324500D01*
X41039267Y23361671D01*
X41131327Y23402659D01*
X41200573Y23411942D01*
X41263850Y23382314D01*
X41301063Y23323179D01*
X41305080Y23302340D01*
X41313503Y23222195D01*
X41313504Y23222193D01*
X41368747Y23052171D01*
X41368750Y23052165D01*
X41458141Y22897335D01*
X41499812Y22851054D01*
X41577764Y22764479D01*
X41577767Y22764477D01*
X41577770Y22764474D01*
X41722407Y22659388D01*
X41885733Y22586671D01*
X42060609Y22549500D01*
X42060610Y22549500D01*
X42239389Y22549500D01*
X42239391Y22549500D01*
X42414267Y22586671D01*
X42577593Y22659388D01*
X42722230Y22764474D01*
X42841859Y22897335D01*
X42931250Y23052165D01*
X42986497Y23222197D01*
X43005185Y23400000D01*
X42986497Y23577803D01*
X42931250Y23747835D01*
X42841859Y23902665D01*
X42795003Y23954704D01*
X42722235Y24035522D01*
X42722232Y24035524D01*
X42722231Y24035525D01*
X42722230Y24035526D01*
X42577593Y24140612D01*
X42414267Y24213329D01*
X42414265Y24213330D01*
X42286594Y24240467D01*
X42239391Y24250500D01*
X42060609Y24250500D01*
X42029954Y24243985D01*
X41885733Y24213330D01*
X41885732Y24213330D01*
X41793675Y24172343D01*
X41724425Y24163059D01*
X41661148Y24192688D01*
X41623935Y24251823D01*
X41619921Y24272648D01*
X41611497Y24352803D01*
X41572704Y24472195D01*
X41556252Y24522830D01*
X41556249Y24522836D01*
X41537725Y24554921D01*
X41466859Y24677665D01*
X41420003Y24729704D01*
X41347235Y24810522D01*
X41347232Y24810524D01*
X41347231Y24810525D01*
X41347230Y24810526D01*
X41202593Y24915612D01*
X41039267Y24988329D01*
X41039265Y24988330D01*
X40888314Y25020415D01*
X40864391Y25025500D01*
X40685609Y25025500D01*
X40661686Y25020415D01*
X40510733Y24988330D01*
X40510728Y24988328D01*
X40347408Y24915612D01*
X40347403Y24915610D01*
X40251320Y24845801D01*
X40185514Y24822321D01*
X40117460Y24838147D01*
X40068765Y24888253D01*
X40060504Y24907801D01*
X40031252Y24997830D01*
X40031249Y24997836D01*
X40018213Y25020415D01*
X39941859Y25152665D01*
X39895003Y25204704D01*
X39822235Y25285522D01*
X39822232Y25285524D01*
X39822231Y25285525D01*
X39822230Y25285526D01*
X39677593Y25390612D01*
X39514267Y25463329D01*
X39514265Y25463330D01*
X39386594Y25490467D01*
X39339391Y25500500D01*
X39160609Y25500500D01*
X39129954Y25493985D01*
X38985733Y25463330D01*
X38985728Y25463328D01*
X38822408Y25390613D01*
X38677768Y25285525D01*
X38558140Y25152664D01*
X38468750Y24997836D01*
X38468747Y24997830D01*
X38413504Y24827808D01*
X38413503Y24827806D01*
X38394815Y24650000D01*
X37138147Y24650000D01*
X37169728Y24747197D01*
X37188416Y24925000D01*
X37169728Y25102803D01*
X37114481Y25272835D01*
X37025090Y25427665D01*
X36959509Y25500500D01*
X36905466Y25560522D01*
X36905463Y25560524D01*
X36905462Y25560525D01*
X36905461Y25560526D01*
X36760824Y25665612D01*
X36597498Y25738329D01*
X36597496Y25738330D01*
X36469825Y25765467D01*
X36422622Y25775500D01*
X36422621Y25775500D01*
X36368487Y25775500D01*
X36301448Y25795185D01*
X36261100Y25837500D01*
X36241808Y25870915D01*
X36186326Y25932534D01*
X36122184Y26003772D01*
X36122181Y26003774D01*
X36122180Y26003775D01*
X36122179Y26003776D01*
X35977542Y26108862D01*
X35814216Y26181579D01*
X35814214Y26181580D01*
X35814213Y26181580D01*
X35691761Y26207608D01*
X35630279Y26240800D01*
X35610155Y26266899D01*
X35521237Y26420911D01*
X35521235Y26420914D01*
X35401610Y26553772D01*
X35401607Y26553774D01*
X35401606Y26553775D01*
X35401605Y26553776D01*
X35256968Y26658862D01*
X35093642Y26731579D01*
X35093640Y26731580D01*
X34965969Y26758717D01*
X34918766Y26768750D01*
X34739984Y26768750D01*
X34739982Y26768750D01*
X34618742Y26742980D01*
X34549075Y26748296D01*
X34493342Y26790434D01*
X34475031Y26825952D01*
X34473192Y26831610D01*
X34461991Y26866085D01*
X34372600Y27020915D01*
X34325744Y27072954D01*
X34252976Y27153772D01*
X34252973Y27153774D01*
X34252972Y27153775D01*
X34252971Y27153776D01*
X34108334Y27258862D01*
X33945008Y27331579D01*
X33945006Y27331580D01*
X33817335Y27358717D01*
X33770132Y27368750D01*
X33770131Y27368750D01*
X33690854Y27368750D01*
X33623815Y27388435D01*
X33583467Y27430750D01*
X33548731Y27490915D01*
X33512125Y27531570D01*
X33429107Y27623772D01*
X33429104Y27623774D01*
X33429103Y27623775D01*
X33429102Y27623776D01*
X33284465Y27728862D01*
X33121139Y27801579D01*
X33121137Y27801580D01*
X32993466Y27828717D01*
X32946263Y27838750D01*
X32790525Y27838750D01*
X32723486Y27858435D01*
X32677731Y27911239D01*
X32667787Y27980397D01*
X32696812Y28043953D01*
X32698375Y28045722D01*
X32735754Y28087237D01*
X32771859Y28127335D01*
X32861250Y28282165D01*
X32916497Y28452197D01*
X32935185Y28630000D01*
X32916497Y28807803D01*
X32861250Y28977835D01*
X32819586Y29050000D01*
X45060000Y29050000D01*
X47150000Y29050000D01*
X47150000Y30950000D01*
X45060000Y30950000D01*
X45060000Y29050000D01*
X32819586Y29050000D01*
X32771859Y29132665D01*
X32719835Y29190443D01*
X32652235Y29265522D01*
X32652232Y29265524D01*
X32652231Y29265525D01*
X32652230Y29265526D01*
X32507593Y29370612D01*
X32344267Y29443329D01*
X32344265Y29443330D01*
X32216594Y29470467D01*
X32169391Y29480500D01*
X31990609Y29480500D01*
X31959954Y29473985D01*
X31815733Y29443330D01*
X31815728Y29443328D01*
X31652408Y29370613D01*
X31507768Y29265525D01*
X31388140Y29132664D01*
X31298750Y28977836D01*
X31298747Y28977830D01*
X31243504Y28807808D01*
X31243503Y28807806D01*
X31224815Y28630000D01*
X19570600Y28630000D01*
X19711986Y28732724D01*
X19831615Y28865585D01*
X19921006Y29020415D01*
X19976253Y29190447D01*
X19994941Y29368250D01*
X19976253Y29546053D01*
X19921006Y29716085D01*
X19831615Y29870915D01*
X19784759Y29922954D01*
X19711991Y30003772D01*
X19711988Y30003774D01*
X19711987Y30003775D01*
X19711986Y30003776D01*
X19567349Y30108862D01*
X19404023Y30181579D01*
X19404021Y30181580D01*
X19276350Y30208717D01*
X19229147Y30218750D01*
X19050365Y30218750D01*
X19019710Y30212235D01*
X18875489Y30181580D01*
X18875484Y30181578D01*
X18712164Y30108863D01*
X18567524Y30003775D01*
X18447896Y29870914D01*
X18358506Y29716086D01*
X18358503Y29716080D01*
X18303260Y29546058D01*
X18303259Y29546056D01*
X18284571Y29368250D01*
X300500Y29368250D01*
X300500Y31620000D01*
X31764901Y31620000D01*
X31783252Y31433669D01*
X31783253Y31433667D01*
X31837604Y31254498D01*
X31925862Y31089377D01*
X31925864Y31089374D01*
X32044642Y30944643D01*
X32189373Y30825865D01*
X32189376Y30825863D01*
X32354497Y30737605D01*
X32354499Y30737604D01*
X32533666Y30683254D01*
X32533668Y30683253D01*
X32550374Y30681608D01*
X32720000Y30664901D01*
X32906331Y30683253D01*
X33085501Y30737604D01*
X33250625Y30825864D01*
X33395357Y30944643D01*
X33514136Y31089375D01*
X33602396Y31254499D01*
X33656747Y31433669D01*
X33675099Y31620000D01*
X33656747Y31806331D01*
X33602396Y31985501D01*
X33514136Y32150625D01*
X33514135Y32150627D01*
X33395357Y32295358D01*
X33250626Y32414136D01*
X33250623Y32414138D01*
X33085502Y32502396D01*
X32906333Y32556747D01*
X32906331Y32556748D01*
X32720000Y32575099D01*
X32533668Y32556748D01*
X32533666Y32556747D01*
X32354497Y32502396D01*
X32189376Y32414138D01*
X32189373Y32414136D01*
X32044642Y32295358D01*
X31925864Y32150627D01*
X31925862Y32150624D01*
X31837604Y31985503D01*
X31783253Y31806334D01*
X31783252Y31806332D01*
X31764901Y31620000D01*
X300500Y31620000D01*
X300500Y35460000D01*
X700138Y35460000D01*
X1503012Y35460000D01*
X1485795Y35450060D01*
X1429940Y35394205D01*
X1390444Y35325796D01*
X1370000Y35249496D01*
X1370000Y35170504D01*
X1390444Y35094204D01*
X1429940Y35025795D01*
X1485795Y34969940D01*
X1503012Y34960000D01*
X700138Y34960000D01*
X708430Y34918310D01*
X708430Y34918308D01*
X783807Y34736329D01*
X783814Y34736316D01*
X893248Y34572538D01*
X893251Y34572534D01*
X1032533Y34433252D01*
X1032537Y34433249D01*
X1196315Y34323815D01*
X1196328Y34323808D01*
X1378306Y34248431D01*
X1378318Y34248428D01*
X1571504Y34210001D01*
X1571508Y34210000D01*
X1720000Y34210000D01*
X1720000Y34910000D01*
X2220000Y34910000D01*
X2220000Y34210000D01*
X2368492Y34210000D01*
X2368495Y34210001D01*
X2561681Y34248428D01*
X2561693Y34248431D01*
X2743671Y34323808D01*
X2743684Y34323815D01*
X2907462Y34433249D01*
X2907466Y34433252D01*
X3046748Y34572534D01*
X3046751Y34572538D01*
X3156185Y34736316D01*
X3156192Y34736329D01*
X3231569Y34918308D01*
X3231569Y34918310D01*
X3239862Y34960000D01*
X2436988Y34960000D01*
X2454205Y34969940D01*
X2510060Y35025795D01*
X2549556Y35094204D01*
X2570000Y35170504D01*
X2570000Y35249496D01*
X2549556Y35325796D01*
X2510060Y35394205D01*
X2454205Y35450060D01*
X2436988Y35460000D01*
X3239862Y35460000D01*
X4630138Y35460000D01*
X5433012Y35460000D01*
X5415795Y35450060D01*
X5359940Y35394205D01*
X5320444Y35325796D01*
X5300000Y35249496D01*
X5300000Y35170504D01*
X5320444Y35094204D01*
X5359940Y35025795D01*
X5415795Y34969940D01*
X5433012Y34960000D01*
X4630138Y34960000D01*
X4638430Y34918310D01*
X4638430Y34918308D01*
X4713807Y34736329D01*
X4713814Y34736316D01*
X4823248Y34572538D01*
X4823251Y34572534D01*
X4962533Y34433252D01*
X4962537Y34433249D01*
X5131387Y34320426D01*
X5130430Y34318995D01*
X5174425Y34275789D01*
X5189895Y34207654D01*
X5166072Y34141971D01*
X5164309Y34139906D01*
X5164432Y34139811D01*
X5159485Y34133365D01*
X5083719Y34002137D01*
X5044500Y33855766D01*
X5044500Y33704235D01*
X5083719Y33557864D01*
X5121602Y33492250D01*
X5159485Y33426635D01*
X5266635Y33319485D01*
X5397865Y33243719D01*
X5544234Y33204500D01*
X5544236Y33204500D01*
X5695764Y33204500D01*
X5695766Y33204500D01*
X5842135Y33243719D01*
X5973365Y33319485D01*
X6080515Y33426635D01*
X6156281Y33557865D01*
X6195500Y33704234D01*
X6195500Y33855766D01*
X6156281Y34002135D01*
X6156279Y34002139D01*
X6143658Y34024000D01*
X6127185Y34091901D01*
X6150038Y34157927D01*
X6204959Y34201118D01*
X6251045Y34210000D01*
X6798492Y34210000D01*
X6798495Y34210001D01*
X6991681Y34248428D01*
X6991693Y34248431D01*
X7173671Y34323808D01*
X7173684Y34323815D01*
X7337462Y34433249D01*
X7337466Y34433252D01*
X7476748Y34572534D01*
X7476751Y34572538D01*
X7586185Y34736316D01*
X7586192Y34736329D01*
X7661569Y34918308D01*
X7661569Y34918310D01*
X7669862Y34960000D01*
X6866988Y34960000D01*
X6884205Y34969940D01*
X6940060Y35025795D01*
X6979556Y35094204D01*
X7000000Y35170504D01*
X7000000Y35249496D01*
X6979556Y35325796D01*
X6940060Y35394205D01*
X6884205Y35450060D01*
X6866988Y35460000D01*
X7669862Y35460000D01*
X7661569Y35501691D01*
X7661569Y35501693D01*
X7586192Y35683672D01*
X7586185Y35683685D01*
X7476751Y35847463D01*
X7476748Y35847467D01*
X7337466Y35986749D01*
X7337462Y35986752D01*
X7173684Y36096186D01*
X7173671Y36096193D01*
X6991693Y36171570D01*
X6991681Y36171573D01*
X6798495Y36210000D01*
X6400000Y36210000D01*
X6400000Y35510000D01*
X5900000Y35510000D01*
X5900000Y36210000D01*
X5501504Y36210000D01*
X5308318Y36171573D01*
X5308306Y36171570D01*
X5126328Y36096193D01*
X5126315Y36096186D01*
X4962537Y35986752D01*
X4962533Y35986749D01*
X4823251Y35847467D01*
X4823248Y35847463D01*
X4713814Y35683685D01*
X4713807Y35683672D01*
X4638430Y35501693D01*
X4638430Y35501691D01*
X4630138Y35460000D01*
X3239862Y35460000D01*
X3231569Y35501691D01*
X3231569Y35501693D01*
X3156192Y35683672D01*
X3156185Y35683685D01*
X3046751Y35847463D01*
X3046748Y35847467D01*
X2907466Y35986749D01*
X2907462Y35986752D01*
X2743684Y36096186D01*
X2743671Y36096193D01*
X2561693Y36171570D01*
X2561681Y36171573D01*
X2368495Y36210000D01*
X2220000Y36210000D01*
X2220000Y35510000D01*
X1720000Y35510000D01*
X1720000Y36210000D01*
X1571504Y36210000D01*
X1378318Y36171573D01*
X1378306Y36171570D01*
X1196328Y36096193D01*
X1196315Y36096186D01*
X1032537Y35986752D01*
X1032533Y35986749D01*
X893251Y35847467D01*
X893248Y35847463D01*
X783814Y35683685D01*
X783807Y35683672D01*
X708430Y35501693D01*
X708430Y35501691D01*
X700138Y35460000D01*
X300500Y35460000D01*
X300500Y37450000D01*
X33398065Y37450000D01*
X33416753Y37272195D01*
X33416754Y37272193D01*
X33471997Y37102171D01*
X33472000Y37102165D01*
X33561391Y36947335D01*
X33603062Y36901054D01*
X33681014Y36814479D01*
X33681017Y36814477D01*
X33681020Y36814474D01*
X33825657Y36709388D01*
X33988983Y36636671D01*
X34163859Y36599500D01*
X34163860Y36599500D01*
X34342639Y36599500D01*
X34342641Y36599500D01*
X34517517Y36636671D01*
X34680843Y36709388D01*
X34825480Y36814474D01*
X34945109Y36947335D01*
X35034500Y37102165D01*
X35089747Y37272197D01*
X35108435Y37450000D01*
X35089747Y37627803D01*
X35038390Y37785864D01*
X35034502Y37797830D01*
X35034499Y37797836D01*
X35018477Y37825587D01*
X35002005Y37893485D01*
X35024857Y37959512D01*
X35079778Y38002702D01*
X35149332Y38009344D01*
X35198750Y37987904D01*
X35272407Y37934388D01*
X35435733Y37861671D01*
X35610609Y37824500D01*
X35610610Y37824500D01*
X35789389Y37824500D01*
X35789391Y37824500D01*
X35964267Y37861671D01*
X36127593Y37934388D01*
X36272230Y38039474D01*
X36391859Y38172335D01*
X36481250Y38327165D01*
X36536497Y38497197D01*
X36555185Y38675000D01*
X36536497Y38852803D01*
X36512755Y38925873D01*
X36500596Y38963295D01*
X36498601Y39033136D01*
X36534681Y39092969D01*
X36597382Y39123797D01*
X36631496Y39124933D01*
X36635605Y39124501D01*
X36635609Y39124500D01*
X36635613Y39124500D01*
X36814389Y39124500D01*
X36814391Y39124500D01*
X36989267Y39161671D01*
X37152593Y39234388D01*
X37297230Y39339474D01*
X37302118Y39344902D01*
X37342163Y39389377D01*
X37416859Y39472335D01*
X37506250Y39627165D01*
X37561497Y39797197D01*
X37580185Y39975000D01*
X37577557Y40000000D01*
X38394815Y40000000D01*
X38413503Y39822195D01*
X38413504Y39822193D01*
X38468747Y39652171D01*
X38468750Y39652165D01*
X38558141Y39497335D01*
X38599812Y39451054D01*
X38677764Y39364479D01*
X38677767Y39364477D01*
X38677770Y39364474D01*
X38822407Y39259388D01*
X38985733Y39186671D01*
X39160609Y39149500D01*
X39160610Y39149500D01*
X39339389Y39149500D01*
X39339391Y39149500D01*
X39514267Y39186671D01*
X39677593Y39259388D01*
X39822230Y39364474D01*
X39941859Y39497335D01*
X39967613Y39541944D01*
X40018179Y39590158D01*
X40086786Y39603382D01*
X40151651Y39577414D01*
X40182385Y39541945D01*
X40208140Y39497337D01*
X40208141Y39497335D01*
X40327764Y39364479D01*
X40327767Y39364477D01*
X40327770Y39364474D01*
X40472407Y39259388D01*
X40635733Y39186671D01*
X40810609Y39149500D01*
X40810610Y39149500D01*
X40989389Y39149500D01*
X40989391Y39149500D01*
X41164267Y39186671D01*
X41327593Y39259388D01*
X41472230Y39364474D01*
X41591859Y39497335D01*
X41617613Y39541944D01*
X41668179Y39590158D01*
X41736786Y39603382D01*
X41801651Y39577414D01*
X41832385Y39541945D01*
X41858140Y39497337D01*
X41858141Y39497335D01*
X41977764Y39364479D01*
X41977767Y39364477D01*
X41977770Y39364474D01*
X42122407Y39259388D01*
X42285733Y39186671D01*
X42460609Y39149500D01*
X42460610Y39149500D01*
X42639389Y39149500D01*
X42639391Y39149500D01*
X42814267Y39186671D01*
X42977593Y39259388D01*
X43122230Y39364474D01*
X43241859Y39497335D01*
X43331250Y39652165D01*
X43386497Y39822197D01*
X43405185Y40000000D01*
X43386497Y40177803D01*
X43339373Y40322836D01*
X43331252Y40347830D01*
X43331249Y40347836D01*
X43241859Y40502665D01*
X43179126Y40572337D01*
X43122235Y40635522D01*
X43122232Y40635524D01*
X43122231Y40635525D01*
X43122230Y40635526D01*
X42977593Y40740612D01*
X42814267Y40813329D01*
X42814265Y40813330D01*
X42686594Y40840467D01*
X42639391Y40850500D01*
X42460609Y40850500D01*
X42429954Y40843985D01*
X42285733Y40813330D01*
X42285728Y40813328D01*
X42122408Y40740613D01*
X41977768Y40635525D01*
X41858140Y40502664D01*
X41832387Y40458058D01*
X41781820Y40409843D01*
X41713213Y40396619D01*
X41648349Y40422587D01*
X41617613Y40458058D01*
X41601289Y40486332D01*
X41591859Y40502665D01*
X41529126Y40572337D01*
X41472235Y40635522D01*
X41472232Y40635524D01*
X41472231Y40635525D01*
X41472230Y40635526D01*
X41327593Y40740612D01*
X41164267Y40813329D01*
X41164265Y40813330D01*
X41036594Y40840467D01*
X40989391Y40850500D01*
X40810609Y40850500D01*
X40779954Y40843985D01*
X40635733Y40813330D01*
X40635728Y40813328D01*
X40472408Y40740613D01*
X40327768Y40635525D01*
X40208140Y40502664D01*
X40182387Y40458058D01*
X40131820Y40409843D01*
X40063213Y40396619D01*
X39998349Y40422587D01*
X39967613Y40458058D01*
X39951289Y40486332D01*
X39941859Y40502665D01*
X39879126Y40572337D01*
X39822235Y40635522D01*
X39822232Y40635524D01*
X39822231Y40635525D01*
X39822230Y40635526D01*
X39677593Y40740612D01*
X39514267Y40813329D01*
X39514265Y40813330D01*
X39386594Y40840467D01*
X39339391Y40850500D01*
X39160609Y40850500D01*
X39129954Y40843985D01*
X38985733Y40813330D01*
X38985728Y40813328D01*
X38822408Y40740613D01*
X38677768Y40635525D01*
X38558140Y40502664D01*
X38468750Y40347836D01*
X38468747Y40347830D01*
X38413504Y40177808D01*
X38413503Y40177806D01*
X38394815Y40000000D01*
X37577557Y40000000D01*
X37561497Y40152803D01*
X37533873Y40237819D01*
X37506252Y40322830D01*
X37506249Y40322836D01*
X37416859Y40477665D01*
X37370003Y40529704D01*
X37297235Y40610522D01*
X37297232Y40610524D01*
X37297231Y40610525D01*
X37297230Y40610526D01*
X37152593Y40715612D01*
X36989267Y40788329D01*
X36989265Y40788330D01*
X36861594Y40815467D01*
X36814391Y40825500D01*
X36635609Y40825500D01*
X36604954Y40818985D01*
X36460733Y40788330D01*
X36460728Y40788328D01*
X36297408Y40715613D01*
X36152768Y40610525D01*
X36033140Y40477664D01*
X35943750Y40322836D01*
X35943747Y40322830D01*
X35888504Y40152808D01*
X35888502Y40152800D01*
X35888462Y40152412D01*
X35888375Y40152203D01*
X35887153Y40146449D01*
X35886100Y40146673D01*
X35861873Y40087799D01*
X35804573Y40047819D01*
X35734754Y40045163D01*
X35674583Y40080676D01*
X35657756Y40103380D01*
X35641859Y40130915D01*
X35622148Y40152806D01*
X35522235Y40263772D01*
X35522232Y40263774D01*
X35522231Y40263775D01*
X35522230Y40263776D01*
X35377593Y40368862D01*
X35214267Y40441579D01*
X35214265Y40441580D01*
X35086594Y40468717D01*
X35039391Y40478750D01*
X34860609Y40478750D01*
X34829954Y40472235D01*
X34685733Y40441580D01*
X34685728Y40441578D01*
X34522408Y40368863D01*
X34377768Y40263775D01*
X34258140Y40130914D01*
X34168750Y39976086D01*
X34168747Y39976080D01*
X34113504Y39806058D01*
X34113503Y39806056D01*
X34094815Y39628250D01*
X34113503Y39450445D01*
X34113504Y39450443D01*
X34168747Y39280421D01*
X34168750Y39280415D01*
X34258141Y39125585D01*
X34287509Y39092969D01*
X34377764Y38992729D01*
X34377767Y38992727D01*
X34377770Y38992724D01*
X34522407Y38887638D01*
X34685733Y38814921D01*
X34746599Y38801984D01*
X34808077Y38768794D01*
X34841854Y38707631D01*
X34844815Y38680695D01*
X34844815Y38675003D01*
X34863503Y38497195D01*
X34863504Y38497193D01*
X34918747Y38327171D01*
X34918752Y38327160D01*
X34934771Y38299415D01*
X34951244Y38231515D01*
X34928391Y38165488D01*
X34873470Y38122298D01*
X34803916Y38115657D01*
X34754498Y38137098D01*
X34680844Y38190611D01*
X34680843Y38190612D01*
X34517517Y38263329D01*
X34517515Y38263330D01*
X34389844Y38290467D01*
X34342641Y38300500D01*
X34163859Y38300500D01*
X34133204Y38293985D01*
X33988983Y38263330D01*
X33988978Y38263328D01*
X33825658Y38190613D01*
X33681018Y38085525D01*
X33561390Y37952664D01*
X33472000Y37797836D01*
X33471997Y37797830D01*
X33416754Y37627808D01*
X33416753Y37627806D01*
X33398065Y37450000D01*
X300500Y37450000D01*
X300500Y38580000D01*
X22654901Y38580000D01*
X22673252Y38393669D01*
X22673253Y38393667D01*
X22727604Y38214498D01*
X22815862Y38049377D01*
X22815864Y38049374D01*
X22934642Y37904643D01*
X23079373Y37785865D01*
X23079376Y37785863D01*
X23244497Y37697605D01*
X23244499Y37697604D01*
X23423666Y37643254D01*
X23423668Y37643253D01*
X23440374Y37641608D01*
X23610000Y37624901D01*
X23796331Y37643253D01*
X23975501Y37697604D01*
X24140625Y37785864D01*
X24285357Y37904643D01*
X24404136Y38049375D01*
X24492396Y38214499D01*
X24546747Y38393669D01*
X24565099Y38580000D01*
X24546747Y38766331D01*
X24492396Y38945501D01*
X24467155Y38992724D01*
X24404137Y39110624D01*
X24404135Y39110627D01*
X24285357Y39255358D01*
X24140626Y39374136D01*
X24140623Y39374138D01*
X23975502Y39462396D01*
X23796333Y39516747D01*
X23796331Y39516748D01*
X23610000Y39535099D01*
X23423668Y39516748D01*
X23423666Y39516747D01*
X23244497Y39462396D01*
X23079376Y39374138D01*
X23079373Y39374136D01*
X22934642Y39255358D01*
X22815864Y39110627D01*
X22815862Y39110624D01*
X22727604Y38945503D01*
X22673253Y38766334D01*
X22673252Y38766332D01*
X22654901Y38580000D01*
X300500Y38580000D01*
X300500Y40300000D01*
X18094901Y40300000D01*
X18113252Y40113669D01*
X18113253Y40113667D01*
X18167604Y39934498D01*
X18255862Y39769377D01*
X18255864Y39769374D01*
X18374642Y39624643D01*
X18519373Y39505865D01*
X18519376Y39505863D01*
X18623057Y39450445D01*
X18684499Y39417604D01*
X18859634Y39364477D01*
X18863666Y39363254D01*
X18863668Y39363253D01*
X18880374Y39361608D01*
X19050000Y39344901D01*
X19236331Y39363253D01*
X19415501Y39417604D01*
X19580625Y39505864D01*
X19725357Y39624643D01*
X19844136Y39769375D01*
X19924646Y39920000D01*
X27284901Y39920000D01*
X27303252Y39733669D01*
X27303253Y39733667D01*
X27357604Y39554498D01*
X27445862Y39389377D01*
X27445864Y39389374D01*
X27564642Y39244643D01*
X27709373Y39125865D01*
X27709376Y39125863D01*
X27874497Y39037605D01*
X27874499Y39037604D01*
X28022438Y38992727D01*
X28053666Y38983254D01*
X28053668Y38983253D01*
X28070374Y38981608D01*
X28240000Y38964901D01*
X28426331Y38983253D01*
X28605501Y39037604D01*
X28770625Y39125864D01*
X28915357Y39244643D01*
X29034136Y39389375D01*
X29122396Y39554499D01*
X29176747Y39733669D01*
X29195099Y39920000D01*
X29176747Y40106331D01*
X29122396Y40285501D01*
X29114646Y40300000D01*
X29034137Y40450624D01*
X29034135Y40450627D01*
X28915357Y40595358D01*
X28770626Y40714136D01*
X28770623Y40714138D01*
X28605502Y40802396D01*
X28426333Y40856747D01*
X28426331Y40856748D01*
X28240000Y40875099D01*
X28053668Y40856748D01*
X28053666Y40856747D01*
X27874497Y40802396D01*
X27709376Y40714138D01*
X27709373Y40714136D01*
X27564642Y40595358D01*
X27445864Y40450627D01*
X27445862Y40450624D01*
X27357604Y40285503D01*
X27303253Y40106334D01*
X27303252Y40106332D01*
X27284901Y39920000D01*
X19924646Y39920000D01*
X19932396Y39934499D01*
X19986747Y40113669D01*
X20005099Y40300000D01*
X19986747Y40486331D01*
X19932396Y40665501D01*
X19859225Y40802396D01*
X19844137Y40830624D01*
X19844135Y40830627D01*
X19725357Y40975358D01*
X19603943Y41075000D01*
X32694815Y41075000D01*
X32713503Y40897195D01*
X32713504Y40897193D01*
X32768747Y40727171D01*
X32768750Y40727165D01*
X32858141Y40572335D01*
X32899812Y40526054D01*
X32977764Y40439479D01*
X32977767Y40439477D01*
X32977770Y40439474D01*
X33122407Y40334388D01*
X33285733Y40261671D01*
X33460609Y40224500D01*
X33460610Y40224500D01*
X33639389Y40224500D01*
X33639391Y40224500D01*
X33814267Y40261671D01*
X33977593Y40334388D01*
X34122230Y40439474D01*
X34124125Y40441578D01*
X34148148Y40468259D01*
X34241859Y40572335D01*
X34331250Y40727165D01*
X34386497Y40897197D01*
X34405185Y41075000D01*
X34386497Y41252803D01*
X34331250Y41422835D01*
X34241859Y41577665D01*
X34195003Y41629704D01*
X34122235Y41710522D01*
X34122232Y41710524D01*
X34122231Y41710525D01*
X34122230Y41710526D01*
X33977593Y41815612D01*
X33814267Y41888329D01*
X33814265Y41888330D01*
X33686594Y41915467D01*
X33639391Y41925500D01*
X33460609Y41925500D01*
X33429954Y41918985D01*
X33285733Y41888330D01*
X33285728Y41888328D01*
X33122408Y41815613D01*
X32977768Y41710525D01*
X32858140Y41577664D01*
X32768750Y41422836D01*
X32768747Y41422830D01*
X32713504Y41252808D01*
X32713503Y41252806D01*
X32694815Y41075000D01*
X19603943Y41075000D01*
X19580626Y41094136D01*
X19580623Y41094138D01*
X19415502Y41182396D01*
X19236333Y41236747D01*
X19236331Y41236748D01*
X19050000Y41255099D01*
X18863668Y41236748D01*
X18863666Y41236747D01*
X18684497Y41182396D01*
X18519376Y41094138D01*
X18519373Y41094136D01*
X18374642Y40975358D01*
X18255864Y40830627D01*
X18255862Y40830624D01*
X18167604Y40665503D01*
X18113253Y40486334D01*
X18113252Y40486332D01*
X18094901Y40300000D01*
X300500Y40300000D01*
X300500Y44923024D01*
X308395Y44966563D01*
X320935Y45000001D01*
X17454341Y45000001D01*
X17454341Y45000000D01*
X17474936Y44764597D01*
X17474938Y44764587D01*
X17536094Y44536345D01*
X17536096Y44536341D01*
X17536097Y44536337D01*
X17615801Y44365412D01*
X17635965Y44322170D01*
X17635967Y44322166D01*
X17744281Y44167479D01*
X17771505Y44128599D01*
X17938599Y43961505D01*
X18035384Y43893735D01*
X18132165Y43825968D01*
X18132167Y43825967D01*
X18132170Y43825965D01*
X18346337Y43726097D01*
X18574592Y43664937D01*
X18751034Y43649500D01*
X18809999Y43644341D01*
X18810000Y43644341D01*
X18810001Y43644341D01*
X18868966Y43649500D01*
X19045408Y43664937D01*
X19273663Y43726097D01*
X19487830Y43825965D01*
X19681401Y43961505D01*
X19848495Y44128599D01*
X19978730Y44314595D01*
X20033307Y44358219D01*
X20102805Y44365413D01*
X20165160Y44333890D01*
X20181879Y44314595D01*
X20311890Y44128922D01*
X20478917Y43961895D01*
X20672421Y43826400D01*
X20886507Y43726571D01*
X20886516Y43726567D01*
X21100000Y43669366D01*
X21100000Y44566988D01*
X21157007Y44534075D01*
X21284174Y44500000D01*
X21415826Y44500000D01*
X21542993Y44534075D01*
X21600000Y44566988D01*
X21600000Y43669367D01*
X21813483Y43726567D01*
X21813492Y43726571D01*
X22027578Y43826400D01*
X22221082Y43961895D01*
X22388105Y44128918D01*
X22518119Y44314595D01*
X22572696Y44358219D01*
X22642195Y44365412D01*
X22704549Y44333890D01*
X22721269Y44314595D01*
X22851505Y44128599D01*
X23018599Y43961505D01*
X23115384Y43893735D01*
X23212165Y43825968D01*
X23212167Y43825967D01*
X23212170Y43825965D01*
X23426337Y43726097D01*
X23654592Y43664937D01*
X23831034Y43649500D01*
X23889999Y43644341D01*
X23890000Y43644341D01*
X23890001Y43644341D01*
X23948966Y43649500D01*
X24125408Y43664937D01*
X24353663Y43726097D01*
X24567830Y43825965D01*
X24761401Y43961505D01*
X24928495Y44128599D01*
X25058425Y44314158D01*
X25113002Y44357783D01*
X25182500Y44364977D01*
X25244855Y44333454D01*
X25261575Y44314158D01*
X25391500Y44128605D01*
X25391505Y44128599D01*
X25558599Y43961505D01*
X25655384Y43893735D01*
X25752165Y43825968D01*
X25752167Y43825967D01*
X25752170Y43825965D01*
X25966337Y43726097D01*
X26194592Y43664937D01*
X26371034Y43649500D01*
X26429999Y43644341D01*
X26430000Y43644341D01*
X26430001Y43644341D01*
X26488966Y43649500D01*
X26665408Y43664937D01*
X26893663Y43726097D01*
X27107830Y43825965D01*
X27301401Y43961505D01*
X27468495Y44128599D01*
X27598425Y44314158D01*
X27653002Y44357783D01*
X27722500Y44364977D01*
X27784855Y44333454D01*
X27801575Y44314158D01*
X27931500Y44128605D01*
X27931505Y44128599D01*
X28098599Y43961505D01*
X28195384Y43893735D01*
X28292165Y43825968D01*
X28292167Y43825967D01*
X28292170Y43825965D01*
X28506337Y43726097D01*
X28734592Y43664937D01*
X28911034Y43649500D01*
X28969999Y43644341D01*
X28970000Y43644341D01*
X28970001Y43644341D01*
X29028966Y43649500D01*
X29205408Y43664937D01*
X29433663Y43726097D01*
X29647830Y43825965D01*
X29841401Y43961505D01*
X30008495Y44128599D01*
X30138425Y44314158D01*
X30193002Y44357783D01*
X30262500Y44364977D01*
X30324855Y44333454D01*
X30341575Y44314158D01*
X30471500Y44128605D01*
X30471505Y44128599D01*
X30638599Y43961505D01*
X30735384Y43893735D01*
X30832165Y43825968D01*
X30832167Y43825967D01*
X30832170Y43825965D01*
X31046337Y43726097D01*
X31274592Y43664937D01*
X31451034Y43649500D01*
X31509999Y43644341D01*
X31510000Y43644341D01*
X31510001Y43644341D01*
X31568966Y43649500D01*
X31745408Y43664937D01*
X31973663Y43726097D01*
X32187830Y43825965D01*
X32381401Y43961505D01*
X32503329Y44083434D01*
X32564648Y44116916D01*
X32634340Y44111932D01*
X32690274Y44070061D01*
X32707189Y44039083D01*
X32756202Y43907672D01*
X32756206Y43907665D01*
X32842452Y43792456D01*
X32842455Y43792453D01*
X32957664Y43706207D01*
X32957671Y43706203D01*
X33092517Y43655909D01*
X33092516Y43655909D01*
X33099444Y43655165D01*
X33152127Y43649500D01*
X34947872Y43649501D01*
X35007483Y43655909D01*
X35142331Y43706204D01*
X35257546Y43792454D01*
X35343796Y43907669D01*
X35394091Y44042517D01*
X35400500Y44102127D01*
X35400499Y45897872D01*
X35394091Y45957483D01*
X35392810Y45960917D01*
X35343797Y46092329D01*
X35343793Y46092336D01*
X35257547Y46207545D01*
X35257544Y46207548D01*
X35142335Y46293794D01*
X35142328Y46293798D01*
X35007482Y46344092D01*
X35007483Y46344092D01*
X34947883Y46350499D01*
X34947881Y46350500D01*
X34947873Y46350500D01*
X34947864Y46350500D01*
X33152129Y46350500D01*
X33152123Y46350499D01*
X33092516Y46344092D01*
X32957671Y46293798D01*
X32957664Y46293794D01*
X32842455Y46207548D01*
X32842452Y46207545D01*
X32756206Y46092336D01*
X32756203Y46092331D01*
X32707189Y45960917D01*
X32665317Y45904984D01*
X32599853Y45880567D01*
X32531580Y45895419D01*
X32503326Y45916570D01*
X32381402Y46038494D01*
X32381395Y46038499D01*
X32187834Y46174033D01*
X32187830Y46174035D01*
X32187828Y46174036D01*
X31973663Y46273903D01*
X31973659Y46273904D01*
X31973655Y46273906D01*
X31745413Y46335062D01*
X31745403Y46335064D01*
X31510001Y46355659D01*
X31509999Y46355659D01*
X31274596Y46335064D01*
X31274586Y46335062D01*
X31046344Y46273906D01*
X31046335Y46273902D01*
X30832171Y46174036D01*
X30832169Y46174035D01*
X30638597Y46038495D01*
X30471505Y45871403D01*
X30341575Y45685842D01*
X30286998Y45642217D01*
X30217500Y45635023D01*
X30155145Y45666546D01*
X30138425Y45685842D01*
X30008494Y45871403D01*
X29841402Y46038494D01*
X29841395Y46038499D01*
X29647834Y46174033D01*
X29647830Y46174035D01*
X29647828Y46174036D01*
X29433663Y46273903D01*
X29433659Y46273904D01*
X29433655Y46273906D01*
X29205413Y46335062D01*
X29205403Y46335064D01*
X28970001Y46355659D01*
X28969999Y46355659D01*
X28734596Y46335064D01*
X28734586Y46335062D01*
X28506344Y46273906D01*
X28506335Y46273902D01*
X28292171Y46174036D01*
X28292169Y46174035D01*
X28098597Y46038495D01*
X27931505Y45871403D01*
X27801575Y45685842D01*
X27746998Y45642217D01*
X27677500Y45635023D01*
X27615145Y45666546D01*
X27598425Y45685842D01*
X27468494Y45871403D01*
X27301402Y46038494D01*
X27301395Y46038499D01*
X27107834Y46174033D01*
X27107830Y46174035D01*
X27107828Y46174036D01*
X26893663Y46273903D01*
X26893659Y46273904D01*
X26893655Y46273906D01*
X26665413Y46335062D01*
X26665403Y46335064D01*
X26430001Y46355659D01*
X26429999Y46355659D01*
X26194596Y46335064D01*
X26194586Y46335062D01*
X25966344Y46273906D01*
X25966335Y46273902D01*
X25752171Y46174036D01*
X25752169Y46174035D01*
X25558597Y46038495D01*
X25391505Y45871403D01*
X25261575Y45685842D01*
X25206998Y45642217D01*
X25137500Y45635023D01*
X25075145Y45666546D01*
X25058425Y45685842D01*
X24928494Y45871403D01*
X24761402Y46038494D01*
X24761395Y46038499D01*
X24567834Y46174033D01*
X24567830Y46174035D01*
X24567828Y46174036D01*
X24353663Y46273903D01*
X24353659Y46273904D01*
X24353655Y46273906D01*
X24125413Y46335062D01*
X24125403Y46335064D01*
X23890001Y46355659D01*
X23889999Y46355659D01*
X23654596Y46335064D01*
X23654586Y46335062D01*
X23426344Y46273906D01*
X23426335Y46273902D01*
X23212171Y46174036D01*
X23212169Y46174035D01*
X23018597Y46038495D01*
X22851508Y45871406D01*
X22721269Y45685405D01*
X22666692Y45641781D01*
X22597193Y45634588D01*
X22534839Y45666110D01*
X22518119Y45685406D01*
X22388113Y45871074D01*
X22388108Y45871080D01*
X22221082Y46038106D01*
X22027578Y46173601D01*
X21813492Y46273430D01*
X21813486Y46273433D01*
X21600000Y46330636D01*
X21600000Y45433012D01*
X21542993Y45465925D01*
X21415826Y45500000D01*
X21284174Y45500000D01*
X21157007Y45465925D01*
X21100000Y45433012D01*
X21100000Y46330636D01*
X21099999Y46330636D01*
X20886513Y46273433D01*
X20886507Y46273430D01*
X20672422Y46173601D01*
X20672420Y46173600D01*
X20478926Y46038114D01*
X20478920Y46038109D01*
X20311891Y45871080D01*
X20311890Y45871078D01*
X20181880Y45685405D01*
X20127303Y45641781D01*
X20057804Y45634588D01*
X19995450Y45666110D01*
X19978730Y45685406D01*
X19848494Y45871403D01*
X19681402Y46038494D01*
X19681395Y46038499D01*
X19487834Y46174033D01*
X19487830Y46174035D01*
X19487828Y46174036D01*
X19273663Y46273903D01*
X19273659Y46273904D01*
X19273655Y46273906D01*
X19045413Y46335062D01*
X19045403Y46335064D01*
X18810001Y46355659D01*
X18809999Y46355659D01*
X18574596Y46335064D01*
X18574586Y46335062D01*
X18346344Y46273906D01*
X18346335Y46273902D01*
X18132171Y46174036D01*
X18132169Y46174035D01*
X17938597Y46038495D01*
X17771505Y45871403D01*
X17635965Y45677831D01*
X17635964Y45677829D01*
X17536098Y45463665D01*
X17536094Y45463656D01*
X17474938Y45235414D01*
X17474936Y45235404D01*
X17454341Y45000001D01*
X320935Y45000001D01*
X1736559Y48775000D01*
X21889901Y48775000D01*
X21908252Y48588669D01*
X21908253Y48588667D01*
X21962604Y48409498D01*
X22050862Y48244377D01*
X22050864Y48244374D01*
X22169642Y48099643D01*
X22314373Y47980865D01*
X22314376Y47980863D01*
X22466597Y47899500D01*
X22479499Y47892604D01*
X22621593Y47849500D01*
X22658666Y47838254D01*
X22658668Y47838253D01*
X22675374Y47836608D01*
X22845000Y47819901D01*
X23031331Y47838253D01*
X23210501Y47892604D01*
X23375625Y47980864D01*
X23520357Y48099643D01*
X23639136Y48244375D01*
X23727396Y48409499D01*
X23781747Y48588669D01*
X23792712Y48700000D01*
X34444815Y48700000D01*
X34463503Y48522195D01*
X34463504Y48522193D01*
X34518747Y48352171D01*
X34518750Y48352165D01*
X34608141Y48197335D01*
X34649812Y48151054D01*
X34727764Y48064479D01*
X34727767Y48064477D01*
X34727770Y48064474D01*
X34872407Y47959388D01*
X35035733Y47886671D01*
X35210609Y47849500D01*
X35210610Y47849500D01*
X35389389Y47849500D01*
X35389391Y47849500D01*
X35564267Y47886671D01*
X35727593Y47959388D01*
X35872230Y48064474D01*
X35991859Y48197335D01*
X36081250Y48352165D01*
X36136497Y48522197D01*
X36155185Y48700000D01*
X36149930Y48750000D01*
X37894815Y48750000D01*
X37913503Y48572195D01*
X37913504Y48572193D01*
X37968747Y48402171D01*
X37968750Y48402165D01*
X38058141Y48247335D01*
X38099812Y48201054D01*
X38177764Y48114479D01*
X38177767Y48114477D01*
X38177770Y48114474D01*
X38322407Y48009388D01*
X38485733Y47936671D01*
X38660609Y47899500D01*
X38660610Y47899500D01*
X38839389Y47899500D01*
X38839391Y47899500D01*
X39014267Y47936671D01*
X39177593Y48009388D01*
X39322230Y48114474D01*
X39441859Y48247335D01*
X39531250Y48402165D01*
X39586497Y48572197D01*
X39605185Y48750000D01*
X39586497Y48927803D01*
X39531250Y49097835D01*
X39441859Y49252665D01*
X39367254Y49335522D01*
X39322235Y49385522D01*
X39322232Y49385524D01*
X39322231Y49385525D01*
X39322230Y49385526D01*
X39177593Y49490612D01*
X39014267Y49563329D01*
X39014265Y49563330D01*
X38886594Y49590467D01*
X38839391Y49600500D01*
X38660609Y49600500D01*
X38629954Y49593985D01*
X38485733Y49563330D01*
X38485728Y49563328D01*
X38322408Y49490613D01*
X38177768Y49385525D01*
X38058140Y49252664D01*
X37968750Y49097836D01*
X37968747Y49097830D01*
X37913504Y48927808D01*
X37913503Y48927806D01*
X37894815Y48750000D01*
X36149930Y48750000D01*
X36136497Y48877803D01*
X36081250Y49047835D01*
X35991859Y49202665D01*
X35945003Y49254704D01*
X35872235Y49335522D01*
X35872232Y49335524D01*
X35872231Y49335525D01*
X35872230Y49335526D01*
X35727593Y49440612D01*
X35564267Y49513329D01*
X35564265Y49513330D01*
X35436594Y49540467D01*
X35389391Y49550500D01*
X35210609Y49550500D01*
X35179954Y49543985D01*
X35035733Y49513330D01*
X35035728Y49513328D01*
X34872408Y49440613D01*
X34727768Y49335525D01*
X34608140Y49202664D01*
X34518750Y49047836D01*
X34518747Y49047830D01*
X34463504Y48877808D01*
X34463503Y48877806D01*
X34444815Y48700000D01*
X23792712Y48700000D01*
X23800099Y48775000D01*
X23781747Y48961331D01*
X23727396Y49140501D01*
X23727395Y49140503D01*
X23639137Y49305624D01*
X23639135Y49305627D01*
X23520357Y49450358D01*
X23375626Y49569136D01*
X23375623Y49569138D01*
X23210502Y49657396D01*
X23031333Y49711747D01*
X23031331Y49711748D01*
X22845000Y49730099D01*
X22658668Y49711748D01*
X22658666Y49711747D01*
X22479497Y49657396D01*
X22314376Y49569138D01*
X22314373Y49569136D01*
X22169642Y49450358D01*
X22050864Y49305627D01*
X22050862Y49305624D01*
X21962604Y49140503D01*
X21908253Y48961334D01*
X21908252Y48961332D01*
X21889901Y48775000D01*
X1736559Y48775000D01*
X4385934Y55840000D01*
X15174901Y55840000D01*
X15193252Y55653669D01*
X15193253Y55653667D01*
X15247604Y55474498D01*
X15335862Y55309377D01*
X15335864Y55309374D01*
X15454642Y55164643D01*
X15599373Y55045865D01*
X15599376Y55045863D01*
X15764497Y54957605D01*
X15764499Y54957604D01*
X15943666Y54903254D01*
X15943668Y54903253D01*
X15960374Y54901608D01*
X16130000Y54884901D01*
X16316331Y54903253D01*
X16495501Y54957604D01*
X16660625Y55045864D01*
X16805357Y55164643D01*
X16924136Y55309375D01*
X17012396Y55474499D01*
X17066747Y55653669D01*
X17085099Y55840000D01*
X17066747Y56026331D01*
X17012396Y56205501D01*
X16924136Y56370625D01*
X16924135Y56370627D01*
X16805357Y56515358D01*
X16660626Y56634136D01*
X16660623Y56634138D01*
X16495502Y56722396D01*
X16316333Y56776747D01*
X16316331Y56776748D01*
X16130000Y56795099D01*
X15943668Y56776748D01*
X15943666Y56776747D01*
X15764497Y56722396D01*
X15599376Y56634138D01*
X15599373Y56634136D01*
X15454642Y56515358D01*
X15335864Y56370627D01*
X15335862Y56370624D01*
X15247604Y56205503D01*
X15193253Y56026334D01*
X15193252Y56026332D01*
X15174901Y55840000D01*
X4385934Y55840000D01*
X4940934Y57320000D01*
X32954901Y57320000D01*
X32973252Y57133669D01*
X32973253Y57133667D01*
X33027604Y56954498D01*
X33115862Y56789377D01*
X33115864Y56789374D01*
X33234642Y56644643D01*
X33379373Y56525865D01*
X33379376Y56525863D01*
X33399030Y56515358D01*
X33544499Y56437604D01*
X33723666Y56383254D01*
X33723668Y56383253D01*
X33740374Y56381608D01*
X33910000Y56364901D01*
X34096331Y56383253D01*
X34275501Y56437604D01*
X34440625Y56525864D01*
X34585357Y56644643D01*
X34704136Y56789375D01*
X34792396Y56954499D01*
X34846747Y57133669D01*
X34865099Y57320000D01*
X34846747Y57506331D01*
X34792396Y57685501D01*
X34704136Y57850625D01*
X34704135Y57850627D01*
X34585357Y57995358D01*
X34440626Y58114136D01*
X34440623Y58114138D01*
X34275502Y58202396D01*
X34096333Y58256747D01*
X34096331Y58256748D01*
X33910000Y58275099D01*
X33723668Y58256748D01*
X33723666Y58256747D01*
X33544497Y58202396D01*
X33379376Y58114138D01*
X33379373Y58114136D01*
X33234642Y57995358D01*
X33115864Y57850627D01*
X33115862Y57850624D01*
X33027604Y57685503D01*
X32973253Y57506334D01*
X32973252Y57506332D01*
X32954901Y57320000D01*
X4940934Y57320000D01*
X7678074Y64619040D01*
X7720045Y64674899D01*
X7785552Y64699200D01*
X7794179Y64699500D01*
X45065821Y64699500D01*
X45132860Y64679815D01*
G37*
%TD.AperFunction*%
%TD*%
M02*
