%TF.GenerationSoftware,KiCad,Pcbnew,8.0.6*%
%TF.CreationDate,2025-02-27T14:04:22-08:00*%
%TF.ProjectId,Tempting,54656d70-7469-46e6-972e-6b696361645f,rev?*%
%TF.SameCoordinates,PX7ce2370PY7735940*%
%TF.FileFunction,Copper,L1,Top*%
%TF.FilePolarity,Positive*%
%FSLAX46Y46*%
G04 Gerber Fmt 4.6, Leading zero omitted, Abs format (unit mm)*
G04 Created by KiCad (PCBNEW 8.0.6) date 2025-02-27 14:04:22*
%MOMM*%
%LPD*%
G01*
G04 APERTURE LIST*
G04 Aperture macros list*
%AMRoundRect*
0 Rectangle with rounded corners*
0 $1 Rounding radius*
0 $2 $3 $4 $5 $6 $7 $8 $9 X,Y pos of 4 corners*
0 Add a 4 corners polygon primitive as box body*
4,1,4,$2,$3,$4,$5,$6,$7,$8,$9,$2,$3,0*
0 Add four circle primitives for the rounded corners*
1,1,$1+$1,$2,$3*
1,1,$1+$1,$4,$5*
1,1,$1+$1,$6,$7*
1,1,$1+$1,$8,$9*
0 Add four rect primitives between the rounded corners*
20,1,$1+$1,$2,$3,$4,$5,0*
20,1,$1+$1,$4,$5,$6,$7,0*
20,1,$1+$1,$6,$7,$8,$9,0*
20,1,$1+$1,$8,$9,$2,$3,0*%
G04 Aperture macros list end*
%TA.AperFunction,SMDPad,CuDef*%
%ADD10RoundRect,0.135000X0.135000X0.185000X-0.135000X0.185000X-0.135000X-0.185000X0.135000X-0.185000X0*%
%TD*%
%TA.AperFunction,SMDPad,CuDef*%
%ADD11RoundRect,0.140000X-0.170000X0.140000X-0.170000X-0.140000X0.170000X-0.140000X0.170000X0.140000X0*%
%TD*%
%TA.AperFunction,ComponentPad*%
%ADD12C,1.400000*%
%TD*%
%TA.AperFunction,SMDPad,CuDef*%
%ADD13R,1.450000X0.600000*%
%TD*%
%TA.AperFunction,SMDPad,CuDef*%
%ADD14R,1.450000X0.300000*%
%TD*%
%TA.AperFunction,ComponentPad*%
%ADD15O,2.100000X1.000000*%
%TD*%
%TA.AperFunction,ComponentPad*%
%ADD16O,1.600000X1.000000*%
%TD*%
%TA.AperFunction,SMDPad,CuDef*%
%ADD17RoundRect,0.135000X0.185000X-0.135000X0.185000X0.135000X-0.185000X0.135000X-0.185000X-0.135000X0*%
%TD*%
%TA.AperFunction,ComponentPad*%
%ADD18C,0.700000*%
%TD*%
%TA.AperFunction,ComponentPad*%
%ADD19C,4.400000*%
%TD*%
%TA.AperFunction,SMDPad,CuDef*%
%ADD20RoundRect,0.225000X-0.250000X0.225000X-0.250000X-0.225000X0.250000X-0.225000X0.250000X0.225000X0*%
%TD*%
%TA.AperFunction,SMDPad,CuDef*%
%ADD21RoundRect,0.135000X-0.135000X-0.185000X0.135000X-0.185000X0.135000X0.185000X-0.135000X0.185000X0*%
%TD*%
%TA.AperFunction,SMDPad,CuDef*%
%ADD22RoundRect,0.140000X0.140000X0.170000X-0.140000X0.170000X-0.140000X-0.170000X0.140000X-0.170000X0*%
%TD*%
%TA.AperFunction,SMDPad,CuDef*%
%ADD23RoundRect,0.250000X-0.275000X-0.250000X0.275000X-0.250000X0.275000X0.250000X-0.275000X0.250000X0*%
%TD*%
%TA.AperFunction,SMDPad,CuDef*%
%ADD24RoundRect,0.250000X-0.850000X-0.275000X0.850000X-0.275000X0.850000X0.275000X-0.850000X0.275000X0*%
%TD*%
%TA.AperFunction,SMDPad,CuDef*%
%ADD25RoundRect,0.225000X0.225000X0.250000X-0.225000X0.250000X-0.225000X-0.250000X0.225000X-0.250000X0*%
%TD*%
%TA.AperFunction,SMDPad,CuDef*%
%ADD26RoundRect,0.212500X0.212500X-0.737500X0.212500X0.737500X-0.212500X0.737500X-0.212500X-0.737500X0*%
%TD*%
%TA.AperFunction,SMDPad,CuDef*%
%ADD27RoundRect,0.212500X0.737500X-0.212500X0.737500X0.212500X-0.737500X0.212500X-0.737500X-0.212500X0*%
%TD*%
%TA.AperFunction,HeatsinkPad*%
%ADD28R,4.800000X4.800000*%
%TD*%
%TA.AperFunction,SMDPad,CuDef*%
%ADD29RoundRect,0.140000X0.170000X-0.140000X0.170000X0.140000X-0.170000X0.140000X-0.170000X-0.140000X0*%
%TD*%
%TA.AperFunction,SMDPad,CuDef*%
%ADD30RoundRect,0.225000X-0.225000X-0.250000X0.225000X-0.250000X0.225000X0.250000X-0.225000X0.250000X0*%
%TD*%
%TA.AperFunction,SMDPad,CuDef*%
%ADD31RoundRect,0.147500X0.147500X0.172500X-0.147500X0.172500X-0.147500X-0.172500X0.147500X-0.172500X0*%
%TD*%
%TA.AperFunction,SMDPad,CuDef*%
%ADD32RoundRect,0.068750X-0.068750X-0.281250X0.068750X-0.281250X0.068750X0.281250X-0.068750X0.281250X0*%
%TD*%
%TA.AperFunction,SMDPad,CuDef*%
%ADD33RoundRect,0.061250X0.163750X0.061250X-0.163750X0.061250X-0.163750X-0.061250X0.163750X-0.061250X0*%
%TD*%
%TA.AperFunction,SMDPad,CuDef*%
%ADD34RoundRect,0.150000X-0.512500X-0.150000X0.512500X-0.150000X0.512500X0.150000X-0.512500X0.150000X0*%
%TD*%
%TA.AperFunction,SMDPad,CuDef*%
%ADD35RoundRect,0.140000X-0.140000X-0.170000X0.140000X-0.170000X0.140000X0.170000X-0.140000X0.170000X0*%
%TD*%
%TA.AperFunction,SMDPad,CuDef*%
%ADD36RoundRect,0.087500X-0.087500X0.087500X-0.087500X-0.087500X0.087500X-0.087500X0.087500X0.087500X0*%
%TD*%
%TA.AperFunction,ConnectorPad*%
%ADD37C,0.787400*%
%TD*%
%TA.AperFunction,ComponentPad*%
%ADD38C,0.800000*%
%TD*%
%TA.AperFunction,ComponentPad*%
%ADD39C,6.400000*%
%TD*%
%TA.AperFunction,SMDPad,CuDef*%
%ADD40RoundRect,0.218750X0.218750X0.381250X-0.218750X0.381250X-0.218750X-0.381250X0.218750X-0.381250X0*%
%TD*%
%TA.AperFunction,SMDPad,CuDef*%
%ADD41RoundRect,0.375000X0.625000X0.375000X-0.625000X0.375000X-0.625000X-0.375000X0.625000X-0.375000X0*%
%TD*%
%TA.AperFunction,SMDPad,CuDef*%
%ADD42RoundRect,0.500000X0.500000X1.400000X-0.500000X1.400000X-0.500000X-1.400000X0.500000X-1.400000X0*%
%TD*%
%TA.AperFunction,SMDPad,CuDef*%
%ADD43RoundRect,0.147500X-0.172500X0.147500X-0.172500X-0.147500X0.172500X-0.147500X0.172500X0.147500X0*%
%TD*%
%TA.AperFunction,SMDPad,CuDef*%
%ADD44R,0.600000X1.100000*%
%TD*%
%TA.AperFunction,ComponentPad*%
%ADD45R,1.700000X1.700000*%
%TD*%
%TA.AperFunction,ComponentPad*%
%ADD46O,1.700000X1.700000*%
%TD*%
%TA.AperFunction,SMDPad,CuDef*%
%ADD47R,0.800000X0.900000*%
%TD*%
%TA.AperFunction,SMDPad,CuDef*%
%ADD48RoundRect,0.250000X-0.250000X-0.475000X0.250000X-0.475000X0.250000X0.475000X-0.250000X0.475000X0*%
%TD*%
%TA.AperFunction,SMDPad,CuDef*%
%ADD49RoundRect,0.062500X0.062500X-0.375000X0.062500X0.375000X-0.062500X0.375000X-0.062500X-0.375000X0*%
%TD*%
%TA.AperFunction,SMDPad,CuDef*%
%ADD50RoundRect,0.062500X0.375000X-0.062500X0.375000X0.062500X-0.375000X0.062500X-0.375000X-0.062500X0*%
%TD*%
%TA.AperFunction,HeatsinkPad*%
%ADD51R,5.600000X5.600000*%
%TD*%
%TA.AperFunction,SMDPad,CuDef*%
%ADD52RoundRect,0.225000X0.375000X0.225000X-0.375000X0.225000X-0.375000X-0.225000X0.375000X-0.225000X0*%
%TD*%
%TA.AperFunction,ViaPad*%
%ADD53C,0.700000*%
%TD*%
%TA.AperFunction,ViaPad*%
%ADD54C,0.900000*%
%TD*%
%TA.AperFunction,Conductor*%
%ADD55C,0.500000*%
%TD*%
%TA.AperFunction,Conductor*%
%ADD56C,0.156500*%
%TD*%
%TA.AperFunction,Conductor*%
%ADD57C,0.300000*%
%TD*%
%TA.AperFunction,Conductor*%
%ADD58C,0.250000*%
%TD*%
%TA.AperFunction,Conductor*%
%ADD59C,0.157500*%
%TD*%
G04 APERTURE END LIST*
D10*
%TO.P,R10,1*%
%TO.N,GND*%
X10560000Y28660000D03*
%TO.P,R10,2*%
%TO.N,/USB_CC2*%
X9540000Y28660000D03*
%TD*%
D11*
%TO.P,C5,1*%
%TO.N,/RF_LPF_MATCHING*%
X36137500Y30005000D03*
%TO.P,C5,2*%
%TO.N,GND*%
X36137500Y29045000D03*
%TD*%
D12*
%TO.P,SW2,1,1*%
%TO.N,GND*%
X38300000Y2250000D03*
%TO.P,SW2,2,2*%
X31800000Y2250000D03*
%TO.P,SW2,3,K*%
%TO.N,/BUTTON_2*%
X38300000Y6750000D03*
%TO.P,SW2,4,A*%
X31800000Y6750000D03*
%TD*%
D13*
%TO.P,J4,A1,GND*%
%TO.N,GND*%
X7065000Y34140000D03*
%TO.P,J4,A4,VBUS*%
%TO.N,VBUS*%
X7065000Y33340000D03*
D14*
%TO.P,J4,A5,CC1*%
%TO.N,/USB_CC1*%
X7065000Y32140000D03*
%TO.P,J4,A6,D+*%
%TO.N,/USB_CON_D+*%
X7065000Y31140000D03*
%TO.P,J4,A7,D-*%
%TO.N,/USB_CON_D-*%
X7065000Y30640000D03*
%TO.P,J4,A8,SBU1*%
%TO.N,unconnected-(J4-SBU1-PadA8)*%
X7065000Y29640000D03*
D13*
%TO.P,J4,A9,VBUS*%
%TO.N,VBUS*%
X7065000Y28440000D03*
%TO.P,J4,A12,GND*%
%TO.N,GND*%
X7065000Y27640000D03*
%TO.P,J4,B1,GND*%
X7065000Y27640000D03*
%TO.P,J4,B4,VBUS*%
%TO.N,VBUS*%
X7065000Y28440000D03*
D14*
%TO.P,J4,B5,CC2*%
%TO.N,/USB_CC2*%
X7065000Y29140000D03*
%TO.P,J4,B6,D+*%
%TO.N,/USB_CON_D+*%
X7065000Y30140000D03*
%TO.P,J4,B7,D-*%
%TO.N,/USB_CON_D-*%
X7065000Y31640000D03*
%TO.P,J4,B8,SBU2*%
%TO.N,unconnected-(J4-SBU2-PadB8)*%
X7065000Y32640000D03*
D13*
%TO.P,J4,B9,VBUS*%
%TO.N,VBUS*%
X7065000Y33340000D03*
%TO.P,J4,B12,GND*%
%TO.N,GND*%
X7065000Y34140000D03*
D15*
%TO.P,J4,S1,SHIELD*%
X6150000Y35210000D03*
D16*
X1970000Y35210000D03*
D15*
X6150000Y26570000D03*
D16*
X1970000Y26570000D03*
%TD*%
D17*
%TO.P,R4,1*%
%TO.N,/LED_B_MCU*%
X36650000Y44440000D03*
%TO.P,R4,2*%
%TO.N,/LED_B*%
X36650000Y45460000D03*
%TD*%
D18*
%TO.P,H4,1,1*%
%TO.N,GND*%
X5850000Y45000000D03*
X6333274Y46166726D03*
X6333274Y43833274D03*
X7500000Y46650000D03*
D19*
X7500000Y45000000D03*
D18*
X7500000Y43350000D03*
X8666726Y46166726D03*
X8666726Y43833274D03*
X9150000Y45000000D03*
%TD*%
D10*
%TO.P,R9,1*%
%TO.N,GND*%
X10560000Y33450000D03*
%TO.P,R9,2*%
%TO.N,/USB_CC1*%
X9540000Y33450000D03*
%TD*%
D20*
%TO.P,C2,1*%
%TO.N,+3.3V*%
X20450000Y23725000D03*
%TO.P,C2,2*%
%TO.N,GND*%
X20450000Y22175000D03*
%TD*%
D21*
%TO.P,R1,1*%
%TO.N,GND*%
X24865000Y20250000D03*
%TO.P,R1,2*%
%TO.N,/BOOT*%
X25885000Y20250000D03*
%TD*%
D22*
%TO.P,C13,1*%
%TO.N,+3.3V*%
X21650000Y30000000D03*
%TO.P,C13,2*%
%TO.N,GND*%
X20690000Y30000000D03*
%TD*%
D18*
%TO.P,H3,1,1*%
%TO.N,GND*%
X5850000Y12500000D03*
X6333274Y13666726D03*
X6333274Y11333274D03*
X7500000Y14150000D03*
D19*
X7500000Y12500000D03*
D18*
X7500000Y10850000D03*
X8666726Y13666726D03*
X8666726Y11333274D03*
X9150000Y12500000D03*
%TD*%
D11*
%TO.P,C20,1*%
%TO.N,+3.3V*%
X20350000Y55560000D03*
%TO.P,C20,2*%
%TO.N,GND*%
X20350000Y54600000D03*
%TD*%
D23*
%TO.P,J1,1,In*%
%TO.N,/RF_COAX_LPF*%
X44525000Y30000000D03*
D24*
%TO.P,J1,2,Ext*%
%TO.N,GND*%
X46050000Y31475000D03*
X46050000Y28525000D03*
%TD*%
D11*
%TO.P,C24,1*%
%TO.N,+3.3V*%
X28450000Y15300000D03*
%TO.P,C24,2*%
%TO.N,GND*%
X28450000Y14340000D03*
%TD*%
D21*
%TO.P,R5,1*%
%TO.N,GND*%
X33040000Y42600000D03*
%TO.P,R5,2*%
%TO.N,/OLED_NRST*%
X34060000Y42600000D03*
%TD*%
D25*
%TO.P,C22,1*%
%TO.N,+3.3V*%
X23625000Y36050000D03*
%TO.P,C22,2*%
%TO.N,GND*%
X22075000Y36050000D03*
%TD*%
D17*
%TO.P,R3,1*%
%TO.N,/LED_G_MCU*%
X37725000Y44440000D03*
%TO.P,R3,2*%
%TO.N,/LED_G*%
X37725000Y45460000D03*
%TD*%
D26*
%TO.P,U2,1*%
%TO.N,N/C*%
X23930000Y52675000D03*
%TO.P,U2,2*%
X25180000Y52675000D03*
%TO.P,U2,3*%
X26430000Y52675000D03*
%TO.P,U2,4*%
X27680000Y52675000D03*
%TO.P,U2,5*%
X28930000Y52675000D03*
D27*
%TO.P,U2,6,GND*%
%TO.N,GND*%
X30580000Y54325000D03*
%TO.P,U2,7,VDD*%
%TO.N,+3.3V*%
X30580000Y55575000D03*
%TO.P,U2,8*%
%TO.N,N/C*%
X30580000Y56825000D03*
%TO.P,U2,9,SCL*%
%TO.N,/SENSORS_SCL*%
X30580000Y58075000D03*
%TO.P,U2,10,SDA*%
%TO.N,/SENSORS_SDA*%
X30580000Y59325000D03*
D26*
%TO.P,U2,11*%
%TO.N,N/C*%
X28930000Y60975000D03*
%TO.P,U2,12*%
X27680000Y60975000D03*
%TO.P,U2,13*%
X26430000Y60975000D03*
%TO.P,U2,14*%
X25180000Y60975000D03*
%TO.P,U2,15*%
X23930000Y60975000D03*
D27*
%TO.P,U2,16*%
X22280000Y59325000D03*
%TO.P,U2,17*%
X22280000Y58075000D03*
%TO.P,U2,18*%
X22280000Y56825000D03*
%TO.P,U2,19,VDD*%
%TO.N,+3.3V*%
X22280000Y55575000D03*
%TO.P,U2,20,GND*%
%TO.N,GND*%
X22280000Y54325000D03*
D28*
%TO.P,U2,21,GND*%
X26430000Y56825000D03*
%TD*%
D29*
%TO.P,C6,1*%
%TO.N,/SWD_NRST*%
X20425000Y19220000D03*
%TO.P,C6,2*%
%TO.N,GND*%
X20425000Y20180000D03*
%TD*%
D30*
%TO.P,C9,1*%
%TO.N,/SMPSFB_MCU*%
X26525000Y33900000D03*
%TO.P,C9,2*%
%TO.N,GND*%
X28075000Y33900000D03*
%TD*%
D18*
%TO.P,H2,1,1*%
%TO.N,GND*%
X43710000Y45000000D03*
X44193274Y46166726D03*
X44193274Y43833274D03*
X45360000Y46650000D03*
D19*
X45360000Y45000000D03*
D18*
X45360000Y43350000D03*
X46526726Y46166726D03*
X46526726Y43833274D03*
X47010000Y45000000D03*
%TD*%
D11*
%TO.P,C18,1*%
%TO.N,+3.3V*%
X31200000Y31630000D03*
%TO.P,C18,2*%
%TO.N,GND*%
X31200000Y30670000D03*
%TD*%
D31*
%TO.P,L1,1,1*%
%TO.N,/RF_LPF_MATCHING*%
X35037500Y30000000D03*
%TO.P,L1,2,2*%
%TO.N,/RF_MCU*%
X34067500Y30000000D03*
%TD*%
D32*
%TO.P,FLT1,1,IN*%
%TO.N,/RF_LPF_MATCHING*%
X37275000Y30000000D03*
D33*
%TO.P,FLT1,2,GND*%
%TO.N,GND*%
X37887500Y30227500D03*
D32*
%TO.P,FLT1,3,OUT*%
%TO.N,/RF_COAX_LPF*%
X38500000Y30000000D03*
D33*
%TO.P,FLT1,4,GND*%
%TO.N,GND*%
X37887500Y29772500D03*
%TD*%
D29*
%TO.P,C19,1*%
%TO.N,+3.3V*%
X20450000Y25250000D03*
%TO.P,C19,2*%
%TO.N,GND*%
X20450000Y26210000D03*
%TD*%
D22*
%TO.P,C3,1*%
%TO.N,+3.3V*%
X24180000Y34650000D03*
%TO.P,C3,2*%
%TO.N,GND*%
X23220000Y34650000D03*
%TD*%
D11*
%TO.P,C10,1*%
%TO.N,+3.3V*%
X31200000Y29330000D03*
%TO.P,C10,2*%
%TO.N,GND*%
X31200000Y28370000D03*
%TD*%
D34*
%TO.P,U5,1,I/O1*%
%TO.N,/USB_CON_D-*%
X10025000Y32000000D03*
%TO.P,U5,2,GND*%
%TO.N,GND*%
X10025000Y31050000D03*
%TO.P,U5,3,I/O2*%
%TO.N,/USB_CON_D+*%
X10025000Y30100000D03*
%TO.P,U5,4,I/O2*%
%TO.N,/USB_MCU_D+*%
X12300000Y30100000D03*
%TO.P,U5,5,VBUS*%
%TO.N,VBUS*%
X12300000Y31050000D03*
%TO.P,U5,6,I/O1*%
%TO.N,/USB_MCU_D-*%
X12300000Y32000000D03*
%TD*%
D22*
%TO.P,C11,1*%
%TO.N,/LSE_IN*%
X22855000Y23625000D03*
%TO.P,C11,2*%
%TO.N,GND*%
X21895000Y23625000D03*
%TD*%
D35*
%TO.P,C27,1*%
%TO.N,/BUTTON_2*%
X31815000Y8575000D03*
%TO.P,C27,2*%
%TO.N,GND*%
X32775000Y8575000D03*
%TD*%
D17*
%TO.P,R2,1*%
%TO.N,/LED_R_MCU*%
X38775000Y44440000D03*
%TO.P,R2,2*%
%TO.N,/LED_R*%
X38775000Y45460000D03*
%TD*%
D11*
%TO.P,C7,1*%
%TO.N,+3.3V*%
X27550000Y23580000D03*
%TO.P,C7,2*%
%TO.N,GND*%
X27550000Y22620000D03*
%TD*%
D36*
%TO.P,U4,1,GND*%
%TO.N,GND*%
X27405000Y14050000D03*
%TO.P,U4,2,CSB*%
%TO.N,unconnected-(U4-CSB-Pad2)*%
X26755000Y14050000D03*
%TO.P,U4,3,SDI*%
%TO.N,/SENSORS_SDA*%
X26105000Y14050000D03*
%TO.P,U4,4,SCK*%
%TO.N,/SENSORS_SCL*%
X25455000Y14050000D03*
%TO.P,U4,5,SDO*%
%TO.N,unconnected-(U4-SDO-Pad5)*%
X25455000Y15500000D03*
%TO.P,U4,6,VDDIO*%
%TO.N,+3.3V*%
X26105000Y15500000D03*
%TO.P,U4,7,GND*%
%TO.N,GND*%
X26755000Y15500000D03*
%TO.P,U4,8,VDD*%
%TO.N,+3.3V*%
X27405000Y15500000D03*
%TD*%
D37*
%TO.P,J3,1,VCC*%
%TO.N,+3.3V*%
X6035000Y5670000D03*
%TO.P,J3,2,SWDIO*%
%TO.N,/SWD_DIO*%
X7305000Y5670000D03*
%TO.P,J3,3,~{RESET}*%
%TO.N,/SWD_NRST*%
X6035000Y4400000D03*
%TO.P,J3,4,SWCLK*%
%TO.N,/SWD_CLK*%
X7305000Y4400000D03*
%TO.P,J3,5,GND*%
%TO.N,GND*%
X6035000Y3130000D03*
%TO.P,J3,6,SWO*%
%TO.N,/SWD_SWO*%
X7305000Y3130000D03*
%TD*%
D11*
%TO.P,C8,1*%
%TO.N,/RF_MCU*%
X32962500Y30000000D03*
%TO.P,C8,2*%
%TO.N,GND*%
X32962500Y29040000D03*
%TD*%
D38*
%TO.P,H6,1,1*%
%TO.N,GND*%
X42960000Y52500000D03*
X43662944Y54197056D03*
X43662944Y50802944D03*
X45360000Y54900000D03*
D39*
X45360000Y52500000D03*
D38*
X45360000Y50100000D03*
X47057056Y54197056D03*
X47057056Y50802944D03*
X47760000Y52500000D03*
%TD*%
D40*
%TO.P,L2,1,1*%
%TO.N,/SMPSFB_MCU*%
X27312500Y36100000D03*
%TO.P,L2,2,2*%
%TO.N,/SMPSLX_INT*%
X25187500Y36100000D03*
%TD*%
D41*
%TO.P,U1,1,GND*%
%TO.N,GND*%
X10450000Y17700000D03*
%TO.P,U1,2,VO*%
%TO.N,+3.3V*%
X10450000Y20000000D03*
D42*
X4150000Y20000000D03*
D41*
%TO.P,U1,3,VI*%
%TO.N,VBUS*%
X10450000Y22300000D03*
%TD*%
D12*
%TO.P,SW1,1,1*%
%TO.N,GND*%
X21050000Y2250000D03*
%TO.P,SW1,2,2*%
X14550000Y2250000D03*
%TO.P,SW1,3,K*%
%TO.N,/BUTTON_1*%
X21050000Y6750000D03*
%TO.P,SW1,4,A*%
X14550000Y6750000D03*
%TD*%
D43*
%TO.P,L3,1,1*%
%TO.N,/SMPSLX_INT*%
X25200000Y34585000D03*
%TO.P,L3,2,2*%
%TO.N,/SMPSLX_MCU*%
X25200000Y33615000D03*
%TD*%
D38*
%TO.P,H5,1,1*%
%TO.N,GND*%
X5100000Y52500000D03*
X5802944Y54197056D03*
X5802944Y50802944D03*
X7500000Y54900000D03*
D39*
X7500000Y52500000D03*
D38*
X7500000Y50100000D03*
X9197056Y54197056D03*
X9197056Y50802944D03*
X9900000Y52500000D03*
%TD*%
D44*
%TO.P,X2,1,1*%
%TO.N,/LSE_IN*%
X22850000Y22125000D03*
%TO.P,X2,2,2*%
%TO.N,/LSE_OUT*%
X24250000Y22125000D03*
%TD*%
D45*
%TO.P,J2,1,Pin_1*%
%TO.N,/OLED_NRST*%
X34050000Y45000000D03*
D46*
%TO.P,J2,2,Pin_2*%
%TO.N,/OLED_DC*%
X31510000Y45000000D03*
%TO.P,J2,3,Pin_3*%
%TO.N,/OLED_NCS*%
X28970000Y45000000D03*
%TO.P,J2,4,Pin_4*%
%TO.N,/OLED_CLK*%
X26430000Y45000000D03*
%TO.P,J2,5,Pin_5*%
%TO.N,/OLED_DIN*%
X23890000Y45000000D03*
%TO.P,J2,6,Pin_6*%
%TO.N,GND*%
X21350000Y45000000D03*
%TO.P,J2,7,Pin_7*%
%TO.N,+3.3V*%
X18810000Y45000000D03*
%TD*%
D47*
%TO.P,X1,1,1*%
%TO.N,/HSE_IN*%
X30800000Y35165000D03*
%TO.P,X1,2,2*%
%TO.N,GND*%
X30800000Y33765000D03*
%TO.P,X1,3,3*%
%TO.N,/HSE_OUT*%
X31900000Y33765000D03*
%TO.P,X1,4,4*%
%TO.N,GND*%
X31900000Y35165000D03*
%TD*%
D48*
%TO.P,C4,1*%
%TO.N,+3.3V*%
X12850000Y20000000D03*
%TO.P,C4,2*%
%TO.N,GND*%
X14750000Y20000000D03*
%TD*%
D20*
%TO.P,C14,1*%
%TO.N,+3.3V*%
X18950000Y55855000D03*
%TO.P,C14,2*%
%TO.N,GND*%
X18950000Y54305000D03*
%TD*%
D49*
%TO.P,U3,1,VBAT*%
%TO.N,+3.3V*%
X23680000Y25312500D03*
%TO.P,U3,2,PC14*%
%TO.N,/LSE_IN*%
X24180000Y25312500D03*
%TO.P,U3,3,PC15*%
%TO.N,/LSE_OUT*%
X24680000Y25312500D03*
%TO.P,U3,4,PH3*%
%TO.N,/BOOT*%
X25180000Y25312500D03*
%TO.P,U3,5,PB8*%
%TO.N,/SENSORS_SCL*%
X25680000Y25312500D03*
%TO.P,U3,6,PB9*%
%TO.N,/SENSORS_SDA*%
X26180000Y25312500D03*
%TO.P,U3,7,NRST*%
%TO.N,/SWD_NRST*%
X26680000Y25312500D03*
%TO.P,U3,8,VDDA*%
%TO.N,+3.3V*%
X27180000Y25312500D03*
%TO.P,U3,9,PA0*%
%TO.N,/LED_R_MCU*%
X27680000Y25312500D03*
%TO.P,U3,10,PA1*%
%TO.N,/LED_G_MCU*%
X28180000Y25312500D03*
%TO.P,U3,11,PA2*%
%TO.N,/LED_B_MCU*%
X28680000Y25312500D03*
%TO.P,U3,12,PA3*%
%TO.N,unconnected-(U3-PA3-Pad12)*%
X29180000Y25312500D03*
D50*
%TO.P,U3,13,PA4*%
%TO.N,/OLED_NRST*%
X29867500Y26000000D03*
%TO.P,U3,14,PA5*%
%TO.N,/OLED_CLK*%
X29867500Y26500000D03*
%TO.P,U3,15,PA6*%
%TO.N,/OLED_NCS*%
X29867500Y27000000D03*
%TO.P,U3,16,PA7*%
%TO.N,/OLED_DIN*%
X29867500Y27500000D03*
%TO.P,U3,17,PA8*%
%TO.N,/OLED_DC*%
X29867500Y28000000D03*
%TO.P,U3,18,PA9*%
%TO.N,unconnected-(U3-PA9-Pad18)*%
X29867500Y28500000D03*
%TO.P,U3,19,PB2*%
%TO.N,unconnected-(U3-PB2-Pad19)*%
X29867500Y29000000D03*
%TO.P,U3,20,VDD*%
%TO.N,+3.3V*%
X29867500Y29500000D03*
%TO.P,U3,21,RF1*%
%TO.N,/RF_MCU*%
X29867500Y30000000D03*
%TO.P,U3,22,VSSRF*%
%TO.N,GND*%
X29867500Y30500000D03*
%TO.P,U3,23,VDDRF*%
%TO.N,+3.3V*%
X29867500Y31000000D03*
%TO.P,U3,24,OSC_OUT*%
%TO.N,/HSE_OUT*%
X29867500Y31500000D03*
D49*
%TO.P,U3,25,OSC_IN*%
%TO.N,/HSE_IN*%
X29180000Y32187500D03*
%TO.P,U3,26,AT0*%
%TO.N,unconnected-(U3-AT0-Pad26)*%
X28680000Y32187500D03*
%TO.P,U3,27,AT1*%
%TO.N,unconnected-(U3-AT1-Pad27)*%
X28180000Y32187500D03*
%TO.P,U3,28,PB0*%
%TO.N,unconnected-(U3-PB0-Pad28)*%
X27680000Y32187500D03*
%TO.P,U3,29,PB1*%
%TO.N,unconnected-(U3-PB1-Pad29)*%
X27180000Y32187500D03*
%TO.P,U3,30,PE4*%
%TO.N,unconnected-(U3-PE4-Pad30)*%
X26680000Y32187500D03*
%TO.P,U3,31,VFBSMPS*%
%TO.N,/SMPSFB_MCU*%
X26180000Y32187500D03*
%TO.P,U3,32,VSSSMPS*%
%TO.N,GND*%
X25680000Y32187500D03*
%TO.P,U3,33,VLXSMPS*%
%TO.N,/SMPSLX_MCU*%
X25180000Y32187500D03*
%TO.P,U3,34,VDDSMPS*%
%TO.N,+3.3V*%
X24680000Y32187500D03*
%TO.P,U3,35,VDD*%
X24180000Y32187500D03*
%TO.P,U3,36,PA10*%
%TO.N,unconnected-(U3-PA10-Pad36)*%
X23680000Y32187500D03*
D50*
%TO.P,U3,37,PA11*%
%TO.N,/USB_MCU_D-*%
X22992500Y31500000D03*
%TO.P,U3,38,PA12*%
%TO.N,/USB_MCU_D+*%
X22992500Y31000000D03*
%TO.P,U3,39,PA13*%
%TO.N,/SWD_DIO*%
X22992500Y30500000D03*
%TO.P,U3,40,VDDUSB*%
%TO.N,+3.3V*%
X22992500Y30000000D03*
%TO.P,U3,41,PA14*%
%TO.N,/SWD_CLK*%
X22992500Y29500000D03*
%TO.P,U3,42,PA15*%
%TO.N,unconnected-(U3-PA15-Pad42)*%
X22992500Y29000000D03*
%TO.P,U3,43,PB3*%
%TO.N,/SWD_SWO*%
X22992500Y28500000D03*
%TO.P,U3,44,PB4*%
%TO.N,/BUTTON_1*%
X22992500Y28000000D03*
%TO.P,U3,45,PB5*%
%TO.N,/BUTTON_2*%
X22992500Y27500000D03*
%TO.P,U3,46,PB6*%
%TO.N,unconnected-(U3-PB6-Pad46)*%
X22992500Y27000000D03*
%TO.P,U3,47,PB7*%
%TO.N,unconnected-(U3-PB7-Pad47)*%
X22992500Y26500000D03*
%TO.P,U3,48,VDD*%
%TO.N,+3.3V*%
X22992500Y26000000D03*
D51*
%TO.P,U3,49,VSS*%
%TO.N,GND*%
X26430000Y28750000D03*
%TD*%
D10*
%TO.P,R6,1*%
%TO.N,/SENSORS_SCL*%
X25860000Y19125000D03*
%TO.P,R6,2*%
%TO.N,+3.3V*%
X24840000Y19125000D03*
%TD*%
D21*
%TO.P,R7,1*%
%TO.N,/SENSORS_SDA*%
X27180000Y19125000D03*
%TO.P,R7,2*%
%TO.N,+3.3V*%
X28200000Y19125000D03*
%TD*%
D11*
%TO.P,C17,1*%
%TO.N,+3.3V*%
X32500000Y55555000D03*
%TO.P,C17,2*%
%TO.N,GND*%
X32500000Y54595000D03*
%TD*%
D18*
%TO.P,H1,1,1*%
%TO.N,GND*%
X43710000Y12500000D03*
X44193274Y13666726D03*
X44193274Y11333274D03*
X45360000Y14150000D03*
D19*
X45360000Y12500000D03*
D18*
X45360000Y10850000D03*
X46526726Y13666726D03*
X46526726Y11333274D03*
X47010000Y12500000D03*
%TD*%
D35*
%TO.P,C15,1*%
%TO.N,/LSE_OUT*%
X24220000Y23635000D03*
%TO.P,C15,2*%
%TO.N,GND*%
X25180000Y23635000D03*
%TD*%
D22*
%TO.P,C21,1*%
%TO.N,+3.3V*%
X24200000Y33650000D03*
%TO.P,C21,2*%
%TO.N,GND*%
X23240000Y33650000D03*
%TD*%
D20*
%TO.P,C12,1*%
%TO.N,+3.3V*%
X33900000Y55850000D03*
%TO.P,C12,2*%
%TO.N,GND*%
X33900000Y54300000D03*
%TD*%
D48*
%TO.P,C1,1*%
%TO.N,VBUS*%
X12850000Y22300000D03*
%TO.P,C1,2*%
%TO.N,GND*%
X14750000Y22300000D03*
%TD*%
D10*
%TO.P,R8,1*%
%TO.N,/OLED_NCS*%
X28960000Y42600000D03*
%TO.P,R8,2*%
%TO.N,+3.3V*%
X27940000Y42600000D03*
%TD*%
D22*
%TO.P,C26,1*%
%TO.N,/BUTTON_1*%
X21080000Y8560000D03*
%TO.P,C26,2*%
%TO.N,GND*%
X20120000Y8560000D03*
%TD*%
D29*
%TO.P,C16,1*%
%TO.N,+3.3V*%
X21550000Y25250000D03*
%TO.P,C16,2*%
%TO.N,GND*%
X21550000Y26210000D03*
%TD*%
D52*
%TO.P,D1,1,RK*%
%TO.N,/LED_R*%
X27830000Y48775000D03*
%TO.P,D1,2,A*%
%TO.N,+3.3V*%
X25030000Y48775000D03*
%TO.P,D1,3,GK*%
%TO.N,/LED_G*%
X25030000Y50225000D03*
%TO.P,D1,4,BK*%
%TO.N,/LED_B*%
X27830000Y50225000D03*
%TD*%
D35*
%TO.P,C23,1*%
%TO.N,+3.3V*%
X25970000Y16550000D03*
%TO.P,C23,2*%
%TO.N,GND*%
X26930000Y16550000D03*
%TD*%
D48*
%TO.P,C25,1*%
%TO.N,+3.3V*%
X19150000Y42000000D03*
%TO.P,C25,2*%
%TO.N,GND*%
X21050000Y42000000D03*
%TD*%
D53*
%TO.N,GND*%
X31695115Y27693365D03*
X27600000Y58050000D03*
D54*
X46550000Y37500000D03*
X46550000Y17500000D03*
X49050000Y27500000D03*
X41550000Y60000000D03*
X34050000Y7500000D03*
X17820000Y40310000D03*
X26550000Y2500000D03*
X34050000Y5000000D03*
X1550000Y2500000D03*
X20440000Y21250000D03*
D53*
X10560000Y28010000D03*
X45030000Y32630000D03*
D54*
X36550000Y2500000D03*
X1550000Y42500000D03*
X24050000Y5000000D03*
D53*
X24325000Y30850000D03*
D54*
X1550000Y40000000D03*
X1550000Y25000000D03*
D53*
X27525000Y29825000D03*
D54*
X16550000Y35000000D03*
X1550000Y22500000D03*
X1550000Y5000000D03*
X11550000Y62500000D03*
X46550000Y22500000D03*
D53*
X27600000Y55600000D03*
D54*
X4050000Y40000000D03*
X51550000Y7500000D03*
X51550000Y15000000D03*
D53*
X35710000Y40580000D03*
D54*
X49050000Y10000000D03*
X9050000Y62500000D03*
D53*
X35300000Y47799997D03*
X32650000Y35150000D03*
D54*
X11550000Y42500000D03*
X44050000Y60000000D03*
X4050000Y47500000D03*
D53*
X20450000Y26930000D03*
D54*
X14050000Y42500000D03*
X16550000Y45000000D03*
D53*
X32340000Y42600000D03*
D54*
X14050000Y60000000D03*
D53*
X34450000Y41025000D03*
X31860000Y30670000D03*
D54*
X35180000Y57280000D03*
D53*
X28525000Y28725000D03*
D54*
X9050000Y37500000D03*
X26550000Y10000000D03*
X8800000Y26090000D03*
X24050000Y2500000D03*
X9050000Y40000000D03*
X9050000Y57500000D03*
X22810000Y47610000D03*
D53*
X32962500Y28350000D03*
D54*
X49050000Y17500000D03*
X1550000Y17500000D03*
X44050000Y37500000D03*
D53*
X25200000Y55600000D03*
D54*
X29050000Y10000000D03*
D53*
X21900000Y22900000D03*
D54*
X34050000Y62500000D03*
X16550000Y50000000D03*
X16550000Y62500000D03*
D53*
X34219979Y38371751D03*
D54*
X31550000Y5000000D03*
X11550000Y12500000D03*
D53*
X9720000Y16360000D03*
D54*
X14050000Y57500000D03*
X1550000Y32500000D03*
X4050000Y32500000D03*
X19050000Y5000000D03*
X1550000Y12500000D03*
D53*
X36137500Y26050001D03*
X41724998Y39640310D03*
X34321750Y27150000D03*
D54*
X9050000Y25000000D03*
X51550000Y12500000D03*
X29050000Y5000000D03*
D53*
X17660000Y9910000D03*
D54*
X39050000Y10000000D03*
X14050000Y25000000D03*
X4050000Y30000000D03*
X16550000Y5000000D03*
X6550000Y37500000D03*
X19050000Y35000000D03*
D53*
X45010000Y27440000D03*
X24175000Y20250000D03*
D54*
X29050000Y7500000D03*
X41550000Y62500000D03*
X1550000Y7500000D03*
X11550000Y52500000D03*
X14050000Y52500000D03*
X34050000Y20000000D03*
X14050000Y50000000D03*
D53*
X47010000Y32640000D03*
X28525000Y30850000D03*
D54*
X16550000Y47500000D03*
D53*
X8925000Y31050000D03*
X23150431Y13393800D03*
X18050000Y54300000D03*
D54*
X14050000Y47500000D03*
X19050000Y37500000D03*
X51550000Y17500000D03*
D53*
X22450000Y33600000D03*
D54*
X44050000Y57500000D03*
X11550000Y60000000D03*
X4050000Y25000000D03*
X39050000Y62500000D03*
X1550000Y45000000D03*
X6550000Y57500000D03*
X41550000Y10000000D03*
X14050000Y40000000D03*
D53*
X27577428Y21891053D03*
D54*
X11550000Y37500000D03*
D53*
X21090000Y12140000D03*
D54*
X14050000Y27500000D03*
X9050000Y47500000D03*
D53*
X46050000Y27450000D03*
D54*
X21550000Y5000000D03*
X29770000Y16580000D03*
X36550000Y62500000D03*
X31550000Y20000000D03*
X23298619Y39635009D03*
D53*
X46990000Y27450000D03*
D54*
X11550000Y47500000D03*
X34050000Y17500000D03*
D53*
X28668182Y21009269D03*
D54*
X11550000Y25000000D03*
X19050000Y52500000D03*
D53*
X19450000Y8550000D03*
D54*
X34050000Y2500000D03*
X51550000Y5000000D03*
X19050000Y2500000D03*
X1550000Y15000000D03*
X27340000Y40650000D03*
X49050000Y42500000D03*
X11550000Y57500000D03*
D53*
X15610000Y20410000D03*
D54*
X29050000Y2500000D03*
X16550000Y52500000D03*
X9050000Y60000000D03*
D53*
X27650000Y16550000D03*
X20000000Y30000000D03*
X15610000Y21800000D03*
D54*
X16550000Y30000000D03*
X19050000Y50000000D03*
D53*
X37890000Y30907500D03*
D54*
X6550000Y40000000D03*
X46550000Y25000000D03*
X8200000Y35810000D03*
X36550000Y55000000D03*
X11550000Y40000000D03*
X49050000Y50000000D03*
D53*
X40135903Y24808683D03*
D54*
X16550000Y2500000D03*
D53*
X10560000Y34100000D03*
D54*
X1550000Y30000000D03*
X26550000Y5000000D03*
X4050000Y37500000D03*
X21810000Y18360000D03*
D53*
X21145000Y20180000D03*
X24679482Y15378250D03*
X34750000Y54300000D03*
D54*
X44050000Y25000000D03*
X11550000Y45000000D03*
X44050000Y40000000D03*
X16550000Y42500000D03*
X51550000Y2500000D03*
X4050000Y42500000D03*
X24050000Y7500000D03*
D53*
X39650003Y48750000D03*
D54*
X34050000Y10000000D03*
X14050000Y62500000D03*
X36550000Y10000000D03*
X49050000Y30000000D03*
D53*
X25325000Y27675000D03*
D54*
X46550000Y35000000D03*
X11550000Y50000000D03*
D53*
X25175000Y22975000D03*
X33450000Y8550000D03*
X25200000Y58050000D03*
D54*
X31550000Y62500000D03*
X29010000Y33890000D03*
X36550000Y5000000D03*
X46550000Y40000000D03*
X44050000Y22500000D03*
X49050000Y37500000D03*
X19050000Y62500000D03*
X1550000Y20000000D03*
X49050000Y12500000D03*
D53*
X21150000Y36050000D03*
D54*
X49050000Y32500000D03*
D53*
X22090000Y9990000D03*
D54*
X49050000Y15000000D03*
X36550000Y52500000D03*
X6550000Y25000000D03*
D53*
X28525000Y26650000D03*
X40074998Y39640310D03*
X21550000Y26930000D03*
X41674937Y24164408D03*
D54*
X46550000Y57500000D03*
X1550000Y10000000D03*
X21550000Y62500000D03*
D53*
X15600000Y19460000D03*
D54*
X14050000Y37500000D03*
D53*
X30750000Y32931136D03*
X28450000Y13650000D03*
D54*
X14050000Y35000000D03*
D53*
X26425000Y30825000D03*
D54*
X31550000Y10000000D03*
D53*
X46070000Y32640000D03*
D54*
X19050000Y32500000D03*
D53*
X25325000Y29800000D03*
D54*
X51550000Y10000000D03*
D53*
X24300000Y28725000D03*
X27550000Y27725000D03*
D54*
X36550000Y7500000D03*
X14050000Y17500000D03*
D53*
X36137500Y28355000D03*
D54*
X16150000Y54600000D03*
D53*
X8920000Y18050000D03*
X11240000Y16390000D03*
D54*
X14050000Y45000000D03*
X14050000Y55000000D03*
X44050000Y35000000D03*
D53*
X8880000Y17100000D03*
X4200000Y1690000D03*
X24325000Y26650000D03*
D54*
X14050000Y5000000D03*
X16550000Y32500000D03*
X11550000Y55000000D03*
X31550000Y17500000D03*
X1550000Y37500000D03*
X51550000Y20000000D03*
X49050000Y45000000D03*
D53*
X26425000Y26600000D03*
X15610000Y22640000D03*
D54*
X4050000Y45000000D03*
X49050000Y25000000D03*
X49050000Y35000000D03*
D53*
X22450000Y34650000D03*
X37877500Y29092500D03*
D54*
X14050000Y12500000D03*
X26550000Y7500000D03*
X44050000Y62500000D03*
X4050000Y15000000D03*
%TO.N,+3.3V*%
X33910000Y57320000D03*
X28649927Y16562345D03*
X23610000Y38580000D03*
X22845000Y48775000D03*
D53*
X28470000Y22640000D03*
X19139756Y29368250D03*
D54*
X16130000Y55840000D03*
X28240000Y39920000D03*
X21300352Y24441340D03*
X22942451Y19087549D03*
X19050000Y40300000D03*
X12820000Y15230000D03*
X32720000Y31620000D03*
D53*
X32080000Y28630000D03*
%TO.N,/SWD_NRST*%
X23010000Y20580000D03*
X27769395Y20962515D03*
%TO.N,/BUTTON_1*%
X18850000Y10030000D03*
X21090000Y10000000D03*
%TO.N,/BUTTON_2*%
X21090000Y10921385D03*
X19720000Y10921385D03*
%TO.N,/OLED_CLK*%
X35549949Y25368250D03*
X35700000Y38675000D03*
%TO.N,/OLED_NCS*%
X34950000Y39628250D03*
X34829375Y25918250D03*
%TO.N,/OLED_DIN*%
X33680741Y26518250D03*
X34253250Y37450000D03*
%TO.N,/OLED_DC*%
X33550000Y41075000D03*
X32856872Y26988250D03*
%TO.N,/OLED_NRST*%
X36725000Y39975000D03*
X36333231Y24925000D03*
%TO.N,/LED_R*%
X38750000Y48750000D03*
X35300000Y48700000D03*
%TO.N,/SENSORS_SDA*%
X24028250Y14750000D03*
X24050000Y13421750D03*
%TO.N,/LED_R_MCU*%
X42550000Y40000000D03*
X42150000Y23400000D03*
%TO.N,/LED_G_MCU*%
X40775000Y24175000D03*
X40900000Y40000000D03*
%TO.N,/LED_B_MCU*%
X39250000Y24650000D03*
X39250000Y40000000D03*
%TD*%
D55*
%TO.N,GND*%
X31695115Y27693365D02*
X31200000Y28188480D01*
X31200000Y28188480D02*
X31200000Y28370000D01*
%TO.N,+3.3V*%
X32080000Y28630000D02*
X32080000Y29080000D01*
X32080000Y29080000D02*
X31830000Y29330000D01*
X31830000Y29330000D02*
X31200000Y29330000D01*
D56*
%TO.N,/OLED_NRST*%
X36333231Y24925000D02*
X36148231Y24740000D01*
X31676664Y24740000D02*
X30416664Y26000000D01*
X36148231Y24740000D02*
X31676664Y24740000D01*
X30416664Y26000000D02*
X29867500Y26000000D01*
%TO.N,/OLED_DC*%
X32856872Y26988250D02*
X32848622Y26980000D01*
X32848622Y26980000D02*
X31520000Y26980000D01*
X31520000Y26980000D02*
X30500000Y28000000D01*
X30500000Y28000000D02*
X29867500Y28000000D01*
%TO.N,/OLED_DIN*%
X33680741Y26518250D02*
X33522491Y26360000D01*
X33522491Y26360000D02*
X31590000Y26360000D01*
X31590000Y26360000D02*
X30450000Y27500000D01*
X30450000Y27500000D02*
X29867500Y27500000D01*
%TO.N,/OLED_NCS*%
X34829375Y25918250D02*
X34801125Y25890000D01*
X34801125Y25890000D02*
X31535000Y25890000D01*
X31535000Y25890000D02*
X30425000Y27000000D01*
X30425000Y27000000D02*
X29867500Y27000000D01*
%TO.N,/OLED_CLK*%
X35549949Y25368250D02*
X35471699Y25290000D01*
X31630832Y25290000D02*
X30420832Y26500000D01*
X35471699Y25290000D02*
X31630832Y25290000D01*
X30420832Y26500000D02*
X29867500Y26500000D01*
D55*
%TO.N,GND*%
X31900000Y35165000D02*
X32635000Y35165000D01*
X10560000Y33400000D02*
X10560000Y34100000D01*
X46070000Y32640000D02*
X46070000Y31495000D01*
X20700000Y30000000D02*
X20000000Y30000000D01*
X45010000Y27440000D02*
X46980000Y27440000D01*
X21075000Y54325000D02*
X22280000Y54325000D01*
X24875000Y20250000D02*
X24175000Y20250000D01*
D57*
X37880000Y29095000D02*
X37877500Y29092500D01*
D55*
X33055000Y54595000D02*
X32500000Y54595000D01*
X7065000Y26745000D02*
X7065000Y27640000D01*
X33040000Y42600000D02*
X32340000Y42600000D01*
X21350000Y43525000D02*
X21350000Y45000000D01*
X21050000Y43225000D02*
X21350000Y43525000D01*
X19505000Y54305000D02*
X19800000Y54600000D01*
X32045000Y54595000D02*
X31775000Y54325000D01*
X27577428Y21891053D02*
X27525000Y21943481D01*
X33900000Y54300000D02*
X34750000Y54300000D01*
X47000000Y32630000D02*
X47010000Y32640000D01*
X32635000Y35165000D02*
X32650000Y35150000D01*
X29000000Y33900000D02*
X29010000Y33890000D01*
X32962500Y29050000D02*
X32962500Y28350000D01*
D58*
X25680000Y29500000D02*
X26430000Y28750000D01*
D55*
X26950000Y16550000D02*
X27650000Y16550000D01*
X21550000Y26230000D02*
X21550000Y26930000D01*
X8800000Y26090000D02*
X7720000Y26090000D01*
D56*
X5640000Y3130000D02*
X4200000Y1690000D01*
D55*
X45030000Y32630000D02*
X47000000Y32630000D01*
X20450000Y26230000D02*
X20450000Y26930000D01*
X28075000Y33900000D02*
X29000000Y33900000D01*
X30800000Y32981136D02*
X30750000Y32931136D01*
D58*
X30631678Y30500000D02*
X29867500Y30500000D01*
D56*
X6035000Y3130000D02*
X5640000Y3130000D01*
D57*
X26755000Y15925000D02*
X26755000Y15500000D01*
D55*
X7065000Y35205000D02*
X7470000Y35610000D01*
X7470000Y35610000D02*
X7670000Y35810000D01*
D58*
X31200000Y30670000D02*
X30801678Y30670000D01*
D57*
X28450000Y14340000D02*
X28050000Y14340000D01*
D55*
X20450000Y21260000D02*
X20440000Y21250000D01*
D58*
X30801678Y30670000D02*
X30631678Y30500000D01*
D55*
X46070000Y31495000D02*
X46050000Y31475000D01*
X20800000Y54600000D02*
X21075000Y54325000D01*
X21900000Y22900000D02*
X21900000Y23650000D01*
D58*
X25680000Y32187500D02*
X25680000Y29500000D01*
D55*
X20450000Y22175000D02*
X20450000Y21260000D01*
X46050000Y27450000D02*
X46050000Y28525000D01*
X33900000Y54300000D02*
X33350000Y54300000D01*
D57*
X27760000Y14050000D02*
X27405000Y14050000D01*
X26930000Y16100000D02*
X26755000Y15925000D01*
D55*
X32750000Y8550000D02*
X33450000Y8550000D01*
X10025000Y31050000D02*
X8925000Y31050000D01*
D57*
X37887500Y30255000D02*
X37887500Y30905000D01*
D55*
X7670000Y35810000D02*
X8200000Y35810000D01*
X7065000Y34140000D02*
X7065000Y35205000D01*
X25175000Y23675000D02*
X25175000Y22975000D01*
X10560000Y28710000D02*
X10560000Y28010000D01*
X46980000Y27440000D02*
X46990000Y27450000D01*
X32500000Y54595000D02*
X32045000Y54595000D01*
X18055000Y54305000D02*
X18050000Y54300000D01*
X18950000Y54305000D02*
X19505000Y54305000D01*
X7720000Y26090000D02*
X7065000Y26745000D01*
D57*
X37887500Y30877500D02*
X37890000Y30880000D01*
D55*
X18950000Y54305000D02*
X18055000Y54305000D01*
X27525000Y21943481D02*
X27525000Y22620000D01*
X19800000Y54600000D02*
X20350000Y54600000D01*
X31160000Y30670000D02*
X31860000Y30670000D01*
D57*
X28050000Y14340000D02*
X27760000Y14050000D01*
D55*
X21145000Y20180000D02*
X20395000Y20180000D01*
X31775000Y54325000D02*
X30580000Y54325000D01*
X36137500Y29055000D02*
X36137500Y28355000D01*
X20350000Y54600000D02*
X20800000Y54600000D01*
X21050000Y42000000D02*
X21050000Y43225000D01*
D57*
X37880000Y29745000D02*
X37880000Y29095000D01*
D55*
X28450000Y14350000D02*
X28450000Y13650000D01*
X20150000Y8550000D02*
X19450000Y8550000D01*
X30800000Y33765000D02*
X30800000Y32981136D01*
X33350000Y54300000D02*
X33055000Y54595000D01*
D57*
X26930000Y16550000D02*
X26930000Y16100000D01*
D55*
%TO.N,VBUS*%
X8770000Y27100000D02*
X11050000Y27100000D01*
X7990000Y33340000D02*
X8310000Y33660000D01*
X12340000Y27100000D02*
X12850000Y26590000D01*
X8310000Y33660000D02*
X8310000Y34330000D01*
X8450000Y27420000D02*
X8770000Y27100000D01*
X11050000Y27100000D02*
X12340000Y27100000D01*
X7065000Y33340000D02*
X7990000Y33340000D01*
X11187500Y29742500D02*
X11200000Y29730000D01*
X11400000Y32780000D02*
X11187500Y32567500D01*
X11187500Y31070000D02*
X11187500Y29742500D01*
X7065000Y28440000D02*
X8137942Y28440000D01*
X11360000Y27110000D02*
X11360000Y29524816D01*
X8880000Y34900000D02*
X10980000Y34900000D01*
X12300000Y31050000D02*
X11207500Y31050000D01*
X11360000Y29524816D02*
X11187500Y29697316D01*
X11187500Y29697316D02*
X11187500Y29742500D01*
X11207500Y31050000D02*
X11187500Y31070000D01*
X11350000Y27100000D02*
X11360000Y27110000D01*
X8450000Y28127942D02*
X8450000Y27420000D01*
X12850000Y26590000D02*
X12850000Y22300000D01*
X11400000Y34480000D02*
X11400000Y32780000D01*
X8137942Y28440000D02*
X8450000Y28127942D01*
X11187500Y32567500D02*
X11187500Y31070000D01*
X10980000Y34900000D02*
X11400000Y34480000D01*
X8310000Y34330000D02*
X8880000Y34900000D01*
%TO.N,+3.3V*%
X24180000Y34650000D02*
X24180000Y33670000D01*
X22265000Y55560000D02*
X22280000Y55575000D01*
X23610000Y38580000D02*
X23610000Y36065000D01*
X33400000Y55850000D02*
X33105000Y55555000D01*
D58*
X27997208Y23580000D02*
X28470000Y23107208D01*
D55*
X12810000Y15220000D02*
X5780000Y15220000D01*
X12850000Y15260000D02*
X12850000Y20000000D01*
D58*
X28470000Y23107208D02*
X28470000Y22640000D01*
D55*
X18950000Y55855000D02*
X19445000Y55855000D01*
X33105000Y55555000D02*
X32500000Y55555000D01*
D58*
X31075282Y31580000D02*
X31150000Y31580000D01*
D55*
X20808660Y24441340D02*
X20450000Y24800000D01*
D58*
X19183006Y29325000D02*
X21485000Y29325000D01*
D55*
X22942451Y19087549D02*
X24802549Y19087549D01*
D58*
X21485000Y29325000D02*
X21650000Y29490000D01*
D55*
X26410000Y17530000D02*
X25970000Y17090000D01*
X25970000Y17090000D02*
X25970000Y16550000D01*
X19445000Y55855000D02*
X19740000Y55560000D01*
D58*
X30500000Y29500000D02*
X29867500Y29500000D01*
X24180000Y33630000D02*
X24200000Y33650000D01*
D55*
X28310000Y39990000D02*
X28310000Y41140000D01*
X4150000Y9680000D02*
X5770000Y8060000D01*
X33900000Y55850000D02*
X33400000Y55850000D01*
D58*
X23002500Y25312500D02*
X23680000Y25312500D01*
X29867500Y31000000D02*
X30495282Y31000000D01*
X24180000Y32187500D02*
X24180000Y33630000D01*
D55*
X33910000Y55860000D02*
X33900000Y55850000D01*
X28240000Y39920000D02*
X28310000Y39990000D01*
X12820000Y15230000D02*
X12810000Y15220000D01*
X21300352Y24441340D02*
X20808660Y24441340D01*
X21300352Y25000352D02*
X21550000Y25250000D01*
X16130000Y55840000D02*
X18935000Y55840000D01*
X23610000Y36065000D02*
X23625000Y36050000D01*
D58*
X25970000Y16000000D02*
X26105000Y15865000D01*
X30495282Y31000000D02*
X31075282Y31580000D01*
X19139756Y29368250D02*
X19183006Y29325000D01*
D56*
X27180000Y25312500D02*
X27180000Y24632047D01*
D55*
X28160000Y17530000D02*
X28200000Y17570000D01*
X30600000Y55555000D02*
X30580000Y55575000D01*
D58*
X24680000Y32187500D02*
X24180000Y32187500D01*
D55*
X18810000Y45000000D02*
X18810000Y43665000D01*
X18810000Y43665000D02*
X19150000Y43325000D01*
X28200000Y17570000D02*
X28200000Y19125000D01*
D58*
X27550000Y23580000D02*
X27997208Y23580000D01*
D55*
X24802549Y19087549D02*
X24840000Y19125000D01*
D58*
X26105000Y15865000D02*
X26105000Y15500000D01*
D56*
X27239250Y24280750D02*
X27330000Y24190000D01*
D55*
X23625000Y36050000D02*
X23625000Y35535000D01*
X5770000Y8060000D02*
X5770000Y7810000D01*
D58*
X27960000Y15300000D02*
X28450000Y15300000D01*
D55*
X20450000Y24800000D02*
X20450000Y25250000D01*
X19050000Y40300000D02*
X19050000Y41900000D01*
X19150000Y43325000D02*
X19150000Y42000000D01*
D56*
X5770000Y5935000D02*
X5770000Y7810000D01*
D55*
X28649927Y17040073D02*
X28160000Y17530000D01*
D56*
X6035000Y5670000D02*
X5770000Y5935000D01*
D58*
X27760000Y15500000D02*
X27960000Y15300000D01*
X30670000Y29330000D02*
X30500000Y29500000D01*
D55*
X27940000Y41510000D02*
X27940000Y42600000D01*
D58*
X22992500Y26000000D02*
X22992500Y25302500D01*
D55*
X28649927Y15499927D02*
X28450000Y15300000D01*
X20350000Y55560000D02*
X22265000Y55560000D01*
X32720000Y31620000D02*
X31210000Y31620000D01*
X19740000Y55560000D02*
X20350000Y55560000D01*
D58*
X31200000Y29330000D02*
X30670000Y29330000D01*
D55*
X18935000Y55840000D02*
X18950000Y55855000D01*
X5780000Y15220000D02*
X4150000Y13590000D01*
D58*
X21650000Y30000000D02*
X22992500Y30000000D01*
X22992500Y25302500D02*
X23002500Y25312500D01*
D55*
X12820000Y15230000D02*
X12850000Y15260000D01*
D58*
X21650000Y29490000D02*
X21650000Y30000000D01*
D55*
X31210000Y31620000D02*
X31200000Y31630000D01*
D58*
X27405000Y15500000D02*
X27760000Y15500000D01*
D55*
X21300352Y24441340D02*
X20761340Y24441340D01*
X28649927Y16562345D02*
X28649927Y17040073D01*
D58*
X25970000Y16550000D02*
X25970000Y16000000D01*
D55*
X24180000Y33670000D02*
X24200000Y33650000D01*
X21300352Y24441340D02*
X21300352Y25000352D01*
D56*
X27239250Y24572797D02*
X27239250Y24280750D01*
D58*
X31150000Y31580000D02*
X31200000Y31630000D01*
D56*
X27180000Y24632047D02*
X27239250Y24572797D01*
D55*
X19050000Y41900000D02*
X19150000Y42000000D01*
D58*
X27550000Y23580000D02*
X27550000Y23970000D01*
D55*
X33910000Y57320000D02*
X33910000Y55860000D01*
X28470000Y22640000D02*
X28380000Y22730000D01*
X23625000Y35535000D02*
X24180000Y34980000D01*
X28310000Y41140000D02*
X27940000Y41510000D01*
X20450000Y24130000D02*
X20450000Y23725000D01*
X24180000Y34980000D02*
X24180000Y34650000D01*
X22845000Y48775000D02*
X25030000Y48775000D01*
X28649927Y16562345D02*
X28649927Y15499927D01*
X28160000Y17530000D02*
X26410000Y17530000D01*
X32500000Y55555000D02*
X30600000Y55555000D01*
X4150000Y13590000D02*
X4150000Y9680000D01*
X20761340Y24441340D02*
X20450000Y24130000D01*
D58*
X27550000Y23970000D02*
X27330000Y24190000D01*
D56*
%TO.N,/RF_LPF_MATCHING*%
X35037500Y30000000D02*
X37275000Y30000000D01*
%TO.N,/SWD_NRST*%
X10325000Y825000D02*
X3150000Y825000D01*
X5154300Y5280700D02*
X6035000Y4400000D01*
X12200000Y8025000D02*
X12200000Y2700000D01*
X18970000Y9150000D02*
X13325000Y9150000D01*
X2600000Y4850000D02*
X3030700Y5280700D01*
X27769395Y20962515D02*
X27617485Y20962515D01*
X21650000Y19220000D02*
X20425000Y19220000D01*
X3150000Y825000D02*
X2600000Y1375000D01*
X3030700Y5280700D02*
X5154300Y5280700D01*
X20425000Y19220000D02*
X20425000Y10605000D01*
X23010000Y20580000D02*
X21650000Y19220000D01*
X13325000Y9150000D02*
X12200000Y8025000D01*
X12200000Y2700000D02*
X10325000Y825000D01*
X26680000Y24627879D02*
X26680000Y25312500D01*
X20425000Y10605000D02*
X18970000Y9150000D01*
X2600000Y1375000D02*
X2600000Y4850000D01*
X26882750Y24425129D02*
X26680000Y24627879D01*
X27617485Y20962515D02*
X26882750Y21697250D01*
X26882750Y21697250D02*
X26882750Y24425129D01*
%TO.N,/RF_MCU*%
X29867500Y30000000D02*
X34067500Y30000000D01*
D58*
%TO.N,/SMPSFB_MCU*%
X26175000Y32725000D02*
X26300000Y32850000D01*
X26180000Y32720000D02*
X26175000Y32725000D01*
D55*
X27312500Y36100000D02*
X27312500Y35287500D01*
X26525000Y34500000D02*
X26525000Y33900000D01*
X27312500Y35287500D02*
X26525000Y34500000D01*
X26525000Y33900000D02*
X26525000Y33196518D01*
X26525000Y33196518D02*
X26239241Y32910759D01*
D58*
X26180000Y32187500D02*
X26180000Y32720000D01*
D56*
%TO.N,/LSE_IN*%
X23045000Y24270000D02*
X22855000Y24080000D01*
X22855000Y22130000D02*
X22850000Y22125000D01*
X24180000Y24680000D02*
X23770000Y24270000D01*
X22855000Y24080000D02*
X22855000Y23625000D01*
X23770000Y24270000D02*
X23045000Y24270000D01*
X24180000Y25312500D02*
X24180000Y24680000D01*
X22855000Y23625000D02*
X22855000Y22130000D01*
%TO.N,/LSE_OUT*%
X24220000Y22155000D02*
X24250000Y22125000D01*
X24680000Y25312500D02*
X24680000Y24605000D01*
X24220000Y23635000D02*
X24220000Y22155000D01*
X24220000Y24145000D02*
X24220000Y23635000D01*
X24680000Y24605000D02*
X24220000Y24145000D01*
%TO.N,/BUTTON_1*%
X18850000Y27200000D02*
X19650000Y28000000D01*
X18850000Y10000000D02*
X18850000Y10030000D01*
X21100000Y8580000D02*
X21080000Y8560000D01*
X21080000Y8560000D02*
X21080000Y8470000D01*
X21050000Y8440000D02*
X21050000Y6750000D01*
X19650000Y28000000D02*
X22992500Y28000000D01*
X18850000Y10030000D02*
X18850000Y27200000D01*
X21100000Y10000000D02*
X21100000Y8580000D01*
X21050000Y6750000D02*
X14550000Y6750000D01*
X21080000Y8470000D02*
X21050000Y8440000D01*
%TO.N,/BUTTON_2*%
X31800000Y6750000D02*
X38300000Y6750000D01*
X31800000Y8470000D02*
X31800000Y6750000D01*
X24078615Y10921385D02*
X26425000Y8575000D01*
X21100000Y10921385D02*
X24078615Y10921385D01*
X20189770Y27558250D02*
X19550000Y26918480D01*
X31815000Y8575000D02*
X31815000Y8485000D01*
X19550000Y11050000D02*
X19678615Y10921385D01*
X31815000Y8485000D02*
X31800000Y8470000D01*
X22200000Y27500000D02*
X22141750Y27558250D01*
X26425000Y8575000D02*
X31815000Y8575000D01*
X22992500Y27500000D02*
X22200000Y27500000D01*
X22141750Y27558250D02*
X20189770Y27558250D01*
X19550000Y26918480D02*
X19550000Y11050000D01*
%TO.N,/RF_COAX_LPF*%
X38500000Y30000000D02*
X44525000Y30000000D01*
%TO.N,/OLED_CLK*%
X26430000Y40195000D02*
X26430000Y45000000D01*
X35375000Y39000000D02*
X27625000Y39000000D01*
X27625000Y39000000D02*
X26430000Y40195000D01*
X35700000Y38675000D02*
X35375000Y39000000D01*
%TO.N,/OLED_NCS*%
X34528250Y40050000D02*
X29375000Y40050000D01*
X28970000Y40455000D02*
X28970000Y45000000D01*
X29375000Y40050000D02*
X28970000Y40455000D01*
X34950000Y39628250D02*
X34528250Y40050000D01*
%TO.N,/OLED_DIN*%
X25775000Y38175000D02*
X23890000Y40060000D01*
X34253250Y37450000D02*
X33528250Y38175000D01*
X23890000Y40060000D02*
X23890000Y45000000D01*
X33528250Y38175000D02*
X25775000Y38175000D01*
%TO.N,/OLED_DC*%
X31925000Y41075000D02*
X31510000Y41490000D01*
X33550000Y41075000D02*
X31925000Y41075000D01*
X31510000Y41490000D02*
X31510000Y45000000D01*
%TO.N,/OLED_NRST*%
X34060000Y44990000D02*
X34050000Y45000000D01*
X36175000Y42600000D02*
X34060000Y42600000D01*
X36725000Y42050000D02*
X36175000Y42600000D01*
X36725000Y39975000D02*
X36725000Y42050000D01*
X34060000Y42600000D02*
X34060000Y44990000D01*
%TO.N,/SWD_SWO*%
X18150000Y27350000D02*
X18150000Y11300000D01*
X7595000Y3130000D02*
X7305000Y3130000D01*
X16650000Y9800000D02*
X12775000Y9800000D01*
X22571374Y28500000D02*
X22431374Y28360000D01*
X10375000Y2000000D02*
X8725000Y2000000D01*
X18150000Y11300000D02*
X16650000Y9800000D01*
X11375000Y3000000D02*
X10375000Y2000000D01*
X22431374Y28360000D02*
X19160000Y28360000D01*
X11375000Y8400000D02*
X11375000Y3000000D01*
X22992500Y28500000D02*
X22571374Y28500000D01*
X12775000Y9800000D02*
X11375000Y8400000D01*
X19160000Y28360000D02*
X18150000Y27350000D01*
X8725000Y2000000D02*
X7595000Y3130000D01*
%TO.N,/SWD_CLK*%
X17300000Y11730000D02*
X16070000Y10500000D01*
X12425000Y10500000D02*
X10775000Y8850000D01*
X10775000Y6100000D02*
X10050000Y5375000D01*
X17300000Y27400000D02*
X17300000Y11730000D01*
X22250000Y29500000D02*
X21490000Y28740000D01*
X16070000Y10500000D02*
X12425000Y10500000D01*
X10050000Y5375000D02*
X8280000Y5375000D01*
X22992500Y29500000D02*
X22250000Y29500000D01*
X10775000Y8850000D02*
X10775000Y6100000D01*
X21490000Y28740000D02*
X18640000Y28740000D01*
X18640000Y28740000D02*
X17300000Y27400000D01*
X8280000Y5375000D02*
X7305000Y4400000D01*
%TO.N,/SWD_DIO*%
X16550000Y12460000D02*
X15190000Y11100000D01*
X7493550Y5858550D02*
X7305000Y5670000D01*
X10175000Y11100000D02*
X7493550Y8418550D01*
X7493550Y8418550D02*
X7493550Y5858550D01*
X19450000Y30675000D02*
X16550000Y27775000D01*
X15190000Y11100000D02*
X10175000Y11100000D01*
X16550000Y27775000D02*
X16550000Y12460000D01*
X22150000Y30675000D02*
X19450000Y30675000D01*
X22992500Y30500000D02*
X22325000Y30500000D01*
X22325000Y30500000D02*
X22150000Y30675000D01*
D59*
%TO.N,/USB_CON_D+*%
X8775000Y30100000D02*
X10025000Y30100000D01*
D56*
X7065000Y30140000D02*
X8190000Y30140000D01*
X8300000Y30250000D02*
X8300000Y30575000D01*
D59*
X8296250Y30578750D02*
X8775000Y30100000D01*
D56*
X8190000Y30140000D02*
X8300000Y30250000D01*
D59*
X7065000Y31140000D02*
X8152501Y31140000D01*
X8296250Y30996251D02*
X8296250Y30578750D01*
X8152501Y31140000D02*
X8296250Y30996251D01*
D56*
X8300000Y30575000D02*
X8296250Y30578750D01*
%TO.N,/USB_CC1*%
X8015000Y32140000D02*
X8550000Y32675000D01*
X8550000Y33125000D02*
X8875000Y33450000D01*
X7065000Y32140000D02*
X8015000Y32140000D01*
X8875000Y33450000D02*
X9540000Y33450000D01*
X8550000Y32675000D02*
X8550000Y33125000D01*
%TO.N,/USB_CON_D-*%
X6050000Y30800000D02*
X6050000Y31475000D01*
X6050000Y31475000D02*
X6215000Y31640000D01*
D59*
X8190000Y31640000D02*
X7065000Y31640000D01*
X10025000Y32000000D02*
X8550000Y32000000D01*
D56*
X7065000Y30640000D02*
X6210000Y30640000D01*
X6210000Y30640000D02*
X6050000Y30800000D01*
D59*
X8550000Y32000000D02*
X8190000Y31640000D01*
D56*
X6215000Y31640000D02*
X7065000Y31640000D01*
%TO.N,/USB_CC2*%
X8570000Y29140000D02*
X7065000Y29140000D01*
X9050000Y28660000D02*
X8570000Y29140000D01*
X9540000Y28660000D02*
X9050000Y28660000D01*
D55*
%TO.N,/SMPSLX_INT*%
X25200000Y36087500D02*
X25187500Y36100000D01*
X25200000Y34585000D02*
X25200000Y36087500D01*
D58*
%TO.N,/SMPSLX_MCU*%
X25180000Y32187500D02*
X25180000Y32770000D01*
D55*
X25200000Y33615000D02*
X25200000Y32871518D01*
D56*
%TO.N,/BOOT*%
X25470376Y24325000D02*
X25803250Y23992126D01*
X25803250Y23992126D02*
X25803250Y20331750D01*
X25180000Y24445000D02*
X25300000Y24325000D01*
X25803250Y20331750D02*
X25885000Y20250000D01*
X25180000Y25312500D02*
X25180000Y24445000D01*
X25300000Y24325000D02*
X25470376Y24325000D01*
D58*
%TO.N,/LED_B*%
X36650000Y48750000D02*
X35175000Y50225000D01*
X35175000Y50225000D02*
X27830000Y50225000D01*
X36650000Y45460000D02*
X36650000Y48750000D01*
%TO.N,/LED_R*%
X35225000Y48775000D02*
X27830000Y48775000D01*
X35300000Y48700000D02*
X35225000Y48775000D01*
X38775000Y48725000D02*
X38750000Y48750000D01*
X38775000Y45460000D02*
X38775000Y48725000D01*
%TO.N,/LED_G*%
X37725000Y45460000D02*
X37725000Y48875000D01*
X35600000Y51000000D02*
X26950000Y51000000D01*
X37725000Y48875000D02*
X35600000Y51000000D01*
X26950000Y51000000D02*
X26175000Y50225000D01*
X26175000Y50225000D02*
X25030000Y50225000D01*
D56*
%TO.N,/SENSORS_SCL*%
X26550000Y19400000D02*
X26275000Y19125000D01*
X42570000Y21300000D02*
X48150000Y21300000D01*
X38275000Y58075000D02*
X30580000Y58075000D01*
X25860000Y18660000D02*
X23400000Y16200000D01*
X40700000Y13850000D02*
X40700000Y19430000D01*
X41650000Y48650000D02*
X39600000Y50700000D01*
X50950000Y37800000D02*
X47450000Y41300000D01*
X48150000Y21300000D02*
X50950000Y24100000D01*
X23400000Y14200000D02*
X23550000Y14050000D01*
X26169750Y20873416D02*
X26550000Y20493166D01*
X24800000Y13650000D02*
X25800000Y12650000D01*
X47450000Y41300000D02*
X44350000Y41300000D01*
X39600000Y56750000D02*
X38275000Y58075000D01*
X41650000Y44000000D02*
X41650000Y48650000D01*
X25680000Y25312500D02*
X25680000Y24619544D01*
X39500000Y12650000D02*
X40700000Y13850000D01*
X44350000Y41300000D02*
X41650000Y44000000D01*
X23550000Y14050000D02*
X24800000Y14050000D01*
X26550000Y20493166D02*
X26550000Y19400000D01*
X23400000Y16200000D02*
X23400000Y14200000D01*
X40700000Y19430000D02*
X42570000Y21300000D01*
X26169750Y24129794D02*
X26169750Y20873416D01*
X50950000Y24100000D02*
X50950000Y37800000D01*
X25680000Y24619544D02*
X26169750Y24129794D01*
X24800000Y14050000D02*
X25455000Y14050000D01*
X25800000Y12650000D02*
X39500000Y12650000D01*
X39600000Y50700000D02*
X39600000Y56750000D01*
X26275000Y19125000D02*
X25860000Y19125000D01*
X25860000Y19125000D02*
X25860000Y18660000D01*
X24800000Y14050000D02*
X24800000Y13650000D01*
%TO.N,/SENSORS_SDA*%
X40100000Y11650000D02*
X41830000Y13380000D01*
X26526250Y21398750D02*
X27180000Y20745000D01*
X26750000Y18220000D02*
X27180000Y18650000D01*
X24028250Y16048250D02*
X26200000Y18220000D01*
X25300000Y11650000D02*
X40100000Y11650000D01*
X40850000Y51400000D02*
X40850000Y58200000D01*
X25812500Y14750000D02*
X26105000Y14457500D01*
X26180000Y25312500D02*
X26180000Y24623712D01*
X40850000Y58200000D02*
X39725000Y59325000D01*
X42950000Y20320000D02*
X48770000Y20320000D01*
X27180000Y20745000D02*
X27180000Y19125000D01*
X24050000Y13421750D02*
X24050000Y12900000D01*
X26200000Y18220000D02*
X26750000Y18220000D01*
X41830000Y13380000D02*
X41830000Y19200000D01*
X26180000Y24623712D02*
X26526250Y24277462D01*
X26105000Y14457500D02*
X26105000Y14050000D01*
X52050000Y23600000D02*
X52050000Y44300000D01*
X39725000Y59325000D02*
X30580000Y59325000D01*
X48770000Y20320000D02*
X52050000Y23600000D01*
X24028250Y14750000D02*
X25812500Y14750000D01*
X27180000Y18650000D02*
X27180000Y19125000D01*
X24028250Y14750000D02*
X24028250Y16048250D01*
X52050000Y44300000D02*
X47850000Y48500000D01*
X43750000Y48500000D02*
X40850000Y51400000D01*
X47850000Y48500000D02*
X43750000Y48500000D01*
X24050000Y12900000D02*
X25300000Y11650000D01*
X26526250Y24277462D02*
X26526250Y21398750D01*
X41830000Y19200000D02*
X42950000Y20320000D01*
D58*
%TO.N,/LED_R_MCU*%
X38775000Y43775000D02*
X38775000Y44440000D01*
X42500000Y41750000D02*
X40750000Y43500000D01*
X39050000Y43500000D02*
X38775000Y43775000D01*
X40750000Y43500000D02*
X39050000Y43500000D01*
X42500000Y40050000D02*
X42500000Y41750000D01*
X42150000Y23400000D02*
X41700000Y22950000D01*
X27680000Y24533604D02*
X27680000Y25312500D01*
X41700000Y22950000D02*
X29263604Y22950000D01*
X42550000Y40000000D02*
X42500000Y40050000D01*
X29263604Y22950000D02*
X27680000Y24533604D01*
%TO.N,/LED_G_MCU*%
X37725000Y43525000D02*
X37725000Y44440000D01*
X40900000Y40000000D02*
X40900000Y41900000D01*
X28180000Y24670000D02*
X28180000Y25312500D01*
X40900000Y41900000D02*
X39950000Y42850000D01*
X40775000Y24175000D02*
X40200000Y23600000D01*
X40200000Y23600000D02*
X29250000Y23600000D01*
X38400000Y42850000D02*
X37725000Y43525000D01*
X29250000Y23600000D02*
X28180000Y24670000D01*
X39950000Y42850000D02*
X38400000Y42850000D01*
%TO.N,/LED_B_MCU*%
X39250000Y40000000D02*
X39250000Y41650000D01*
X36650000Y43150000D02*
X36650000Y44440000D01*
X28680000Y24825260D02*
X28680000Y25312500D01*
X38850000Y24250000D02*
X29255260Y24250000D01*
X29255260Y24250000D02*
X28680000Y24825260D01*
X37650000Y42150000D02*
X36650000Y43150000D01*
X39250000Y24650000D02*
X38850000Y24250000D01*
X38750000Y42150000D02*
X37650000Y42150000D01*
X39250000Y41650000D02*
X38750000Y42150000D01*
D59*
%TO.N,/USB_MCU_D+*%
X14146250Y31071250D02*
X22264999Y31071250D01*
X13175000Y30100000D02*
X14146250Y31071250D01*
X22336249Y31000000D02*
X22992500Y31000000D01*
X12300000Y30100000D02*
X13175000Y30100000D01*
X22264999Y31071250D02*
X22336249Y31000000D01*
D56*
%TO.N,/HSE_IN*%
X29700000Y33100000D02*
X29350000Y33100000D01*
X29940000Y35165000D02*
X29850000Y35075000D01*
X29850000Y35075000D02*
X29850000Y33250000D01*
X29180000Y32930000D02*
X29180000Y32187500D01*
X29850000Y33250000D02*
X29700000Y33100000D01*
X30800000Y35165000D02*
X29940000Y35165000D01*
X29350000Y33100000D02*
X29180000Y32930000D01*
%TO.N,/HSE_OUT*%
X31900000Y32800000D02*
X31400000Y32300000D01*
X31900000Y33765000D02*
X31900000Y32800000D01*
X31400000Y32300000D02*
X30650000Y32300000D01*
X30550000Y31625000D02*
X30425000Y31500000D01*
X30650000Y32300000D02*
X30550000Y32200000D01*
X30550000Y32200000D02*
X30550000Y31625000D01*
X30425000Y31500000D02*
X29867500Y31500000D01*
D59*
%TO.N,/USB_MCU_D-*%
X12300000Y32000000D02*
X13575000Y32000000D01*
X22264999Y31428750D02*
X22336249Y31500000D01*
X22336249Y31500000D02*
X22992500Y31500000D01*
X14146250Y31428750D02*
X22264999Y31428750D01*
X13575000Y32000000D02*
X14146250Y31428750D01*
%TD*%
%TA.AperFunction,Conductor*%
%TO.N,+3.3V*%
G36*
X23167129Y25719850D02*
G01*
X23199720Y25689614D01*
X23272454Y25592454D01*
X23315957Y25559888D01*
X23387664Y25506207D01*
X23387671Y25506203D01*
X23473833Y25474067D01*
X23529766Y25432196D01*
X23554184Y25366732D01*
X23554500Y25357885D01*
X23554500Y24972750D01*
X23534815Y24905711D01*
X23482011Y24859956D01*
X23430500Y24848750D01*
X22968806Y24848750D01*
X22880489Y24825086D01*
X22821609Y24809309D01*
X22821608Y24809308D01*
X22689643Y24733119D01*
X22689638Y24733115D01*
X22442843Y24486319D01*
X22381520Y24452834D01*
X22355162Y24450000D01*
X21479999Y24450000D01*
X21220000Y24190001D01*
X21220000Y24182536D01*
X21202733Y24119416D01*
X21162504Y24051392D01*
X21162504Y24051391D01*
X21117357Y23895998D01*
X21117356Y23895992D01*
X21114500Y23859698D01*
X21114500Y23390303D01*
X21117356Y23354014D01*
X21117358Y23354004D01*
X21123913Y23331440D01*
X21123712Y23261570D01*
X21119539Y23250267D01*
X21101557Y23194926D01*
X21062118Y23137252D01*
X21059757Y23135368D01*
X21030631Y23112714D01*
X20965628Y23087093D01*
X20915498Y23092887D01*
X20847711Y23115349D01*
X20748352Y23125500D01*
X20252750Y23125500D01*
X20185711Y23145185D01*
X20139956Y23197989D01*
X20128750Y23249500D01*
X20128750Y25305500D01*
X20148435Y25372539D01*
X20201239Y25418294D01*
X20252750Y25429500D01*
X20684682Y25429500D01*
X20684690Y25429500D01*
X20720993Y25432357D01*
X20720995Y25432358D01*
X20720997Y25432358D01*
X20876389Y25477504D01*
X20876389Y25477505D01*
X20876395Y25477506D01*
X20936882Y25513279D01*
X21004602Y25530460D01*
X21063117Y25513279D01*
X21123605Y25477506D01*
X21123608Y25477506D01*
X21123610Y25477504D01*
X21279002Y25432358D01*
X21279005Y25432358D01*
X21279007Y25432357D01*
X21315310Y25429500D01*
X21315318Y25429500D01*
X21784682Y25429500D01*
X21784690Y25429500D01*
X21820993Y25432357D01*
X21820995Y25432358D01*
X21820997Y25432358D01*
X21890225Y25452471D01*
X21976395Y25477506D01*
X22115687Y25559883D01*
X22230117Y25674313D01*
X22230957Y25675735D01*
X22231907Y25676622D01*
X22234897Y25680476D01*
X22235518Y25679994D01*
X22282021Y25723423D01*
X22337255Y25736622D01*
X23100023Y25739299D01*
X23167129Y25719850D01*
G37*
%TD.AperFunction*%
%TD*%
%TA.AperFunction,Conductor*%
%TO.N,GND*%
G36*
X11270576Y18630412D02*
G01*
X11822889Y18276587D01*
X11868720Y18223849D01*
X11880000Y18172175D01*
X11880000Y16270566D01*
X11860315Y16203527D01*
X11844640Y16183856D01*
X11672400Y16007788D01*
X11611450Y15973631D01*
X11583762Y15970500D01*
X8495174Y15970500D01*
X8428135Y15990185D01*
X8428030Y15990252D01*
X8236856Y16113382D01*
X8191154Y16166231D01*
X8180000Y16217630D01*
X8180000Y18242347D01*
X8199685Y18309386D01*
X8249861Y18353904D01*
X8834360Y18637557D01*
X8888498Y18650000D01*
X11203687Y18650000D01*
X11270576Y18630412D01*
G37*
%TD.AperFunction*%
%TD*%
%TA.AperFunction,Conductor*%
%TO.N,VBUS*%
G36*
X13275677Y23310315D02*
G01*
X13296319Y23293681D01*
X13454801Y23135199D01*
X13488286Y23073876D01*
X13486000Y23012254D01*
X13475796Y22977855D01*
X13475321Y22976349D01*
X13475210Y22975880D01*
X13454343Y22833519D01*
X13450822Y21549087D01*
X13430953Y21482102D01*
X13378024Y21436492D01*
X13308838Y21426738D01*
X13274806Y21436865D01*
X13258004Y21444630D01*
X13257999Y21444632D01*
X13257998Y21444632D01*
X13191073Y21464612D01*
X13191063Y21464615D01*
X13191055Y21464617D01*
X13191051Y21464618D01*
X13143610Y21471658D01*
X13048731Y21485737D01*
X13048724Y21485738D01*
X9283589Y21502724D01*
X9216639Y21522711D01*
X9194248Y21541319D01*
X9144100Y21594107D01*
X9112198Y21656268D01*
X9110000Y21679511D01*
X9110000Y22899197D01*
X9129685Y22966236D01*
X9170975Y23005986D01*
X9542307Y23225132D01*
X9690839Y23312790D01*
X9753862Y23330000D01*
X13208638Y23330000D01*
X13275677Y23310315D01*
G37*
%TD.AperFunction*%
%TD*%
%TA.AperFunction,Conductor*%
%TO.N,GND*%
G36*
X15766289Y23220315D02*
G01*
X15772806Y23215827D01*
X15920808Y23106773D01*
X15963100Y23051162D01*
X15971250Y23006949D01*
X15971250Y19137564D01*
X15951565Y19070525D01*
X15950028Y19068190D01*
X15886873Y18974626D01*
X15833051Y18930073D01*
X15784095Y18920000D01*
X14357145Y18920000D01*
X14290106Y18939685D01*
X14274764Y18951321D01*
X13991772Y19202870D01*
X13954744Y19262121D01*
X13950153Y19295889D01*
X13959841Y22832130D01*
X13979710Y22899115D01*
X14004452Y22927044D01*
X14345513Y23211261D01*
X14409614Y23239055D01*
X14424894Y23240000D01*
X15699250Y23240000D01*
X15766289Y23220315D01*
G37*
%TD.AperFunction*%
%TD*%
%TA.AperFunction,Conductor*%
%TO.N,+3.3V*%
G36*
X5361882Y22210315D02*
G01*
X5386934Y22189037D01*
X6450000Y21010000D01*
X13046449Y20980242D01*
X13113398Y20960255D01*
X13136540Y20940850D01*
X13414758Y20642759D01*
X13446110Y20580319D01*
X13448107Y20557813D01*
X13444655Y19297267D01*
X13448420Y19240475D01*
X13433212Y19172280D01*
X13424975Y19159341D01*
X13237137Y18901065D01*
X13181790Y18858428D01*
X13136857Y18850000D01*
X11901224Y18850000D01*
X11834335Y18869588D01*
X11639776Y18994227D01*
X11543256Y19056060D01*
X11543252Y19056062D01*
X11412642Y19115539D01*
X11345756Y19135126D01*
X11239203Y19150407D01*
X11203687Y19155500D01*
X8888498Y19155500D01*
X8888493Y19155500D01*
X8775262Y19142655D01*
X8721136Y19130215D01*
X8721121Y19130210D01*
X8613659Y19092334D01*
X8139941Y18862442D01*
X8085803Y18850000D01*
X6459999Y18850000D01*
X5345516Y17832428D01*
X5282736Y17801762D01*
X5261907Y17800000D01*
X3147038Y17800000D01*
X3079999Y17819685D01*
X3043287Y17856090D01*
X2740249Y18319065D01*
X2720004Y18385938D01*
X2720000Y18386975D01*
X2720000Y21672340D01*
X2739685Y21739379D01*
X2751921Y21755391D01*
X3143066Y22189051D01*
X3202585Y22225649D01*
X3235145Y22230000D01*
X5294843Y22230000D01*
X5361882Y22210315D01*
G37*
%TD.AperFunction*%
%TD*%
%TA.AperFunction,Conductor*%
%TO.N,GND*%
G36*
X22565677Y36730315D02*
G01*
X22586319Y36713681D01*
X22666101Y36633899D01*
X22699586Y36572576D01*
X22702280Y36552112D01*
X22703315Y36530362D01*
X22697162Y36485466D01*
X22684651Y36447709D01*
X22674500Y36348353D01*
X22674500Y35751663D01*
X22674501Y35751645D01*
X22684650Y35652293D01*
X22684651Y35652290D01*
X22737996Y35491306D01*
X22738001Y35491295D01*
X22827029Y35346960D01*
X22827032Y35346956D01*
X22918031Y35255957D01*
X22944911Y35215730D01*
X22959915Y35179506D01*
X22987651Y35137997D01*
X22987652Y35137995D01*
X23042045Y35056587D01*
X23042047Y35056585D01*
X23042048Y35056584D01*
X23363182Y34735451D01*
X23396666Y34674129D01*
X23399500Y34647771D01*
X23399500Y34415303D01*
X23402356Y34379009D01*
X23402357Y34379006D01*
X23424576Y34302531D01*
X23429500Y34267935D01*
X23429500Y33963228D01*
X23424578Y33928637D01*
X23422357Y33920994D01*
X23422356Y33920987D01*
X23419500Y33884698D01*
X23419500Y33415303D01*
X23422356Y33379009D01*
X23422357Y33379003D01*
X23466042Y33228640D01*
X23465843Y33158770D01*
X23427901Y33100100D01*
X23394420Y33079485D01*
X23346029Y33059440D01*
X23298575Y33050000D01*
X22351362Y33050000D01*
X22284323Y33069685D01*
X22263681Y33086319D01*
X21986319Y33363681D01*
X21952834Y33425004D01*
X21950000Y33451362D01*
X21950000Y34400000D01*
X21600001Y34699999D01*
X21600000Y34700000D01*
X21599998Y34700000D01*
X20896592Y34700000D01*
X20829553Y34719685D01*
X20814937Y34730681D01*
X20492345Y35012950D01*
X20454855Y35071910D01*
X20450000Y35106269D01*
X20450000Y36388000D01*
X20469685Y36455039D01*
X20499600Y36487200D01*
X20650000Y36600000D01*
X20816933Y36725201D01*
X20882375Y36749676D01*
X20891333Y36750000D01*
X22498638Y36750000D01*
X22565677Y36730315D01*
G37*
%TD.AperFunction*%
%TD*%
M02*
