M48
; DRILL file {KiCad 8.0.6} date 2025-02-27T14:04:19-0800
; FORMAT={-:-/ absolute / metric / decimal}
; #@! TF.CreationDate,2025-02-27T14:04:19-08:00
; #@! TF.GenerationSoftware,Kicad,Pcbnew,8.0.6
; #@! TF.FileFunction,MixedPlating,1,4
FMAT,2
METRIC
; #@! TA.AperFunction,Plated,PTH,ViaDrill
T1C0.300
; #@! TA.AperFunction,Plated,PTH,ViaDrill
T2C0.400
; #@! TA.AperFunction,Plated,PTH,ComponentDrill
T3C0.400
; #@! TA.AperFunction,Plated,PTH,ComponentDrill
T4C0.500
; #@! TA.AperFunction,Plated,PTH,ComponentDrill
T5C0.600
; #@! TA.AperFunction,Plated,PTH,ComponentDrill
T6C0.990
; #@! TA.AperFunction,Plated,PTH,ComponentDrill
T7C1.000
; #@! TA.AperFunction,Plated,PTH,ComponentDrill
T8C2.200
; #@! TA.AperFunction,Plated,PTH,ComponentDrill
T9C3.200
; #@! TA.AperFunction,NonPlated,NPTH,ComponentDrill
T10C0.650
; #@! TA.AperFunction,NonPlated,NPTH,ComponentDrill
T11C0.991
; #@! TA.AperFunction,NonPlated,NPTH,ComponentDrill
T12C2.375
%
G90
G05
T1
X4.2Y1.69
X8.88Y17.1
X8.92Y18.05
X8.925Y31.05
X9.72Y16.36
X10.56Y34.1
X10.56Y28.01
X11.24Y16.39
X15.6Y19.46
X15.61Y22.64
X15.61Y21.8
X15.61Y20.41
X17.66Y9.91
X18.05Y54.3
X18.85Y10.03
X19.14Y29.368
X19.45Y8.55
X19.72Y10.921
X20.0Y30.0
X20.45Y26.93
X21.09Y12.14
X21.09Y10.921
X21.09Y10.0
X21.145Y20.18
X21.15Y36.05
X21.55Y26.93
X21.9Y22.9
X22.09Y9.99
X22.45Y34.65
X22.45Y33.6
X23.01Y20.58
X23.15Y13.394
X24.028Y14.75
X24.05Y13.422
X24.175Y20.25
X24.3Y28.725
X24.325Y30.85
X24.325Y26.65
X24.679Y15.378
X25.175Y22.975
X25.2Y58.05
X25.2Y55.6
X25.325Y29.8
X25.325Y27.675
X26.425Y30.825
X26.425Y26.6
X27.525Y29.825
X27.55Y27.725
X27.577Y21.891
X27.6Y58.05
X27.6Y55.6
X27.65Y16.55
X27.769Y20.963
X28.45Y13.65
X28.47Y22.64
X28.525Y30.85
X28.525Y28.725
X28.525Y26.65
X28.668Y21.009
X30.75Y32.931
X31.695Y27.693
X31.86Y30.67
X32.08Y28.63
X32.34Y42.6
X32.65Y35.15
X32.857Y26.988
X32.962Y28.35
X33.45Y8.55
X33.55Y41.075
X33.681Y26.518
X34.22Y38.372
X34.253Y37.45
X34.322Y27.15
X34.45Y41.025
X34.75Y54.3
X34.829Y25.918
X34.95Y39.628
X35.3Y48.7
X35.3Y47.8
X35.55Y25.368
X35.7Y38.675
X35.71Y40.58
X36.137Y28.355
X36.137Y26.05
X36.333Y24.925
X36.725Y39.975
X37.877Y29.092
X37.89Y30.907
X38.75Y48.75
X39.25Y40.0
X39.25Y24.65
X39.65Y48.75
X40.075Y39.64
X40.136Y24.809
X40.775Y24.175
X40.9Y40.0
X41.675Y24.164
X41.725Y39.64
X42.15Y23.4
X42.55Y40.0
X45.01Y27.44
X45.03Y32.63
X46.05Y27.45
X46.07Y32.64
X46.99Y27.45
X47.01Y32.64
T2
X1.55Y45.0
X1.55Y42.5
X1.55Y40.0
X1.55Y37.5
X1.55Y32.5
X1.55Y30.0
X1.55Y25.0
X1.55Y22.5
X1.55Y20.0
X1.55Y17.5
X1.55Y15.0
X1.55Y12.5
X1.55Y10.0
X1.55Y7.5
X1.55Y5.0
X1.55Y2.5
X4.05Y47.5
X4.05Y45.0
X4.05Y42.5
X4.05Y40.0
X4.05Y37.5
X4.05Y32.5
X4.05Y30.0
X4.05Y25.0
X4.05Y15.0
X6.55Y57.5
X6.55Y40.0
X6.55Y37.5
X6.55Y25.0
X8.2Y35.81
X8.8Y26.09
X9.05Y62.5
X9.05Y60.0
X9.05Y57.5
X9.05Y47.5
X9.05Y40.0
X9.05Y37.5
X9.05Y25.0
X11.55Y62.5
X11.55Y60.0
X11.55Y57.5
X11.55Y55.0
X11.55Y52.5
X11.55Y50.0
X11.55Y47.5
X11.55Y45.0
X11.55Y42.5
X11.55Y40.0
X11.55Y37.5
X11.55Y25.0
X11.55Y12.5
X12.82Y15.23
X14.05Y62.5
X14.05Y60.0
X14.05Y57.5
X14.05Y55.0
X14.05Y52.5
X14.05Y50.0
X14.05Y47.5
X14.05Y45.0
X14.05Y42.5
X14.05Y40.0
X14.05Y37.5
X14.05Y35.0
X14.05Y27.5
X14.05Y25.0
X14.05Y17.5
X14.05Y12.5
X14.05Y5.0
X16.13Y55.84
X16.15Y54.6
X16.55Y62.5
X16.55Y52.5
X16.55Y50.0
X16.55Y47.5
X16.55Y45.0
X16.55Y42.5
X16.55Y35.0
X16.55Y32.5
X16.55Y30.0
X16.55Y5.0
X16.55Y2.5
X17.82Y40.31
X19.05Y62.5
X19.05Y52.5
X19.05Y50.0
X19.05Y40.3
X19.05Y37.5
X19.05Y35.0
X19.05Y32.5
X19.05Y5.0
X19.05Y2.5
X20.44Y21.25
X21.3Y24.441
X21.55Y62.5
X21.55Y5.0
X21.81Y18.36
X22.81Y47.61
X22.845Y48.775
X22.942Y19.088
X23.299Y39.635
X23.61Y38.58
X24.05Y7.5
X24.05Y5.0
X24.05Y2.5
X26.55Y10.0
X26.55Y7.5
X26.55Y5.0
X26.55Y2.5
X27.34Y40.65
X28.24Y39.92
X28.65Y16.562
X29.01Y33.89
X29.05Y10.0
X29.05Y7.5
X29.05Y5.0
X29.05Y2.5
X29.77Y16.58
X31.55Y62.5
X31.55Y20.0
X31.55Y17.5
X31.55Y10.0
X31.55Y5.0
X32.72Y31.62
X33.91Y57.32
X34.05Y62.5
X34.05Y20.0
X34.05Y17.5
X34.05Y10.0
X34.05Y7.5
X34.05Y5.0
X34.05Y2.5
X35.18Y57.28
X36.55Y62.5
X36.55Y55.0
X36.55Y52.5
X36.55Y10.0
X36.55Y7.5
X36.55Y5.0
X36.55Y2.5
X39.05Y62.5
X39.05Y10.0
X41.55Y62.5
X41.55Y60.0
X41.55Y10.0
X44.05Y62.5
X44.05Y60.0
X44.05Y57.5
X44.05Y40.0
X44.05Y37.5
X44.05Y35.0
X44.05Y25.0
X44.05Y22.5
X46.55Y57.5
X46.55Y40.0
X46.55Y37.5
X46.55Y35.0
X46.55Y25.0
X46.55Y22.5
X46.55Y17.5
X49.05Y50.0
X49.05Y45.0
X49.05Y42.5
X49.05Y37.5
X49.05Y35.0
X49.05Y32.5
X49.05Y30.0
X49.05Y27.5
X49.05Y25.0
X49.05Y17.5
X49.05Y15.0
X49.05Y12.5
X49.05Y10.0
X51.55Y20.0
X51.55Y17.5
X51.55Y15.0
X51.55Y12.5
X51.55Y10.0
X51.55Y7.5
X51.55Y5.0
X51.55Y2.5
T3
X5.85Y45.0
X5.85Y12.5
X6.333Y46.167
X6.333Y43.833
X6.333Y13.667
X6.333Y11.333
X7.5Y46.65
X7.5Y43.35
X7.5Y14.15
X7.5Y10.85
X8.667Y46.167
X8.667Y43.833
X8.667Y13.667
X8.667Y11.333
X9.15Y45.0
X9.15Y12.5
X43.71Y45.0
X43.71Y12.5
X44.193Y46.167
X44.193Y43.833
X44.193Y13.667
X44.193Y11.333
X45.36Y46.65
X45.36Y43.35
X45.36Y14.15
X45.36Y10.85
X46.527Y46.167
X46.527Y43.833
X46.527Y13.667
X46.527Y11.333
X47.01Y45.0
X47.01Y12.5
T4
X5.1Y52.5
X5.803Y54.197
X5.803Y50.803
X7.5Y54.9
X7.5Y50.1
X9.197Y54.197
X9.197Y50.803
X9.9Y52.5
X42.96Y52.5
X43.663Y54.197
X43.663Y50.803
X45.36Y54.9
X45.36Y50.1
X47.057Y54.197
X47.057Y50.803
X47.76Y52.5
T6
X14.55Y6.75
X14.55Y2.25
X21.05Y6.75
X21.05Y2.25
X31.8Y6.75
X31.8Y2.25
X38.3Y6.75
X38.3Y2.25
T7
X18.81Y45.0
X21.35Y45.0
X23.89Y45.0
X26.43Y45.0
X28.97Y45.0
X31.51Y45.0
X34.05Y45.0
T8
X7.5Y45.0
X7.5Y12.5
X45.36Y45.0
X45.36Y12.5
T9
X7.5Y52.5
X45.36Y52.5
T10
X5.62Y33.78
X5.62Y28.0
T11
X5.654Y1.86
X6.67Y6.94
X7.686Y1.86
T12
X4.13Y6.94
X4.13Y3.765
X9.21Y6.94
X9.21Y3.765
T5
G00X2.27Y35.21
M15
G01X1.67Y35.21
M16
G05
G00X2.27Y26.57
M15
G01X1.67Y26.57
M16
G05
G00X6.7Y35.21
M15
G01X5.6Y35.21
M16
G05
G00X6.7Y26.57
M15
G01X5.6Y26.57
M16
G05
M30
